<svg xmlns="http://www.w3.org/2000/svg" xml:space="preserve" viewBox="-22.87 1.31 251.18 308.7"><!-- Source: https://football-logos.cc --><path d="M144.434 1.916c17.03 33.03 47.82 55.251 83.277 63.068v60.917q-27.6 24.974-44.594 82.22c-14.32 43.95-33.636 68.282-80.547 101.187-36.423-21.524-66.463-48.483-80.18-97.209-10.327-39.709-24.168-67.286-44.662-87.014V64.943Q40.89 45.817 60.791 2.324z" style="fill:#e6c777" data-source="https://football-logos.cc"></path><path d="m144.434 1.916-.532.274c17.114 33.196 48.062 55.526 83.681 63.378l.13-.584h-.599v60.917h.598l-.4-.443c-18.523 16.764-33.418 44.27-44.768 82.492l.574.171-.57-.186c-7.146 21.933-15.52 38.922-27.949 54.548-12.433 15.626-28.939 29.898-52.37 46.334l.343.49.305-.516c-36.363-21.498-66.232-48.307-79.908-96.855l-.576.162.58-.15c-10.342-39.766-24.224-67.463-44.826-87.295l-.416.432h.598V64.943h-.598l.173.573C20.107 52.74 47.981 31.768 61.338 2.574l-.544-.249.003.6 83.642-.41zl-.532.274zl-.004-.599-84.023.411-.158.347C47.071 30.87 19.567 51.643-22.443 64.37l-.425.128v60.84l.183.176c20.386 19.624 34.185 47.081 44.497 86.733l.004.014v-.002c13.758 48.902 43.967 76.013 80.451 97.562l.332.196.316-.222c23.48-16.469 40.084-30.813 52.62-46.567 12.534-15.754 20.978-32.905 28.151-54.923l.005-.016c11.31-38.104 26.146-65.414 44.423-81.945l.196-.179V64.501l-.469-.104c-35.3-7.783-65.93-29.895-82.876-62.757l-.168-.327-.367.001z" style="fill:#866b10"></path><path d="M27.937 190.337c-6.966-23.174-18.317-46.83-28.962-58.42l208.846.001c-13.537 16.298-22.943 37.61-29.596 58.42z" style="fill:#c5112e"></path><path d="m27.937 190.337.573-.172c-6.994-23.243-18.337-46.928-29.094-58.653l-.44.405v.6H207.82v-.599l-.46-.382c-13.612 16.392-23.038 37.768-29.706 58.62l.57.181v-.598H27.937zl.573-.172zv.6h150.724l.135-.417c6.637-20.767 16.023-42.015 29.486-58.22l.814-.98H-2.388l.922 1.002c10.534 11.455 21.891 35.082 28.83 58.188l.127.427h.446z" style="fill:#c5112e"></path><path d="M-9.423 119.34c.12.044-.162-47.454-.162-47.454 11.201-2.413 22.03-6.684 32.211-12.6v60.054zM180.86 59.003c10.624 6.558 22.082 11.262 34.572 14.108l-.043 46.23H180.86zM30.905 54.013C44.52 44.558 58.107 32.58 66.856 15.08h71.193c8.988 15.137 21.961 29.02 34.53 38.315v65.945H30.904z" style="fill:#fff"></path><path d="M53.61 251.242c-16.813-19.75-22.233-51.208-22.233-51.208H174.74c-1.644 4.767-5.47 26.19-24.582 51.208zM102.334 295.114c-13.293-7.266-28.26-19.266-36.896-28.854h71.664c-8.353 8.666-21.979 20.395-34.768 28.854" style="fill:#1b458f"></path><path d="M55.267 254.082h92.951l-8.16 8.985H63.194a88.5 88.5 0 0 1-7.927-8.985" style="fill:#05642c"></path><path d="M56.301 221.343h3.164v13.51h-3.164zM152.801 204.193h3.166v13.512h-3.166z" style="fill:#e6c777"></path><path d="m145.971 221.057-5.44 13.51h3.181l1.13-3.009h5.381l1.088 3.008h3.285l-5.38-13.509zm-.303 8.291 1.873-4.96h.041l1.813 4.96z" style="fill:#e6c777;fill-rule:evenodd"></path><path d="M55.775 208.704h3.065q-.142-1.17-.685-2.08a5 5 0 0 0-1.392-1.515 6 6 0 0 0-1.896-.944 7.6 7.6 0 0 0-2.236-.324q-1.653.001-2.984.548c-.87.368-1.61.87-2.215 1.516a6.7 6.7 0 0 0-1.39 2.272q-.485 1.285-.485 2.8a7.8 7.8 0 0 0 .484 2.762 6.6 6.6 0 0 0 1.391 2.212 6.5 6.5 0 0 0 2.215 1.496q1.334.53 2.984.53 1.33 0 2.438-.378a5.8 5.8 0 0 0 1.938-1.1 5.5 5.5 0 0 0 1.33-1.739 6.5 6.5 0 0 0 .622-2.29h-3.063q-.178 1.363-1.005 2.197-.81.832-2.259.832-1.068-.002-1.813-.38c-.5-.267-.9-.612-1.209-1.04a4.4 4.4 0 0 1-.688-1.439 7 7 0 0 1-.202-1.665 7.4 7.4 0 0 1 .202-1.724 4.4 4.4 0 0 1 .688-1.475 3.2 3.2 0 0 1 1.21-1.04q.743-.398 1.812-.397a3.2 3.2 0 0 1 1.107.19q.546.166.97.49c.28.214.52.466.706.756q.281.42.36.93M12.718 87.836h5.591q-.26-2.944-1.252-5.225-.995-2.279-2.537-3.8a10.2 10.2 0 0 0-3.454-2.375 10.4 10.4 0 0 0-4.08-.805c-2.01 0-3.826.458-5.44 1.375q-2.389 1.376-4.043 3.8-1.656 2.42-2.536 5.701-.885 3.227-.886 7.028.001 3.706.886 6.933.879 3.183 2.536 5.56 1.654 2.373 4.042 3.752c1.615.885 3.431 1.327 5.44 1.327 1.62 0 3.1-.313 4.446-.95q2.025-.95 3.528-2.752 1.51-1.808 2.428-4.37.917-2.567 1.14-5.746H12.94c-.222 2.28-.832 4.115-1.84 5.508q-1.469 2.09-4.115 2.09-1.946 0-3.309-.95c-.908-.663-1.64-1.536-2.207-2.615Q.624 99.71.222 97.713a23.3 23.3 0 0 1-.368-4.178q-.001-2.234.368-4.323c.268-1.394.684-2.627 1.247-3.707q.849-1.66 2.207-2.609 1.362-1 3.31-1 1.066 0 2.02.477a5.4 5.4 0 0 1 1.764 1.234c.518.54.945 1.17 1.287 1.898q.517 1.05.661 2.331" style="fill:#e6c777"></path><path d="M12.718 87.836v.6h6.244l-.058-.653c-.18-2.016-.607-3.819-1.3-5.41-.689-1.577-1.575-2.914-2.665-3.987l-.42.426.432-.415a10.8 10.8 0 0 0-3.656-2.513 11 11 0 0 0-4.31-.85c-2.102 0-4.029.482-5.737 1.452-1.676.965-3.093 2.301-4.24 3.982q-1.72 2.518-2.62 5.884c-.604 2.205-.906 4.603-.906 7.183 0 2.517.303 4.884.907 7.091q.901 3.272 2.622 5.742c1.147 1.65 2.564 2.966 4.233 3.93l.005.003.007.003c1.708.938 3.63 1.402 5.728 1.401 1.695.001 3.271-.33 4.702-1.008 1.428-.67 2.678-1.646 3.731-2.91 1.06-1.265 1.9-2.789 2.531-4.552q.949-2.656 1.174-5.905l.044-.64h-6.77l-.054.541c-.214 2.207-.8 3.935-1.728 5.215l-.004.004v.001c-.895 1.246-2.02 1.822-3.627 1.835-1.202-.002-2.17-.287-2.966-.84l-.342.49.353-.483c-.829-.606-1.499-1.4-2.029-2.41q-.802-1.528-1.19-3.449l-.586.118.59-.107a22.7 22.7 0 0 1-.359-4.07c0-1.457.12-2.86.358-4.219l-.589-.104.587.113c.258-1.345.658-2.522 1.19-3.542l.008-.017-.006.013c.53-1.035 1.196-1.819 2.016-2.39l.004-.004.007-.005c.796-.583 1.758-.882 2.955-.884.621 0 1.2.137 1.754.414l.016.008.014.006c.59.255 1.11.618 1.57 1.1.47.49.86 1.062 1.177 1.738l.006.01a6.4 6.4 0 0 1 .603 2.13l.06.533h.535v-.599l.595-.066a7.6 7.6 0 0 0-.719-2.527l-.537.265.541-.254a7.6 7.6 0 0 0-1.396-2.059 5.95 5.95 0 0 0-1.959-1.369l-.236.55.268-.537a5.1 5.1 0 0 0-2.289-.54c-1.398-.002-2.645.367-3.664 1.117l.355.482-.342-.49C2.34 83.1 1.542 84.054.94 85.233l.01-.017-.008.013c-.594 1.137-1.028 2.43-1.305 3.871l-.002.01a25.5 25.5 0 0 0-.375 4.426q-.002 2.19.377 4.284l.001.008.001.003c.277 1.38.711 2.64 1.303 3.77.604 1.15 1.397 2.1 2.384 2.82l.005.003.005.004c1.02.712 2.258 1.058 3.651 1.056 1.922.014 3.535-.803 4.604-2.343l-.489-.345.486.351c1.086-1.504 1.721-3.45 1.95-5.802l-.597-.057v.598h5.586v-.598l-.597-.042c-.144 2.074-.516 3.934-1.105 5.584q-.89 2.478-2.323 4.188c-.953 1.143-2.055 1.998-3.323 2.595-1.264.597-2.65.894-4.192.894-1.923 0-3.63-.42-5.153-1.254l-.288.525.3-.519c-1.516-.875-2.793-2.06-3.85-3.577-1.062-1.52-1.878-3.308-2.45-5.375-.574-2.093-.865-4.352-.865-6.773 0-2.487.291-4.777.865-6.87.573-2.137 1.392-3.97 2.452-5.52 1.058-1.55 2.336-2.75 3.847-3.62 1.52-.86 3.223-1.294 5.142-1.295 1.373 0 2.648.253 3.85.758a9.6 9.6 0 0 1 3.254 2.238l.004.004.008.008c.967.952 1.771 2.153 2.408 3.613.631 1.451 1.035 3.125 1.205 5.038l.596-.053v-.599h-5.59v.6l.594-.067z" style="fill:#866b10"></path><path d="M609.599 274.769h13.407v-6.627H603.5v35.846h6.099v-14.812h11.619v-6.123h-11.619z" style="fill:#e6c777" transform="translate(-415.402 -190.296)"></path><path d="M603.5 268.142h-.599v36.445h7.296v-14.813h11.619v-7.319h-11.619v-7.088h13.407v-7.825h-20.703v.6zv.598h18.908v5.43H609v9.482h11.619v4.925H609v14.813h-4.902v-35.248zv.598z" style="fill:#866b10" transform="translate(-415.402 -190.296)"></path><path d="M47.803 115.468V92.934h-2.759V82.59l9.426.804-.23-6.898 11.151-8.964-.347-2.877 8.048-5.402 1.953-1.266-7.127-1.954 1.725-.57-8.048-1.266 1.61-1.035-5.059-1.035 2.646-1.034-5.75-1.493 1.494-2.069-5.284-.689 1.836-1.266-3.677-1.668q8.902-2.618 17.071.172l15.404 9.314 9.138-5.922-2.243-.92-2.182-7.415 1.837-12.989-.08-1.58c1.472-1.455 3.243-2.589 5.683-3.449 1.314-.463 5.423-.957 6.337-.792 1.817.326 8.522 3.237 8.522 3.237l.23 1.434 2.012 2.186 3.852 13.852-.572 3.451-3.624 2.76 6.955 3.044 3.392.518 2.398.654 1.108 2.104 16.917 10.67.842 3.581 1.496.118 3.965 3.966.172 4.481.576 1.325 5.404 3.504 1.031.69 5.98-.344v9.884h-3.105v28.087H47.917z" style="fill:#866b10"></path><path d="M461.422 273.92v8.217l57.937 1.268 55.809-2.59h.233v-8.044l-52.708 5.576-3.564 2.468-3.736-2.126z" style="fill:#e6c777" transform="translate(-415.402 -190.296)"></path><path d="M572.389 309.025h-108.19l.057-26.689v.836l55.047.978 53.086-2.356z" style="fill:#e6c777" transform="translate(-415.402 -190.296)"></path><path d="m55.965 83.51 23.104 2.01s-.058-1.608 1.38-2.416c1.438-.804 3.161-2.413 3.161-2.413l-.17-3.965-3.336-6.095s4.023 3.682 4.254 3.91c.228.23.402 5.29.402 5.29s3.392 1.205 3.62 1.663c.231.462 5.058-.17 5.058-.17l2.301-.805s-3.219-1.896-5.23-3.85c-2.01-1.954-2.644-3.796-3.852-5.29-1.208-1.493-3.393-3.849-3.393-3.849L82 64.596l-8.219-3.619-6.994 4.077.205 2.987-11.086 8.796z" style="fill:#e6c777"></path><path d="M67.23 80.866s5.862-4.254 7.413-4.139c.446.034 1.19.053 2.02.063l.84.863c-1.822.417-3.749.86-4.41 1.028-1.38.345-5.864 2.185-5.864 2.185" style="fill:#866b10"></path><path d="m76.137 58.22 5.635 3.503-.979.06 2.76 1.954-1.093-.115 3.795 4.311 3.676 5.69 3.104 3.852 4.024 3.273 3.505 5.002.863 1.263s-3.102-5.863-3.68-7.182c-.572-1.322-4.424-8.45-5.747-11.035-1.323-2.59-6.206-9.142-6.206-9.142l-4.657-5.979-7.243-4.31-7.412-4.54c-3.567-1.718-11.72-1.904-14.424-.692l2.64 1.44-2.068.976 5.171.458-1.836 2.188 6.954 1.664-2.989 1.095 5.287.688-1.955 1.091 8.395 1.207-1.668.98 6.381 1.436z" style="fill:#e6c777;fill-rule:evenodd"></path><path d="m83.954 85.922 2.53-3.504s1.436.228 3.734.172c2.301-.057 3.91-.402 3.91-.402l1.722-.29 4.255 4.772-1.955.402-1.666-.402-9.312-.46z" style="fill:#e6c777"></path><path d="m83.37 54.24 10.301 14.522 8.505 18.828 1.146 1.321 2.416-1.898 3.16-9.538.633-1.608-.285 3.33 4.137-2.239 4.078-6.032-1.955 5.255 3.912-.414-9.31 4.064-1.726 3.332s6.38-2.817 7.703-2.986c.18-.025 8.588 3.064 10.23 4.598.862.804 26.325-2.646 26.325-2.646l-7.014-5.115s-2.355-2.472-6.436-2.472c-4.082 0-7.219 3.39-7.105 3.39l-5.139-1.26 4.426-.637 6.667-2.699 7.85-1.378-2.987-3.298-9.173-.268-5.69 4.943 3.621-6.034 8.05-3.049-15.349-9.289-5.375 2.71 1.121-3.679 3.563-.546-1.47-1.475-3.359-.654-2.514.757v-1.543l-3.29-1.453-3.712-1.225.723 2.774-1.496 8.28s-5.859 10.978-5.803 10.858c-.057.06.113 4.083.23 4.143.213.104-3.218-6.9-3.218-6.9l-8.737-12.934 1.495.692.113-6.839.116-1.324-1.345 1.558-4.53 3.604z" style="fill:#e6c777;fill-rule:evenodd"></path><path d="m504.148 245.486 2.875 8.108-2.818-3.451-.803-3.161-1.552-1.954-.979-.863 3.967-2.528 1.725-1.612zM524.016 258.456l5.976-12.698-7.472 12.241-1.093 6.093-2.702 7.297-5.286-9.482-2.529-3.391 5 10.003 1.207 3.674 1.494 2.647 4.543-10.633zM530.395 254.323l-3.163 6.836 1.553-8.164 4.826-4.423z" style="fill:#866b10" transform="translate(-415.402 -190.296)"></path><path d="M122.35 66.783c.346-.46 6.551-4.772 6.551-4.772l2.672.121 1.443.864z" style="fill:#866b10" data-source="https://football-logos.cc"></path><path d="M107.52 86.611s3.276-3.102 6.725-4.483c0 0 2.875.692 4.83 1.612 1.953.916 2.872 1.895 2.872 1.895z" style="fill:#e6c777"></path><path d="M68.157 68.151c1.42 0 9.541 1.895 9.541 1.895s-9.426-4.654-9.426-4.828c0 0-.233 2.933-.115 2.933" style="fill:#866b10"></path><path d="m526.889 247.076-3.219 6.723 2.47-8.041 5.076-3.282zM510.91 268.057l-11.609-16.38-5.291-3.969 1.324-.171-1.286-1.53-5.958-1.633 3.414.111-2.416-1.311-5.192-.867 2.385-.661-5.385-2.927-4.357-.667 1.838-.689-1.033-.573 17.646 8.391 5.229 6.093 6.666 10.633z" style="fill:#866b10" transform="translate(-415.402 -190.296)"></path><path d="M107.98 39.508c-1.494 5.835-5.39 5.848-5.39 5.848l3.38.274.401 11.726-4.022 8.22-8.796-11.093 2.473-9.486s-2.588-3.388-3.276-8.447c-.79-5.807 1.408-8.996 1.408-8.996l6.407.49-3.619.86s2.516.458 5.86.458c.288 0 5.06-1.406 5.06-1.406s1.55 5.948.114 11.552" style="fill:#e6c777"></path><path d="M89.184 25.42q1.141-2.566 6.173-3.979c.816-.229 4.4-.606 6.076-.088q4.021 1.04 5.98 2.42c-3.463 1.168-7.818 1.895-11.79 1.99l2.527-1.438-6.438 2.244-1.953 3.042z" style="fill:#e6c777"></path><path d="m506.658 233.283 1.033 1.724-3.334-1.266-1.609-4.884 2.136-5.767.493.963-.244 4.127-.891-.243zM527.291 227.018l-.346-2.644-1.494 7.644 2.014-2.298-.059 3.909 1.492-2.472-1.031-5.058z" style="fill:#e6c777" transform="translate(-415.402 -190.296)"></path><path d="M97.577 40.543s1.435-.458 2.587-.632c1.147-.172 3.448.576 3.448.576-.918 1.552-4.483 1.78-6.035.056" style="fill:#866b10"></path><path d="M514.473 228.339v-.545l.661.259.489.545z" style="fill:#866b10" transform="translate(-415.402 -190.296)"></path><path d="m107.393 31.952-1.44.543a2.4 2.4 0 0 0-.368.103l.668.072c-.518.461-1.523.9-2.47.975l-1.114-.717.273-.115-.03-.028-.678-.057.461-.807 3.098-.37zM99.301 32.815l.056 1.55-1.003-1.269-.662.577s-1.516.184-2.5-.029c-.604-.127-.64-.595-.623-.822l-.672-.18 1.371-.122c-.43-.15-1.83-.484-1.83-.484l1.695-.402 3.737.346.458.833z" style="fill:#866b10"></path><path d="m479.637 262.141 2.795-1.696 5.929-.096 6.555 5.502zM462.877 276.57l-.051-.72 51.959 3.694.684.769zM516.053 280.971l.698.786-53.976-2.765-.051-.674zM517.17 282.227l.713.798-54.955-1.82-.204-.929zM523.389 280.095l.535-.773 50.247-4.747-.262.963zM522.621 281.205l.551-.798 51.141-3.36-.094.81zM521.633 282.636l.56-.811 52.157-2.824-.182.929z" style="fill:#866b10" transform="translate(-415.402 -190.296)"></path><path d="M481.71 301.688h-9.011v-3.848h8.099v-2.68h-8.099v-3.363h8.824v-2.902h-12.5v15.691h12.687zM501.705 301.688h-8.146v-12.793h-3.675v15.691h11.821z" style="fill:#05642c" transform="translate(-415.402 -190.296)"></path><path d="M105.197 103.873h3.56c-.113-.906-.376-1.712-.797-2.416a5.8 5.8 0 0 0-1.615-1.758 7 7 0 0 0-2.202-1.1 8.8 8.8 0 0 0-2.597-.374c-1.28 0-2.438.214-3.466.638q-1.523.637-2.574 1.758a7.6 7.6 0 0 0-1.615 2.637q-.562 1.497-.563 3.251.002 1.716.563 3.211a7.5 7.5 0 0 0 1.615 2.568q1.052 1.1 2.574 1.74 1.543.612 3.466.613 1.544 0 2.832-.439a6.7 6.7 0 0 0 2.246-1.275 6.3 6.3 0 0 0 1.543-2.022c.393-.789.633-1.674.73-2.656h-3.56q-.209 1.58-1.172 2.547c-.62.646-1.496.97-2.619.97-.829 0-1.529-.149-2.107-.439a4.1 4.1 0 0 1-1.405-1.21 5.3 5.3 0 0 1-.798-1.67 8.3 8.3 0 0 1-.232-1.937c0-.688.081-1.355.232-1.998a5.2 5.2 0 0 1 .798-1.714 3.74 3.74 0 0 1 1.405-1.209q.865-.461 2.107-.462c.453 0 .88.072 1.29.221a3.6 3.6 0 0 1 1.12.571q.493.374.818.88c.22.32.36.682.423 1.074" style="fill:#05642c"></path><path d="M536.168 297.816h6.766v6.77h3.673v-15.691h-3.673v6.022h-6.766v-6.022h-3.674v15.691h3.674zM568.218 301.688h-9.013v-3.848h8.098v-2.68h-8.098v-3.363h8.822v-2.902h-12.498v15.691h12.689z" style="fill:#05642c" transform="translate(-415.402 -190.296)"></path><path d="M89.194 139.56v-4.99h4.011v1.931h1.892v-1.932h4.043v1.932h1.861v-1.932h4.015v1.932h1.862v-1.932h4.013v1.932h1.864v-1.932h4.012v4.99h-2.483v5.424h4.806v3.902h3.764v-3.902h8.113v7.452H75.238v-7.452h8.111v3.902h3.822v-3.902h5.117v-5.424zm-4.477 13.007 37.133-.119c1.79 12.983 9.632 20.355 23.535 23.061v11.944H60.711v-11.589q23.565-6.353 24.006-23.297m27.44 21.183s-.53-5.955-7.975-5.955-8.167 6.592-8.167 6.592l-.003 8.62h16.027z" style="fill:#e6c777"></path><path d="M530.363 335.975v-6.8H507.01v.68h.679v.68h21.315v4.079H525.7v3.904h-2.407v-3.904h-9.47v3.904h-2.404v-3.904h-3.05v-4.759h-.68v.68-.68h-.679v6.12h3.049l.002 3.903h5.122v-3.903h6.751v3.903h5.125v-3.903z" style="fill:#866b10" transform="translate(-415.402 -190.296)"></path><path d="M504.596 329.855h.668v-4.322h2.674v1.933h3.228v-1.932h2.707v1.932h3.197v-1.932h2.679v1.932h3.198v-1.933h2.678v1.933h3.199v-1.933h2.674v3.654h-26.902zh.668zv.668h28.24v-6.326h-5.348v1.932h-.527v-1.932h-5.35v1.932h-.526v-1.932h-5.351v1.932h-.525v-1.932h-5.379v1.932h-.556v-1.932h-5.346v6.326h.668z" style="fill:#866b10" transform="translate(-415.402 -190.296)"></path><path d="M111.487 182.73v-.337h-15.02v-7.9h-.338l.335.044c.265-2.01 1.26-3.492 2.628-4.495 1.368-1 3.121-1.51 4.87-1.51 1.746 0 3.482.51 4.818 1.508 1.337 1.001 2.284 2.48 2.491 4.487l.336-.034-.337-.006-.122 8.238zv-.337zl.336.005.122-8.258v-.02c-.223-2.189-1.287-3.86-2.762-4.959-1.473-1.1-3.346-1.64-5.223-1.642-1.878 0-3.766.541-5.269 1.64-1.503 1.096-2.612 2.763-2.899 4.951l-.002.023v8.596h16.027l.005-.332z" style="fill:#c4014b"></path><path d="M498.07 339.861h5.182v-3.902h6.807l.002 3.902h5.122v-3.902h6.751v3.902h5.125v-3.902h6.751l.001 3.902h5.123v-3.902h6.753v6.093h-55.048v.679h.679-.679v.681h56.408V334.6h-9.473v3.901h-2.404V334.6h-9.47v3.901h-2.407V334.6h-9.47v3.901h-2.404V334.6h-9.526v3.901h-2.463V334.6h-9.471v8.812h.68v-.681h.679v-6.772h6.752z" style="fill:#866b10" transform="translate(-415.402 -190.296)"></path><path d="M122.567 177.26h15.077v-3.309l-.92-.38h-14.157zm16.44 0h5.698v-1.24a44 44 0 0 1-5.699-1.56zm5.698 1.411h-14.422v3.821h14.422zm-14.095-6.512h3.25a26.4 26.4 0 0 1-3.25-2.146zm-6.194-5.184h2.947a23 23 0 0 1-2.658-3.689h-.289zm-10.88 1.403-.225.002zm-1.573-1.403h11.092v-3.689H109.13l3.15 1.281-1.136 1.556zm-6.172-3.689h-1.282v.866l1.052.003zm-2.644.861v-.86h-1.668l.303.856zm-4.402-.86h-14.04v3.688h11.06l.571-.637-1.135-1.209zm-4.252 5.1h-.737l-.032.83h-1.36l-.002-.266v-.564H77.777a30 30 0 0 1-3.932 2.818v.954h17.34l1.177-3.208.001.266h1.361v-.83l.588.203zm-1.592 5.183H82.9v3.69h7.72v-1.092h2.312zm-2.283 5.101H76.82v3.821h16.083l.005-1.56-2.289.002zm3.427 3.821h1.26v-1.479l-1.26.008zm2.4 0h15.028v-7.887c0-.816-.843-6.129-7.638-6.129s-7.39 6.143-7.39 6.143zm16.08 0h1.3v-1.679h-1.3zm2.432 0h13.965v-3.82h-11.666v2.02h-2.299zm6.247-8.922h-6.277v-.757l1.896-.633 12.426-.02v-3.283l-.528-.49-13.565-.02 1.658 3.792-1.886.654v3.122h2.33v1.324h3.947v-3.689zm18.035 10.333v2.821h5.467v-2.82zm-1.362 2.822v-2.82h-20.039v2.82zm-58.404 0h10.788v1.314h6.184v-1.314h15.028v-2.82H96.445v4.134h-6.184v-4.134H79.473zm11.964 0h3.868v-2.619h-3.86zm21.04 0h4.22v-2.548l-4.22-.026zm-51.086-4.233h14.066v-3.82H61.391zm16.72 1.411h-16.72v2.821h16.72zm-16.72-6.643h.281v-1.004l-.28.078zm1.643 0h18.504v-3.689h-12.28a55 55 0 0 1-6.225 2.286zm9.136-5.1h.313v-.17zm7.13-5.185h4.044v-3.689h-1.093a21.5 21.5 0 0 1-2.952 3.69m3.764-5.1h11.091v-3.69h-9.609a20 20 0 0 1-1.482 3.69m12.452 0h18.48v-3.69h-18.48zm19.841 0h8.59a27 27 0 0 1-1.495-3.69h-7.095zm-30.456-5.1h18.09v-3.695H85.377a22.5 22.5 0 0 1-.477 3.694m19.45 0h17.683a34 34 0 0 1-.77-3.695h-16.912v3.694zm-21.357-5.055h39.447l.082.587c.882 6.38 3.225 11.301 7.023 14.99 2.021 1.96 4.47 3.576 7.346 4.862 2.537 1.133 5.406 2.008 8.621 2.634l.551.107v13.185H60.031v-12.79l.502-.136c7.784-2.098 13.605-5.063 17.487-8.832 3.813-3.71 5.798-8.178 6.007-13.543zm33.12 27.838v-2.479h-3.523l-.047 2.48zm-2.334-3.622.053-2.646-1.352.411s.133.598.128.844l-.019 1.392h1.19zm.521-6.67-1.845.854-1.204.637c.391.561.68 1.131.917 1.764l3.106-1.023zm-3.818-2.237-1.252 1.715a7 7 0 0 1 1.215 1.045l1.822-.858zm-2.352 1.111 1.381-1.72.982-1.345-3.619-1.46-.08.546-.736 3.398c.752.127 1.342.321 2.072.581m-3.469-.786.578-2.062-2.956-.016.714 2.12a11 11 0 0 1 1.664-.042m-2.875.238-1.37-3.882-3.35 1.737 2.687 2.864c.828-.375 1.01-.47 2.033-.719m-4.755-.452-1.566 1.871 2.136.781c.354-.347.66-.568 1.073-.859zm-3.644 2.33-.823 2.241 3.163 1.044c.224-.68.497-1.273.977-1.923l-2.248-.973zm2.011 4.45-1.356-.423.051 2.674h1.212v-1.657zm-.096 3.391h-3.539l-.004 2.48h3.543z" style="fill:#866b10"></path><path d="m101.681 203.497 40.375 15.375.625.875h-9.625v12.875h4.875v8.25h-5.125l-.125 3.375h5.125v3.875H65.431v-3.625h4.75v-3.75h-4.5v-8.25h4.875v-12.625H59.181v-.5zm-17.375 37.125v3.625h34.875v-3.625z" style="fill:#e6c777;fill-rule:evenodd"></path><path d="M75.221 233.038v6.727h2.902v-6.727zm-1.355 6.727v-6.727h-2.902v6.727zm5.611-6.727v6.727h2.902v-6.727zm4.258 0v6.727h2.902v-6.727zm4.256 0v6.727h2.902v-6.727zm4.257 0v6.727h2.902v-6.727zm4.256 0v6.727h2.902v-6.727zm4.258 0v6.727h2.902v-6.727zm4.256 0v6.727h2.902v-6.727zm4.258 0v6.727h2.902v-6.727zm4.256 0v6.727h2.902v-6.727zm4.257 0v6.727h2.902v-6.727zm4.256 0v6.727h2.902v-6.727zm4.258 0v6.727h2.902v-6.727zm4.256 0v6.727h2.902v-6.727zm4.258 0v6.727h2.363v-6.727zm3.254-15.045v.641h1.646zm-1.356.641v-1.168l-2.9-1.129v2.297zm-2.93-3.769 9.802 3.815-.247 1.314h-9.337v11.764h4.455v9.285h-5.049v2.424h5.168v4.906H64.964v-4.906h4.62l.001-2.424h-4.502v-9.285h4.21v-11.764H58.546l-.239-1.317 43.408-16.294zm-1.326 3.77v-2.825l-2.9-1.13v3.953zm-4.256-.002v-4.479l-2.9-1.13v5.61zm-4.255 0v-6.137l-2.9-1.129v7.265zm-4.256 0v-7.793l-2.902-1.13v8.922zm-4.256 0v-9.45l-2.902-1.129v10.577zm-4.256-.002v-11.104l-2.902-1.129v12.233zm-4.256 0v-12.76l-2.902-1.13v13.89zm-4.257 0v-14.417l-.962-.375-1.939.73v14.062zm-4.256 0v-13.555l-2.9 1.09v12.463zm-4.255-.002v-11.956l-2.9 1.09v10.866zm-4.257 0v-10.358l-2.9 1.09v9.268zm-4.256 0v-8.76l-2.9 1.09v7.67zm-4.256 0v-7.163l-2.9 1.09v6.071zm-4.256-.002v-5.563l-2.9 1.09v4.474h2.9zm-4.256 0v-3.966l-2.902 1.09v2.875zm-4.256 0v-2.368l-2.902 1.09v1.277zm-4.255-.002v-.769l-2.048.77zm1.96 26.192v2.197h70.892v-2.188zm52.194-3.773H85.064v2.426h33.454zm1.334.037v2.381h12.238v-2.38zm-48.895 0v2.381h12.748v-2.38zm-4.24-8.043-.012 6.727h2.904v-6.727zm4.97-12.514v10.72h59.93V220.51z" style="fill:#866b10" data-source="https://football-logos.cc"></path><!-- source: https://football-logos.cc --></svg>