<svg xmlns="http://www.w3.org/2000/svg" width="100" height="100" enable-background="new -16 -1 100 100" viewBox="-16 -1 100 100"><!-- Source: https://football-logos.cc --><path fill="none" d="M0 .038h67.963V97.99H0z" data-source="https://football-logos.cc"></path><path fill="#FEFEFE" d="M61.865 45.373A33.9 33.9 0 0 0 47.84 33.92a5.15 5.15 0 0 0 2.36-1.233c1.04-.976 1.415-2.493.96-3.876.175-.223.314-.445.449-.66l.147-.23a21.3 21.3 0 0 0 2.164-4.448c.543-1.583 1.026-3.356.879-5.594-.069-.917-.325-1.634-.55-2.267l-.086-.245c-.279-.755-.643-1.272-.995-1.773l-.069-.1c-1.187-1.695-2.925-2.784-5.023-3.148-.953-.17-2.16-.141-3.068.074a4 4 0 0 0-.43.13 8 8 0 0 0-.989-.91c-1.136-.9-3.153-1.796-5.416-1.612q-.098.01-.194.022a4 4 0 0 0-.098-.35 3 3 0 0 0-.154-.403 5 5 0 0 0-.092-.205l-.093-.17a5 5 0 0 0-.13-.22 2 2 0 0 0-.161-.233 4 4 0 0 0-.237-.296l-.114-.119-.02-.02h.785v-4.37h-1.583V.039h-4.247v1.626h-1.579v4.37h.78a4.16 4.16 0 0 0-1.039 1.81 4 4 0 0 0-.077.293 7 7 0 0 0-.64-.034c-1.942 0-3.736.65-5.049 1.824a7 7 0 0 0-.72.74 6 6 0 0 0-.75-.19 12 12 0 0 0-.78-.085l-.192-.02-.076-.01-.378-.055-.003.03c-.506-.018-.976.076-1.317.14-.055.012-.107.018-.196.03l-.238.04c-3.145.742-5.486 3.263-6.108 6.574a8.7 8.7 0 0 0-.134 2.24c.217 3.191 1.23 5.353 2.338 7.469l.123.23c.305.577.677 1.28 1.17 1.877-.24.736-.237 1.616.017 2.404.366 1.112 1.235 1.977 2.445 2.436q.288.11.596.184A33.9 33.9 0 0 0 6.035 45.463C2.087 51.077 0 57.659 0 64.499 0 82.966 15.247 97.99 33.987 97.99c18.733 0 33.976-15.024 33.976-33.491 0-6.879-2.109-13.492-6.098-19.126"></path><path fill="#E01517" d="M1.68 64.634c0-17.55 14.462-31.78 32.307-31.78 17.834 0 32.296 14.23 32.296 31.78S51.821 96.413 33.987 96.413c-17.845 0-32.307-14.229-32.307-31.779"></path><path fill="#F5D10D" d="M5.563 64.664c0-.609.6-1.1 1.343-1.1.729 0 1.334.49 1.334 1.1 0 .602-.604 1.098-1.334 1.098-.743 0-1.343-.496-1.343-1.098m53.63 0c0-.609.596-1.1 1.334-1.1.744 0 1.339.49 1.339 1.1 0 .602-.595 1.098-1.339 1.098-.738 0-1.334-.496-1.334-1.098M13.567 50.751l-1.273.269c.233.459.201.922-.071 1.364-.454.712-1.41.505-2.13.101-.719-.412-1.378-1.133-1.05-1.909.197-.476.52-.743 1-.833l-.372-1.2c-.821.186-1.335.626-1.75 1.392-.706 1.313.14 3.049 1.485 3.818 1.348.762 3.186.655 3.937-.73.409-.769.5-1.444.224-2.272m1.974-5.58c.621.568.864 1.601.291 2.218l-.397.418-2.307-2.303.389-.412c.544-.577 1.448-.457 2.024.079m.984-1.047c-1.133-1.045-2.888-1.084-3.939.04l-1.362 1.448 4.184 4.146 1.35-1.444c1.1-1.165.933-3.096-.233-4.19m31.925 1.821 3.079-5.073-1.178-.764-1.751 2.878.055-3.956-1.18-.765-3.076 5.066 1.187.76 1.74-2.868-.056 3.958zm-6.94-5.919-1.01-.263.92-1.583zm1.564 2.688-.645-6.192-1.146-.298-3.396 5.157 1.277.662.635-1.082 1.782.461.067 1.257zM35.609 37.5c0 .512-.526.805-1.016.805h-.225v-1.613h.225c.49 0 1.016.3 1.016.808m1.409.001c0-1.272-1.189-2.144-2.424-2.144h-1.618v5.979h1.393v-1.695h.225c1.235 0 2.424-.862 2.424-2.14m-6.268 2.244c-.168-.888-.854-1.283-1.704-1.527l-.407-.112c-.427-.123-.787-.187-.759-.542.009-.226.154-.424.357-.468.319-.08.652-.103.868.131l.624-1.125c-.541-.406-1.09-.463-1.762-.31-.845.184-1.63 1.096-1.458 2.058.18.97 1.012 1.288 1.932 1.572l.342.113c.286.096.551.194.602.5a.615.615 0 0 1-.403.683c-.392.127-.849.033-1.023-.346l-.67 1.17c.563.542 1.333.616 1.97.485 1.01-.221 1.686-1.243 1.491-2.282m-5.247 3.008-.523-1.212-1.9.865-.454-1.039 1.549-.703-.525-1.217-1.55.705-.332-.766 1.814-.829-.532-1.219-3.083 1.42 2.37 5.456zm31.617 3.965-.601-1.335-2.699.803.968-2.718-1.256-.715-1.14 3.807-1.612 1.543.966 1.065 1.604-1.546zm1.097 6.302c-.831.496-1.738.645-2.156-.099-.416-.746.159-1.472 1-1.973.836-.5 1.737-.642 2.152.102.422.742-.159 1.47-.996 1.97m.702 1.259c1.353-.801 2.179-2.496 1.404-3.885-.782-1.392-2.624-1.508-3.974-.696-1.345.797-2.17 2.495-1.396 3.883.786 1.387 2.624 1.502 3.966.698m-1.157 6.674 1.258-.323-.498-2.026 4.377-1.123-.332-1.392-5.637 1.443zM8.592 72.454c-.802.233-1.773-.097-1.983-.925l-.134-.565 3.117-.8.139.561c.183.781-.384 1.504-1.139 1.729m.342 1.403c1.46-.426 2.414-1.939 2.057-3.451l-.475-1.955-5.633 1.441.474 1.948c.372 1.581 2.058 2.467 3.577 2.017m.279 6.781 1.134-.646-1.01-1.873.965-.553.823 1.531 1.13-.647-.818-1.521.715-.414.957 1.786 1.133-.651-1.631-3.028-5.085 2.89zm7.842 5.488c-.25.323-.65.19-1.122-.177l-.168-.146.674-.892.177.14c.498.398.684.753.439 1.075m1.164-1.942c-.18.245-.441.23-.871-.108l-.167-.128.56-.743.155.12c.432.351.5.634.323.859m-.144 2.94c.412-.542.35-1.219-.01-1.808.562.133 1.083-.004 1.44-.479.626-.82.046-1.873-.826-2.58l-1.24-.988-3.574 4.709 1.353 1.072c.94.768 2.177.977 2.857.074m5.159 2.002-.953-.438 1.176-1.397zm1.09 2.925.412-6.212-1.08-.491-4.215 4.473 1.152.869.802-.943 1.681.768-.15 1.25zm5.784-2.719c-.061.414-.553.572-.962.51l-.219-.033.201-1.319.221.03c.644.108.826.376.759.812m1.435 3.818-1.253-2.145a1.87 1.87 0 0 0 1.216-1.453c.179-1.182-.81-2.156-1.96-2.352l-1.593-.251-.907 5.899 1.378.226.297-1.948.216.032 1.29 2.409zm6.749-.494-.909-.955c-.234.447-.638.681-1.142.681-.823 0-1.188-.95-1.242-1.793-.062-.84.174-1.792.988-1.942.485-.093.885.041 1.217.416l.782-.979c-.608-.61-1.24-.812-2.096-.744-1.453.104-2.405 1.777-2.3 3.351.108 1.584 1.2 3.115 2.732 3.008.858-.068 1.455-.362 1.97-1.043m6.248-.94-.375-1.282-1.99.629-.325-1.086 1.623-.507-.378-1.276-1.625.516-.232-.803 1.896-.6-.385-1.269-3.227 1.006 1.694 5.722zm8.625-9.124c.671.71 1.03 1.58.433 2.17-.6.602-1.429.203-2.093-.515-.684-.712-1.039-1.578-.442-2.172.604-.596 1.427-.203 2.102.517m1.019-1.02c-1.086-1.146-2.883-1.561-4.002-.442-1.113 1.11-.787 2.979.297 4.128 1.086 1.15 2.881 1.568 4.006.454 1.124-1.112.781-2.98-.301-4.14m-3.52 6.998-.629-1.162-1.77 1.015-2.185-4.057-1.229.694 2.83 5.224zm9.879-18.232-.22 1.055-1.572-.899zm2.562-1.693-6.002.869-.244 1.186 5.13 3.312.592-1.333-1.069-.604.383-1.855 1.222-.106zm-2.192 8.023-5.082-2.895-.672 1.257 2.879 1.638-3.84.15-.685 1.253 5.084 2.893.678-1.251-2.885-1.639 3.85-.153zM7.044 57.141c.406.094.528.604.438 1.024l-.05.217-1.263-.294.049-.225c.144-.65.427-.817.826-.722m3.809-1.202-2.16 1.132c-.195-.702-.709-1.202-1.33-1.351-1.133-.265-2.148.685-2.404 1.836l-.369 1.62 5.66 1.351.313-1.396-1.867-.444.045-.215 2.421-1.164-.309-1.371z"></path><path fill="#FEFEFE" d="M12.658 64.627c0-11.316 9.553-20.495 21.33-20.495 11.768 0 21.314 9.181 21.314 20.495s-9.547 20.489-21.315 20.489c-11.776 0-21.33-9.175-21.329-20.489" data-source="https://football-logos.cc"></path><g transform="translate(12.657 44.102)"><path fill="#FEFEFE" d="M0 20.525C0 9.209 9.554.03 21.33.03c11.77 0 21.316 9.181 21.316 20.495S33.099 41.014 21.33 41.014C9.553 41.014 0 31.839 0 20.525"></path><defs><filter id="a" width="57.386" height="64.107" x="-6.324" y="-12.587" filterUnits="userSpaceOnUse"><feColorMatrix values="1 0 0 0 0 0 1 0 0 0 0 0 1 0 0 0 0 0 1 0"></feColorMatrix></filter></defs><mask id="b" width="57.386" height="64.107" x="-6.324" y="-12.587" maskUnits="userSpaceOnUse"><g filter="url(#a)"><path fill="#FFF" d="M0 20.525C0 9.209 9.554.03 21.33.03c11.77 0 21.316 9.181 21.316 20.495S33.099 41.014 21.33 41.014C9.553 41.014 0 31.839 0 20.525"></path></g></mask><g mask="url(#b)"><path fill="#0077BD" d="m45.32 7.86 5.742 5.913L14.378 51.52l-5.745-5.915zm-8.538-9.128L42.52 4.65 5.836 42.391l-5.74-5.918zm-6.425-11.319 5.74 5.919-36.679 37.74-5.742-5.91z"></path></g></g><path fill="#F5D10D" d="M49.29 19.834a9.2 9.2 0 0 1-.416 1.998c-.017.058-.044.109-.063.166-.02.081-.05.144-.062.206-.038.097-.055.165-.083.245-.028.085-.07.155-.103.233a1.6 1.6 0 0 1-.106.272c-.04.097-.084.189-.123.296-.052.1-.11.211-.163.317-.059.117-.123.228-.181.341q-.106.196-.21.397c-.211.376-.461.752-.711 1.101-.409.573-.822 1.06-.779 2.106a3.56 3.56 0 0 0-1.994.632c-.166.116-.3.314-.458.427-.005.01-.044.018-.063.016 0 0-.008-.056-.012-.066 0 0 .021-.04.012-.055a5 5 0 0 0-.056-.384 2.26 2.26 0 0 0-.573-1.09c-.142-.143-.276-.28-.441-.4-.328-.253-.253-.152 0-.413.441-.446.695-1.295.99-1.925.76-1.68 1.399-3.523 1.669-5.728.085-.727.147-1.607.038-2.393.285-.09.625-.128.976-.159 1.088-.092 1.894.455 2.372 1.072.082.117.201.232.271.378.289.583.31 1.237.28 2.024.015.001-.011.329-.011.386m-8.906 2.327c-.198.475-.403.949-.604 1.42-.206.48-.508.919-.551 1.58-.021.339.074.592.121.86-.896.257-1.654.72-2.035 1.523-.449-1.024-.813-1.346-1.746-1.833.164-.25.313-.578.371-.961.048-.313.023-.688.023-1.043v-9.289c.596-.298 1.271-.555 2.07-.618 1.09-.087 1.904.25 2.47.75.323.29.606.6.782 1.058.724 1.893-.325 5.136-.901 6.553m-9.569 5.226c-.024.072-.04.138-.06.227-.118-.117-.18-.254-.28-.394-.395-.542-1.084-.962-1.82-1.12.275-1.147-.071-1.663-.423-2.475-.234-.515-.489-1.05-.68-1.594-1.118-3.097-2.319-7.792 2.035-8.149.983-.082 1.778.315 2.465.598.071.752.015 1.624.015 2.405v5.467c0 .79-.098 1.846.028 2.563.061.337.211.602.358.847-.697.357-1.381.797-1.638 1.625m-5.495-.682a2.5 2.5 0 0 0-.51.515c-.3.37-.521.797-.521 1.478-.439-.334-.834-.72-1.422-.888-.324-.106-.646-.142-1.077-.212.096-.966-.342-1.46-.69-1.982-.256-.377-.54-.764-.756-1.166-.334-.616-.694-1.252-.931-1.95-.45-1.292-1.017-3.742-.213-5.074.44-.757 1.15-1.261 2.207-1.338.425-.016.85.041 1.257.166-.102.74-.058 1.547.03 2.257.275 2.321.946 4.162 1.713 5.939.249.595.478 1.295.865 1.753.098.108.21.229.313.318-.101.06-.174.119-.265.184m27.943-8.46c-.06-.82-.323-1.478-.545-2.11-.23-.622-.555-1.06-.892-1.543-.92-1.317-2.311-2.256-4.123-2.572-.79-.14-1.805-.11-2.533.064-.186.037-1.08.396-1.162.367-.038-.01-.314-.41-.359-.464-.25-.32-.655-.685-.965-.927-.983-.78-2.631-1.464-4.431-1.316-.563.052-1.054.2-1.562.275.01-.185.029-.378.039-.584V9.34c0-.069-.01-.139-.013-.208-.006-.025-.006-.045-.006-.07-.002-.023-.002-.048-.01-.08 0-.025-.011-.043-.013-.066a3 3 0 0 0-.078-.351.4.4 0 0 0-.024-.07 1.7 1.7 0 0 0-.114-.297 2 2 0 0 0-.059-.135c-.052-.09-.105-.188-.163-.277a1 1 0 0 0-.068-.096 3 3 0 0 0-.17-.217c-.021-.016-.033-.038-.057-.056a2.74 2.74 0 0 0-1.213-.767V5.059h1.566V3.452h-1.566V1.843H33.18v1.61h-1.56v1.606h1.56v1.59l-.045.019c-.222.073-.43.17-.625.3-.03.015-.06.028-.087.05q-.174.114-.343.283c-.373.358-.642.81-.777 1.308-.146.48-.165.99-.053 1.479-.613-.101-1.207-.264-1.916-.264-1.723 0-3.176.616-4.145 1.483-.426.37-.761.851-1.17 1.24l-.018.034c-.08.022-.25-.1-.32-.13-.313-.109-.653-.233-.987-.293-.357-.054-.688-.064-1.029-.113h-.025c-.415-.047-.854.033-1.195.097-.147.03-.277.043-.413.065-2.53.597-4.522 2.669-5.047 5.458-.107.532-.15 1.202-.107 1.843.198 2.915 1.124 4.866 2.157 6.838.462.868.988 1.949 1.773 2.449-.122.187-.272.354-.353.575-.208.487-.197 1.146-.035 1.65.614 1.862 3.447 2.332 5.17 1.276.768-.464 1.188-1.008 1.3-2.155 1.433 1.498 4.543 1.436 5.69-.32.139-.22.228-.485.328-.768.196.298.377.612.644.829 1.243 1.065 3.668 1.063 4.917 0 .271-.228.45-.539.65-.839.626 1.864 2.926 2.595 4.96 1.763.423-.17.76-.481 1.094-.76 0 1.825 1.888 2.898 3.75 2.713a3.8 3.8 0 0 0 2.216-.979c.545-.51.924-1.426.576-2.43-.089-.264-.275-.44-.386-.682.569-.367.771-.773 1.139-1.347a19.6 19.6 0 0 0 1.997-4.105c.474-1.375.928-2.993.798-4.971"></path><path fill="#E01517" d="M21.407 16.087c-1.057.077-1.767.581-2.207 1.338-.804 1.332-.237 3.782.213 5.074.237.698.597 1.334.93 1.95.216.402.5.79.758 1.166.347.522.785 1.016.69 1.982.43.07.752.106 1.076.212.588.169.983.554 1.422.888 0-.68.221-1.106.52-1.478.151-.2.313-.366.51-.515.092-.064.165-.124.266-.185a4 4 0 0 1-.313-.318c-.387-.458-.616-1.158-.865-1.753-.766-1.777-1.438-3.618-1.713-5.94-.088-.71-.132-1.515-.03-2.256a3.8 3.8 0 0 0-1.257-.165M38.033 13.8c-.799.063-1.475.32-2.07.618v9.289c0 .355.024.73-.023 1.043-.058.383-.207.71-.371.961.933.487 1.298.81 1.746 1.833.381-.804 1.14-1.266 2.035-1.523-.047-.268-.143-.521-.121-.86.043-.661.345-1.1.551-1.58.201-.471.406-.945.604-1.42.576-1.417 1.625-4.66.9-6.553-.175-.459-.458-.768-.781-1.058-.565-.5-1.38-.837-2.47-.75m-8.446.082c-4.354.357-3.153 5.052-2.035 8.149.191.544.446 1.079.68 1.594.352.812.698 1.328.424 2.474.735.16 1.424.579 1.82 1.121.099.139.16.276.28.394a2 2 0 0 1 .06-.227c.256-.828.94-1.268 1.637-1.625-.147-.245-.299-.51-.358-.847-.126-.717-.028-1.772-.028-2.563v-5.467c0-.78.056-1.653-.015-2.405-.687-.283-1.482-.68-2.465-.598m16.789 2.093c-.351.031-.69.069-.976.16.109.785.047 1.665-.039 2.392-.27 2.205-.908 4.048-1.668 5.728-.295.63-.549 1.479-.99 1.925-.253.26-.328.16 0 .412.165.12.3.258.441.402.266.294.475.618.573 1.089.022.115.044.271.056.384.008.016-.012.065-.012.065l.012.056c.02.002.059-.006.063-.016.158-.113.292-.312.458-.427a3.57 3.57 0 0 1 1.995-.632c-.044-1.047.37-1.534.778-2.107.25-.35.5-.725.712-1.1q.103-.202.209-.398c.058-.113.122-.224.181-.341.053-.106.11-.218.163-.317.04-.107.083-.2.123-.296a1.5 1.5 0 0 0 .106-.273c.032-.077.074-.147.103-.232.03-.08.045-.148.083-.245.013-.062.043-.125.062-.206.021-.057.047-.108.063-.166a9 9 0 0 0 .417-1.998c0-.057.025-.385.01-.385.028-.787.008-1.441-.279-2.024-.072-.146-.19-.26-.273-.378-.477-.617-1.283-1.164-2.371-1.072" data-source="https://football-logos.cc"></path><!-- source: https://football-logos.cc --></svg>