<svg xmlns="http://www.w3.org/2000/svg" xmlns:xlink="http://www.w3.org/1999/xlink" xml:space="preserve" viewBox="17.91 17.62 562.19 683.44"><!-- Source: https://football-logos.cc --><defs data-source="https://football-logos.cc"><path id="a" d="M0-57.445h595.28v841.89H0z"></path></defs><clipPath id="b"><use xlink:href="#a" overflow="visible"></use></clipPath><path d="M478.747 358.099v-9.151l9.154-1.821v9.152zm-348.691 69.36v-55.995l9.617-1.915v47.622l15.124-3.009v8.376zm30.635-6.094V365.37l25.75-5.123v8.376l-16.133 3.209v14.426l12.409-2.468v8.376l-12.409 2.469v16.442l17.218-3.425v8.375zm54.056-66.748 9.463-1.882-11.711 58.324-9.618 1.914-11.711-53.667 9.462-1.883 6.98 37.467zm23.5 30.536 7.755-1.542-3.8-23.287zm-3.103 21.403-9.307 1.852 10.315-58.048 11.944-2.375 10.315 53.943-9.306 1.851-1.706-12.068-10.549 2.098zm28.851-5.74v-55.995l8.918-1.774 11.712 29.702.154-32.062 8.687-1.728v55.995l-8.376 1.667-12.254-32.54-.155 35.008zm44.362-56.444-9.306 1.851v-8.375l28.229-5.616v8.376l-9.306 1.851v47.62l-9.618 1.913zm24.587 42.731v-55.996l25.749-5.121v8.375l-16.133 3.209v14.426l12.409-2.469v8.376l-12.409 2.469v16.442l17.217-3.424v8.375zm51.65-66.27 9.616-1.913v42.269q0 6.126 5.119 5.108c5.119-1.018 5.118-3.061 5.118-7.145v-42.269l9.618-1.913v41.881q-.001 7.29-3.955 11.877-3.878 4.572-10.781 5.943-6.901 1.373-10.858-1.639-3.877-3.03-3.877-10.32zm38.157 48.404v-9.15l9.152-1.822v9.152zm27.455-13.371 3.335-.663q3.878-.771 5.353-2.771 1.551-2.015 1.551-6.435v-24.509q0-4.421-1.551-5.818-1.474-1.413-5.353-.643l-3.335.664zm-9.617-46.172 14.271-2.839q7.524-1.497 11.324 1.858 3.877 3.34 3.877 12.025v22.183q0 8.685-3.877 13.567-3.801 4.867-11.324 6.362l-14.271 2.84z" clip-path="url(#b)"></path><path d="M236.941 48.591c0-30.957.058-30.967 30.967-30.967 11.54 0 21.605 6.311 26.932 15.671h8.35c5.328-9.36 15.395-15.671 26.934-15.671 30.909 0 30.966.01 30.966 30.967 0 16.248-12.512 29.573-28.427 30.865a46.4 46.4 0 0 0-2.766 15.827c0 25.652 20.794 46.448 46.447 46.448s46.449-20.796 46.449-46.448c0-17.493-9.67-32.727-23.956-40.649l10.847-22.048c161.313 44.869 227.454 215.453 112.743 423.326a46.24 46.24 0 0 1 9.407 28.026c0 25.651-20.795 46.448-46.449 46.448-3.459 0-6.829-.378-10.071-1.095-33.642 45.953-75.975 93.139-127.826 140.698-45.202 41.46-51.861 41.363-96.852.109-51.903-47.594-94.272-94.813-127.939-140.798a46.7 46.7 0 0 1-10.026 1.085c-25.652 0-46.447-20.797-46.447-46.448a46.24 46.24 0 0 1 9.373-27.985C-39.148 248.06 26.991 77.458 188.315 32.586l10.847 22.046c-14.288 7.921-23.96 23.156-23.96 40.651 0 25.652 20.796 46.448 46.449 46.448s46.447-20.796 46.447-46.448c0-5.559-.976-10.89-2.767-15.83-15.896-1.308-28.39-14.626-28.39-30.862m78.508 522.576c7.271-2.288 13.525-5.618 18.161-8.89a58.6 58.6 0 0 1-18.161 8.89m18.161-8.89a60 60 0 0 0 4.893-3.97c-1.324 1.261-2.969 2.612-4.893 3.97" clip-path="url(#b)"></path><path fill="#FFF" d="m478.748 358.1 9.152-1.82v-9.152l-9.152 1.821zm-348.692 69.359 24.74-4.921v-8.376l-15.123 3.009V369.55l-9.617 1.914zm30.635-6.094 26.835-5.338v-8.375l-17.218 3.425v-16.442l12.409-2.469v-8.376l-12.409 2.468v-14.426l16.132-3.209v-8.376l-25.749 5.124zm54.056-66.748-7.135 40.275-6.98-37.467-9.463 1.882 11.712 53.667 9.617-1.914 11.712-58.325zm20.396 51.939 1.707-12.748 10.548-2.098 1.706 12.068 9.307-1.851-10.315-53.944-11.944 2.376-10.315 58.048zm28.852-5.74 8.686-1.728.155-35.008 12.253 32.54 8.377-1.667v-55.996l-8.687 1.728-.155 32.063-11.711-29.701-8.918 1.774zm44.361-56.444v47.621l9.619-1.913v-47.621l9.306-1.851v-8.375l-28.229 5.615v8.376zm24.587 42.731 26.834-5.338v-8.375l-17.217 3.424v-16.443l12.409-2.468v-8.376l-12.409 2.468v-14.426l16.132-3.209v-8.375l-25.749 5.122zm51.651-66.27v41.88q0 7.29 3.877 10.321 3.957 3.01 10.858 1.638 6.903-1.373 10.78-5.943 3.955-4.588 3.955-11.878v-41.88l-9.617 1.913v42.268q0 6.127-5.118 7.145-5.117 1.018-5.118-5.108V318.92zm38.158 48.404 9.151-1.82v-9.151l-9.151 1.821zm17.838-59.542v55.996l14.269-2.84q7.525-1.495 11.325-6.362 3.877-4.882 3.876-13.568v-22.182q0-8.686-3.876-12.025-3.801-3.355-11.325-1.858zm77.07-23.096c2.014 22.644.486 47.241-5.063 73.411l-399.485 79.462c-11.114-23.349-19.285-45.909-24.773-67.475zm-279.413 98.554 3.955-24.829 3.799 23.287zm211.96-29.286v-40.175l3.335-.664q3.878-.771 5.352.642 1.551 1.397 1.551 5.819v24.508q0 4.421-1.551 6.436-1.474 1.999-5.352 2.77z" clip-path="url(#b)"></path><path fill="#B4053F" d="M435.413 521.784c-23.298 31.991-51.938 64.909-86.46 98.323v-62.971c9.737-11.429 15.616-26.25 15.616-42.442 0-16.193-5.879-31.013-15.616-42.442v-72.865l86.46-17.198zm-86.46-287.525a37.6 37.6 0 0 0 12.225 2.026c4.101 0 7.983-.83 11.887-1.805 4.803 11.179 14.815 19.602 26.953 22.234l35.396 7.039v32.38l-86.46 17.198v-79.072zm-99.86 385.758c-34.537-33.435-63.18-66.372-86.476-98.38v-85.185l86.476-17.201v53.179c-9.65 11.404-15.468 26.155-15.468 42.265s5.818 30.86 15.468 42.266zm-86.476-356.026c20.447-4.082 35.503-7.277 35.503-7.277 12.144-2.633 22.16-11.061 26.96-22.248 3.916.983 7.81 1.819 11.927 1.819 4.225 0 8.294-.697 12.086-1.978v98.887l-86.476 17.201z" clip-path="url(#b)" data-source="https://football-logos.cc"></path><path fill="#DCA43E" fill-rule="evenodd" d="M351.613 541.12c-.561-10.408-10.983-16.987-24.356-13.267-.12-12.021-13.692-18.27-27.433-15.513-11.965-13.408-7.917-29.854 14.434-26.367 12.978 2.024 32.564 11.905 43.521 32.094a58.4 58.4 0 0 1-6.166 23.053m-101.5 6.071c9.217 4.464 19.927-1.262 23.379-14.521 10.482 5.978 22.72-2.655 27.214-15.959 17.6-3.665 29.824 8.065 15.629 25.68-8.198 10.172-26.392 22.117-49.176 21.653a59.1 59.1 0 0 1-17.046-16.853m14.816-80.329c-8.779 18.979-7.264 38.829-2.666 50.726 2.081 5.386 4.593 9.338 7.332 12.07-3.357 17.821-20.622 20.933-27.339.054a58.9 58.9 0 0 1-1.935-15.018c0-19.719 9.709-37.17 24.608-47.832m30.757-10.846c-8.831 5.647-9.376 18.003.532 27.76-10.362 6.107-8.995 20.989.261 31.515-5.628 17.071-21.896 21.79-30.052.689-4.73-12.238-5.969-34.107 5.993-53.674a58.4 58.4 0 0 1 23.266-6.29m61.95 53.354c-12.047-17.182-30.055-25.836-42.692-27.807-5.734-.896-10.434-.689-14.182.333-14.107-12.123-7.499-29.177 15.304-23.307 6.942 1.786 18.312 7.664 27.596 17.777 7.771 9.031 12.847 20.448 13.974 33.004m-24.027 52.907c1.924-1.358 3.57-2.709 4.894-3.97a59 59 0 0 1-4.894 3.97m-18.161 8.89a58.8 58.8 0 0 1-16.351 2.304c-8.67 0-16.9-1.876-24.309-5.246 20.712-1.951 37.049-13.139 45.022-23.031 3.647-4.526 5.819-8.703 6.807-12.462 17.581-6.203 29.086 8.058 12.584 24.887l-.698.689c-1.323 1.261-2.97 2.611-4.894 3.97a58.6 58.6 0 0 1-18.161 8.889m0 0a58.5 58.5 0 0 0 18.161-8.89c-4.635 3.273-10.889 6.602-18.161 8.89" clip-path="url(#b)" clip-rule="evenodd"></path><path fill="#005CA5" d="M255.788 465.592v-47.673l86.468-17.198v64.739c-11.524-10.109-26.625-16.238-43.158-16.238-16.606 0-31.768 6.181-43.31 16.37m-99.866 46.662c-15.898-22.733-29.093-44.972-39.787-66.556l39.787-7.915zm186.334 114.27a956 956 0 0 1-11.979 11.173c-3.223 2.958-25.389 25.551-30.691 25.694-5.695.153-28.464-22.701-31.728-25.694a971 971 0 0 1-12.071-11.263v-62.638c11.542 10.188 26.704 16.369 43.31 16.369 16.533 0 31.634-6.128 43.158-16.236zM510.99 367.155c-10.602 44.647-32.79 93.676-68.882 145.253V380.857zm-424.234-1.67c-8.304-35.856-9.117-68.851-3.654-98.041 5.165-27.595 19.404-41.127 29.629-41.127a8.85 8.85 0 0 1 8.851 8.851c0 4.816-3.891 8.849-9.105 8.847l-6.774-.001.331 28.981c-.043.131 9.777-.03 20.21-1.971a2758 2758 0 0 0 29.678-5.703v86.406zm355.352-100.401 29.786 5.925q11.288 2.225 20.21 1.986l.331-28.981-6.774.001c-5.214.002-9.104-4.031-9.104-8.847a8.85 8.85 0 0 1 8.849-8.851c10.227 0 24.465 13.532 29.63 41.127q1.148 6.125 1.922 12.468l-74.85 14.889zm-186.32-33.801a37.9 37.9 0 0 0 9.228-7.456c9.214 7.675 21.086 12.304 34.072 12.328a53.08 53.08 0 0 0 34.081-12.327 38 38 0 0 0 9.087 7.374v83.461l-86.468 17.2z" clip-path="url(#b)"></path><path fill="#B2B2B2" d="M428.011 57.579c86.838 33.615 139.478 111.418 133.49 216.158-1.328-72.89-34.878-130.252-90.209-163.94l-3.88-2.254c-7.23 35.697-36.563 63.411-74.437 63.411-22.444 0-41.995-9.306-55.315-23.985 10.69 7.926 23.927 12.616 38.261 12.616 35.514 0 64.302-28.788 64.302-64.301 0-14.093-4.536-27.12-12.212-37.705m-258.45 0c-7.675 10.585-12.212 23.613-12.212 37.705 0 35.513 28.789 64.301 64.302 64.301 14.333 0 27.571-4.69 38.261-12.616-13.32 14.679-32.87 23.985-55.315 23.985-37.875 0-67.206-27.714-74.437-63.411l-3.88 2.254c-55.33 33.688-88.882 91.05-90.209 163.94-5.988-104.74 46.652-182.545 133.49-216.158" clip-path="url(#b)"></path><path fill="#FAC400" d="M299.094 229.46c-13.98-.026-26.455-6.14-34.97-15.816-5.299 9.512-15.457 15.946-27.117 15.946a31 31 0 0 1-7.677-.957 40.611 40.611 0 0 0 .388-16.391 15.4 15.4 0 0 0 7.366 1.859c8.562 0 15.504-6.941 15.504-15.504l-.035-10.478h15.987c2.481 14.632 15.216 25.773 30.554 25.773s28.074-11.141 30.554-25.773h15.987l-.039 10.478c0 8.563 6.941 15.504 15.503 15.504 2.647 0 5.137-.663 7.316-1.832a40.5 40.5 0 0 0-.65 7.243c0 3.141.362 6.197 1.045 9.131a31 31 0 0 1-7.633.946c-11.661 0-21.818-6.434-27.117-15.946-8.533 9.697-21.035 15.817-34.966 15.817m-170.817 5.708c0-8.586-6.959-15.546-15.546-15.546-15.535 0-30.947 18.467-36.21 46.59-18.273 97.63 31.548 233.99 186.812 376.419 40.833 37.456 32.499 35.751 71.472 0 155.264-142.43 205.084-278.79 186.812-376.419-5.264-28.123-20.675-46.59-36.211-46.59-8.586 0-15.545 6.96-15.545 15.546s6.96 15.545 15.803 15.543l-.179 15.588c-17.179 0-31.104-13.925-31.104-31.104s13.925-31.104 31.215-31.103c30.931.139 44.353 31.301 49.761 62.099 18.206 103.675-36.326 243.961-191.501 386.308-47.893 43.935-41.686 43.931-89.575 0C99.107 510.152 44.575 369.866 62.781 266.191c5.408-30.798 18.83-61.96 49.762-62.099 17.289-.001 31.215 13.925 31.215 31.103s-13.926 31.104-31.104 31.104l-.179-15.588c8.842.002 15.802-6.958 15.802-15.543m58.576-46.685c.975-.221 2.062-.331 3.231-.331 17.32 0 31.361 14.04 31.361 31.361 0 15.029-10.574 27.585-24.687 30.645l-1.068.213-52.228 10.386a39.86 39.86 0 0 0 9.222-25.562c0-15.504-8.813-28.948-21.703-35.598zm224.433 0 55.87 11.114c-12.889 6.65-21.702 20.094-21.702 35.598a39.87 39.87 0 0 0 9.224 25.562l-52.229-10.386-1.066-.213c-14.114-3.06-24.688-15.616-24.688-30.645 0-17.321 14.041-31.361 31.362-31.361 1.166 0 2.253.111 3.229.331" clip-path="url(#b)" data-source="https://football-logos.cc"></path><!-- source: https://football-logos.cc --></svg>