<svg xmlns="http://www.w3.org/2000/svg" xml:space="preserve" width="300.594" height="396.85" version="1.0"><!-- Source: https://football-logos.cc --><path d="M263.803 334.303v-.807l.554.151-.504.605c0 .001 0 .051-.05.051m0-9.374v-1.108c.251-.152.503-.252.705-.353-.101-.907.403-1.613 1.109-2.117 1.159-.856 2.974-.957 4.133-.05.605.454.907 1.059.907 1.714-.05 1.159-.958 1.965-2.066 2.318-.756.202-1.613.252-2.419 0-.555-.202-1.008-.504-1.311-.958-.353.201-.706.352-1.058.554m0-13.407v-37.951c.755 1.36 1.31 2.822 1.814 4.284.202.655.403 1.36.555 2.066v-1.563c-.05-1.512-.202-3.074-.353-4.586-.605-.05-1.159-.353-1.563-.857-.202-.202-.302-.403-.453-.655v-2.47c.151-.202.251-.403.403-.605.958-1.058 2.47-1.058 3.377.051.353.454.604 1.159.604 1.865s-.252 1.412-.604 1.865c-.202.302-.504.504-.807.655.202 1.563.302 3.125.353 4.737.05.958.05 1.916.05 2.873 1.361-3.175 3.175-5.746 5.443-7.862.252-.252.555-.454.807-.706-2.217-1.764-3.981-3.679-5.342-5.796-1.462-2.268-2.47-4.788-2.923-7.459-.706-3.729-.806-7.61-.403-11.44a47.6 47.6 0 0 1 2.823-11.592l.403-.958.504.907c.806 1.512 1.814 3.125 2.974 4.838 1.31 1.915 2.721 3.78 4.132 5.595.101-1.815.504-3.579 1.16-5.292v-.05c-1.008-2.369-1.462-4.99-1.412-7.61-4.889-2.167-8.316-4.586-10.685-7.913-.302-.454-.555-.907-.856-1.361v-13.104c.907-.151 1.764-.303 2.57-.252-1.26-3.427-2.067-5.544-2.218-7.561a6 6 0 0 0-.353.857V156.29c5.141 6.451 9.525 12.953 10.281 17.589.504 3.427.555 5.897-.907 9.123a529 529 0 0 0-1.613 3.578 323 323 0 0 0-3.831 8.417c1.663.101 3.276.504 4.637 1.461 1.311.908 2.369 2.268 2.923 4.335a28.4 28.4 0 0 1 4.334-4.536 30 30 0 0 1 5.141-3.528c-.554 2.218-1.209 4.334-1.36 6.552-.151 1.814-.051 3.679.504 5.393.353 1.008.604 2.066.756 3.075.454-.454.857-.908 1.209-1.411.504-.706.907-1.412 1.26-2.167a2.33 2.33 0 0 1-.908-1.058c-.302-.655-.353-1.462-.151-2.269.202-.806.655-1.512 1.209-1.915q.983-.68 2.117-.454c.706.151 1.26.655 1.563 1.311s.403 1.461.202 2.268c-.202.806-.706 1.461-1.26 1.915-.554.403-1.159.605-1.814.554-.403.857-.857 1.613-1.411 2.369s-1.159 1.461-1.865 2.117c.05.403.05.756.05 1.159.05 1.26-.05 2.47-.303 3.729 2.671-2.772 5.695-4.939 8.972-6.955-.908 2.772-1.311 5.544-1.865 8.417-.504 2.722-1.26 5.444-2.369 8.064a35.5 35.5 0 0 1-2.318 4.839c1.512-1.311 2.974-2.621 4.738-3.629-.353 1.361-.655 2.722-.958 4.032-.756 3.074-1.563 6.401-1.059 9.173.353-.504.756-.907 1.26-1.311 1.26-.958 2.621-1.915 3.175-3.478.454-1.209.857-2.217 2.167-3.024.756-.503 1.512-.756 2.117-.705.756 0 1.311.453 1.411 1.209.05.454-.05 1.058-.403 1.764-.403.806-1.008 1.411-1.865 1.764-.756.353-1.713.504-2.974.504-.907 1.059-1.966 1.916-3.024 2.772-.554.403-.958.907-1.411 1.512-.101.101-.202.252-.303.353.051 1.21-.101 2.419-.403 3.679-.252 1.008-.554 2.016-1.008 3.024 3.68-2.419 7.913-3.528 12.146-4.385-1.26 2.823-2.066 5.746-3.528 8.467-2.167 4.083-4.334 6.956-6.854 9.526s-5.292 4.737-8.82 7.308c-.857.655-1.563 1.512-2.218 2.369 2.066-.907 4.032-1.512 6.199-1.663-.655.605-1.008 1.059-1.512 1.815-2.318 3.679-5.947 9.424-5.494 13.708.101.655.303 1.311.504 2.066.252.807.504 1.664.655 2.621a46 46 0 0 1 3.024-3.175c1.159-1.109 2.268-2.066 3.377-3.024-.303-.554-.353-1.209-.151-1.865.403-1.361 1.915-2.167 3.326-1.915s2.369 1.613 1.916 3.024c-.454 1.361-1.966 2.167-3.327 1.916a2.5 2.5 0 0 1-1.059-.403c-1.159.907-2.268 1.915-3.376 2.974a86 86 0 0 0-3.629 3.831c0 .604-.101 1.31-.252 2.016 4.234-1.814 8.266-2.47 12.852-2.217-.756.806-1.512 1.612-2.268 2.469-2.167 2.268-4.334 4.586-6.502 7.207-3.528 4.284-7.156 7.51-10.785 9.728-2.92 1.762-5.894 2.82-8.867 3.223M225.649 63.958c3.075.605 5.796 1.764 7.711 4.032.454.504 1.814 1.059 3.175 1.411.504-1.663.857-3.377.957-5.09.504-5.998-1.764-11.794-6.047-16.481a29 29 0 0 0-5.796-4.889v-9.324c.051.101.051.202.101.303.101-.101.202-.252.353-.353.857-.857 2.016-1.411 3.276-1.411 2.57 0 4.688 2.117 4.688 4.687v.303c.807-.655 1.814-1.008 2.923-1.008a4.84 4.84 0 0 1 4.838 4.839c0 1.058-.303 2.016-.907 2.822a4.87 4.87 0 0 1 2.52-.705c2.772 0 4.99 2.268 4.99 4.989a4.93 4.93 0 0 1-2.721 4.435 6 6 0 0 1 1.36-.151 4.84 4.84 0 0 1 4.839 4.838 4.87 4.87 0 0 1-4.032 4.789 4.37 4.37 0 0 1 3.276 4.233c0 2.268-1.764 4.183-3.981 4.385.806.706 1.361 1.814 1.361 2.974 0 2.218-1.814 3.982-3.982 3.982h-.101c.655.705 1.008 1.612 1.008 2.671a3.99 3.99 0 0 1-3.982 3.981c-.605 0-1.159-.151-1.713-.403a6.9 6.9 0 0 0-1.512 2.52c1.714 2.319 2.369 5.443 1.159 8.014-.806 1.764-2.873 2.318-4.435 1.209-1.311-.907-1.714-2.671-.958-4.082-.454-.857-1.059-1.361-1.664-1.613-.655-.202-1.411-.151-2.167.151-.807.303-1.563.857-2.318 1.512-.907.857-1.713 1.915-2.218 2.974V63.958zm38.154 92.333v48.182a116 116 0 0 0-2.521 7.409c.555-.05 1.109-.151 1.613-.252.303-.101.605-.151.908-.202v13.104c-1.613-2.772-2.621-6.098-3.226-10.231-.101.353-.252.756-.353 1.159-5.594-22.327-17.842-42.134-34.575-57.053v-11.441c.807.353 1.563.706 2.369.907 2.016.605 4.183.857 6.199.605 2.974-.403 5.695-2.066 6.753-4.939.403-1.008.554-2.067.454-3.327-1.361-.101-2.369-1.109-2.47-2.419-.151-1.764 1.109-3.276 2.822-3.579 1.764-.353 3.276.302 4.587 1.411 1.26 1.008 2.318 2.419 3.225 3.578 1.613 2.117 3.831 4.688 6.25 7.51 2.572 3.025 5.394 6.301 7.965 9.578m0 113.5v2.47a3.2 3.2 0 0 1-.252-1.209c-.001-.454.1-.908.252-1.261m0 3.78c-.202-.403-.403-.857-.655-1.26a34 34 0 0 0-2.52-3.68c-2.067 8.921-5.242 17.438-9.324 25.452.05 3.881.454 7.459 1.461 10.332 1.059 2.974 2.772 5.141 5.443 6.098-5.746 2.923-10.483 6.603-14.163 11.038-.151-1.108-.151-2.167-.101-3.226.05-1.36.252-2.722.504-4.032.655 0 1.311-.202 1.764-.655.403-.403.655-1.008.807-1.865 0-.302 0-.605-.05-.907-.05-.554-.302-1.008-.604-1.361-.353-.403-.807-.604-1.26-.706-.151 0-.302 0-.504.05-.605.051-1.109.403-1.512.908a3.6 3.6 0 0 0-.655 1.814c0 .655.151 1.361.504 1.865.151.202.353.403.604.555a31 31 0 0 0-.604 4.284c-.051 1.411 0 2.822.252 4.284-1.109 1.411-2.117 2.923-3.075 4.485q.303-4.158-.302-7.56c-.302-1.966-.857-3.73-1.613-5.292a107.5 107.5 0 0 1-10.03 10.836c.101 2.066.403 3.83.806 5.443l-2.369-3.981c-.302.303-.604.554-.958.857v31.802a125 125 0 0 0 6.804-9.324c6.451 1.613 12.398.051 17.589-3.023 5.393-3.175 10.08-8.014 13.76-12.5v-.807l-.252-.05a24.1 24.1 0 0 0-8.518-.05c-2.218.353-4.485 1.008-6.854 1.965 2.117-2.016 4.032-4.334 5.746-7.056 1.915-.454 3.831-.958 5.695-1.664 1.411-.503 2.822-1.058 4.184-1.713v-1.108a46 46 0 0 1-4.536 1.915 37.5 37.5 0 0 1-4.637 1.36c.655-1.058 1.26-2.217 1.864-3.427 1.411-2.873 2.722-5.896 4.032-8.87.454-1.058.907-2.117 1.361-3.125.655-.051 1.311-.101 1.916-.151zM213.755 56.549a27 27 0 0 1 5.292.655c1.26 2.319 1.512 4.284 1.612 6.2 1.714.101 3.427.252 4.99.554V94.5c-.252.655-.454 1.26-.454 1.814 0 .454-.101.857-.252 1.159-.302.857-1.008 1.461-1.814 1.865-.756.353-1.664.504-2.47.504h-.302c-.302.605-.806 1.311-1.563 2.117-.907.958-1.311 2.318-1.713 3.628.555.504.806 1.059.907 1.663.101.454.05.907-.101 1.311a2.8 2.8 0 0 1-.705 1.159c-.252.252-.555.454-.907.655 1.26.05 2.52.655 3.276 1.664.706.856.907 1.965.504 2.974-.605 1.512-1.966 1.562-3.427 1.612-1.209.051-2.52.151-3.175 1.209-1.411 2.269-2.066 4.536-2.217 6.804-.202 2.621.302 5.191 1.26 7.61 1.311 3.377 3.679 6.955 6.552 9.878 2.016 2.016 4.284 3.73 6.602 4.838v11.441a112.8 112.8 0 0 0-46.973-25.2V38.052c2.621-.251 5.544-.201 7.56.504 4.334 1.512 4.99 6.3 10.886 6.854.252.05.554.05.857.101a26.4 26.4 0 0 0-1.109-7.056c-.857-3.024-2.369-5.09-4.385-6.4-2.066-1.361-4.738-1.916-8.014-1.916a68 68 0 0 1-5.796-.252v-10.08c1.411.454 2.47 1.613 2.722 3.075.151-.403.403-.756.706-1.059.706-.655 1.663-1.109 2.722-1.109a3.883 3.883 0 0 1 3.881 3.881v.202c.151-.756.554-1.411 1.058-1.966a4 4 0 0 1 2.822-1.159c2.117 0 3.881 1.714 3.982 3.831a4.07 4.07 0 0 1 2.923-1.209 4.044 4.044 0 0 1 4.032 4.032c0 .151 0 .353-.05.504a4.06 4.06 0 0 1 3.679-2.369c2.268 0 4.083 1.814 4.083 4.032v.202c.05-.101.151-.202.252-.303a4.07 4.07 0 0 1 2.923-1.209 4.17 4.17 0 0 1 3.981 2.974c.101-.151.201-.252.302-.403a4.2 4.2 0 0 1 2.974-1.209 4.11 4.11 0 0 1 3.981 3.074v9.324c-3.276-2.167-7.157-3.78-11.44-4.737.202.807.252 1.613.302 2.419 0 .101 0 .202.05.403.303 4.385.403 8.014-.05 11.542a29 29 0 0 1-.756 3.979m11.894 270.799v31.802c-4.889 6.199-10.583 12.398-17.741 18.598-6.048 6.199-18.85 17.136-29.232 16.632v-41.832a112.8 112.8 0 0 0 46.973-25.2M178.677 19.807v10.08a65 65 0 0 1-3.276-.403c-2.772-.454-5.494-1.16-8.719-2.117a26.4 26.4 0 0 0-4.083-.958c-1.008-.151-2.066-.252-3.175-.353.051.101.151.252.202.353 1.411 2.52 2.47 5.494 3.226 8.719 2.016.504 3.931 1.109 5.796 1.713 2.822.958 4.889 2.066 7.862 1.512.706-.101 1.411-.202 2.167-.303v95.155a112.3 112.3 0 0 0-28.375-3.629c-9.626 0-19.051 1.21-28.022 3.528v-91.98c.958-.05 1.865-.05 2.772.101 2.016.252 3.78.907 5.191.504 3.528-1.008 5.746-4.133 9.072-5.746.101-.151.151-.353.252-.504.302-.756.605-2.217.958-3.83.353-1.916.806-3.981 1.411-5.695-1.36.151-2.671.252-3.931.454a26.4 26.4 0 0 0-4.083.958c-3.226.958-5.947 1.663-8.719 2.117-.958.151-1.916.251-2.923.353v-10.08c.252-.05.504-.101.756-.101 1.058 0 2.016.454 2.722 1.159.252.252.504.554.655.856.353-1.713 1.915-3.074 3.729-3.074 1.059 0 2.016.454 2.722 1.159.202.202.403.454.554.706.555-1.411 1.865-2.369 3.427-2.369 2.066 0 3.73 1.713 3.679 3.729a8.2 8.2 0 0 0 3.125-.605 7.6 7.6 0 0 1-.655-3.024c0-3.628 2.672-6.703 6.149-7.257v-3.78h-4.435V4.738h4.435V0h2.319v4.738h4.435v2.419h-4.435v3.78c3.478.554 6.149 3.629 6.149 7.257a7.6 7.6 0 0 1-.655 3.024 8.2 8.2 0 0 0 3.125.605c-.05-2.016 1.613-3.729 3.679-3.729 1.563 0 2.873.958 3.427 2.369.151-.252.353-.504.554-.706.706-.706 1.663-1.159 2.722-1.159 1.814 0 3.377 1.361 3.73 3.074.151-.302.403-.604.655-.856.705-.706 1.663-1.159 2.721-1.159.402-.001.755.05 1.108.15m0 332.741v41.832c-.856-.05-1.713-.151-2.52-.353-4.536-1.16-8.215-4.687-7.963-9.626-.958 2.621-2.52 4.99-4.435 6.905-3.478 3.427-8.266 5.544-13.457 5.544a19 19 0 0 1-13.457-5.544c-1.966-1.915-3.478-4.284-4.486-6.905.252 4.939-3.427 8.467-7.913 9.626a15 15 0 0 1-2.167.302v-41.681c8.971 2.318 18.396 3.528 28.022 3.528a112.2 112.2 0 0 0 28.376-3.628M122.279 19.757v10.08c-1.865.202-3.881.302-6.149.302-3.276 0-5.947.555-8.014 1.916-2.016 1.31-3.528 3.376-4.385 6.4-.856 2.823-1.159 5.645-1.058 8.367a28.3 28.3 0 0 0 1.058 6.451c2.47-.958 4.788-2.57 7.812-6.502 2.419-3.125 6.653-5.292 10.735-5.645v91.98c-17.892 4.586-34.07 13.407-47.427 25.401v-11.491c2.319-1.159 4.637-2.873 6.653-4.889 2.923-2.923 5.292-6.501 6.603-9.878.907-2.419 1.411-4.99 1.26-7.61-.151-2.268-.856-4.536-2.217-6.804-.706-1.058-1.966-1.159-3.175-1.209-1.461-.05-2.822-.101-3.478-1.612-.403-1.008-.151-2.117.504-2.974.807-1.008 2.066-1.613 3.327-1.664-.353-.202-.655-.403-.907-.655-.302-.353-.554-.706-.706-1.159a2.3 2.3 0 0 1-.101-1.311 2.76 2.76 0 0 1 .907-1.663c-.403-1.311-.756-2.671-1.713-3.628-.756-.807-1.26-1.512-1.563-2.117h-.353c-.807 0-1.714-.151-2.47-.504-.806-.403-1.512-1.008-1.865-1.865a3.7 3.7 0 0 1-.201-1.159c0-.555-.202-1.26-.504-1.915V58.464c3.579-2.57 7.308-3.981 11.743-2.822-.202-1.058-.403-2.066-.503-3.074-.454-3.528-.354-7.157-.051-11.542.051-.201.051-.302.051-.403.05-.807.101-1.613.302-2.419-4.334.958-8.215 2.621-11.542 4.788V33.92c.353-1.916 2.067-3.377 4.083-3.377 1.159 0 2.218.454 2.974 1.209.101.151.202.252.303.403a4.17 4.17 0 0 1 3.981-2.974c1.159 0 2.167.454 2.923 1.209.101.101.202.202.252.303v-.202c0-2.218 1.815-4.032 4.083-4.032 1.613 0 3.024.958 3.68 2.369-.051-.151-.051-.353-.051-.504a4.044 4.044 0 0 1 4.032-4.032c1.159 0 2.167.454 2.923 1.209.101-2.117 1.865-3.831 3.982-3.831 1.108 0 2.117.454 2.822 1.159.504.555.907 1.21 1.058 1.966v-.202a3.883 3.883 0 0 1 3.881-3.881c1.059 0 2.016.454 2.722 1.109.303.302.555.655.706 1.059.301-1.611 1.511-2.821 3.073-3.123m0 332.892v41.681c-10.433.856-23.486-10.281-29.635-16.582a132.4 132.4 0 0 1-17.792-18.699v-31.802c13.357 11.995 29.535 20.816 47.427 25.402M74.853 33.919v9.072c-2.167 1.411-4.082 3.024-5.695 4.838-3.628 3.982-5.846 8.82-6.098 13.86 5.494 1.412 7.51-.151 11.793-3.175v35.885c-.504-1.008-1.26-2.067-2.217-2.873h.05c-.756-.655-1.512-1.209-2.318-1.512-.756-.302-1.512-.353-2.167-.151-.605.252-1.21.756-1.664 1.613.756 1.411.353 3.175-.958 4.082-1.563 1.109-3.679.555-4.435-1.209-.605-1.311-.605-2.923-.454-4.335a8.1 8.1 0 0 1 1.613-3.83c-.353-1.008-.857-1.764-1.462-2.369a3.9 3.9 0 0 1-1.713.403c-2.217 0-3.981-1.814-3.981-3.981 0-1.059.353-1.966 1.008-2.671h-.101c-2.167 0-3.982-1.764-3.982-3.982 0-1.159.555-2.268 1.361-2.974-2.217-.202-3.981-2.117-3.981-4.385 0-2.016 1.411-3.729 3.276-4.233a4.87 4.87 0 0 1-4.032-4.789 4.84 4.84 0 0 1 4.839-4.838c.504 0 .907.05 1.36.151a4.93 4.93 0 0 1-2.721-4.435c0-2.722 2.218-4.989 4.99-4.989.907 0 1.764.251 2.52.705-.605-.806-.907-1.764-.907-2.822a4.84 4.84 0 0 1 4.838-4.839c1.109 0 2.117.353 2.974 1.008-.05-.101-.05-.202-.05-.303 0-2.57 2.117-4.687 4.688-4.687 1.26 0 2.419.554 3.276 1.411.098.102.249.203.35.354m0 113.098v11.491c-16.682 14.918-28.93 34.675-34.523 57.002-.605-2.268-1.26-4.536-2.017-6.703.051 1.159.051 2.268-.101 3.326-.252 2.269-.907 4.436-1.965 6.552-1.21 2.419-2.974 4.939-5.191 7.358l-1.714 1.714v-60.883c3.629-6.351 9.979-13.81 15.372-20.16 2.419-2.822 4.637-5.393 6.3-7.51.856-1.159 1.965-2.57 3.225-3.578 1.311-1.109 2.823-1.764 4.537-1.411 1.713.302 3.024 1.814 2.873 3.579-.151 1.31-1.109 2.318-2.52 2.419-.101 1.26.101 2.318.454 3.327 1.109 2.873 3.78 4.536 6.804 4.939 1.966.252 4.133 0 6.149-.605a14.4 14.4 0 0 0 2.317-.857m0 180.23v31.802c-3.931-4.939-7.308-9.878-10.433-14.817-3.981 2.318-7.812 2.772-11.29 2.117-5.494-1.059-10.08-4.939-12.953-8.316a34 34 0 0 0-3.074-3.326c-1.209-1.21-2.52-2.319-3.83-3.478 4.083-.756 8.114-1.26 12.247-.756a12.6 12.6 0 0 1-2.117-2.217 16 16 0 0 1-1.461-2.57c-3.528-.605-6.905-1.966-9.878-3.881a1.7 1.7 0 0 1-.756.353 2.7 2.7 0 0 1-1.966-.302v-3.377c.051 0 .151-.05.202-.05 1.059-.252 2.369.252 2.923 1.26.202.403.302.908.151 1.311 2.721 1.714 5.746 2.974 8.87 3.579-.202-.554-.353-1.109-.554-1.663-.655-2.419-1.663-4.838-2.923-7.157a35 35 0 0 0-4.435-6.25c-1.462-.907-2.873-1.915-4.234-2.923v-32.66c.655 1.059 1.21 2.167 1.764 3.377 0-.302.051-.605.101-1.008.05-.706.05-1.411.101-2.117 0-.756 0-1.512-.05-2.268a3.1 3.1 0 0 1-1.714-1.563c-.101-.353-.202-.706-.202-1.059v-33.163c.051-.101.051-.202.101-.302a239 239 0 0 0 2.722-7.812c2.117 1.915 3.629 3.981 4.687 6.653.151.302.252.655.353 1.008-.101 2.369-.201 4.788-.201 7.157 0 2.016.05 4.032.151 5.998-1.008 3.579-2.621 7.61-4.184 11.491-.907 2.318-1.814 4.536-2.52 6.603-.101.202-.151.403-.202.554.454-.353 1.109-.554 1.916-.554 1.26.05 2.016.756 2.318 1.613.252.655.202 1.411-.051 2.066-.353.806-1.108 1.461-2.167 1.461v2.117c0 .706-.05 1.411-.05 2.117.151.302.353.655.554 1.008.403.806.857 1.613 1.311 2.419.504-3.478 1.209-6.401 2.117-8.871.857-2.268 1.865-4.133 3.024-5.544a114.6 114.6 0 0 0 5.241 17.942c.454 3.729.655 7.56.504 11.592-.101 2.772-.403 5.191-.908 7.106-.554 1.915-1.31 3.377-2.369 4.234.353 1.31.454 2.621.353 3.931a32.5 32.5 0 0 1 4.687 1.966 29.7 29.7 0 0 1 5.645 3.931c.201-1.764.201-3.679-.101-5.443a2.12 2.12 0 0 1-1.26-.605c-.807-.806-.907-2.117-.252-3.074.705-.958 1.965-1.008 2.822-.202.807.806.907 2.167.252 3.075-.151.251-.353.403-.605.554.403 2.117.353 4.385 0 6.501 2.52 2.47 4.536 5.292 6.401 8.266a24 24 0 0 1 1.059 1.764c-.706-4.939-.958-10.281-.806-15.825a111.5 111.5 0 0 0 14.969 16.227M29.341 166.875v60.883c-2.066 2.016-4.586 4.284-6.753 5.746 1.461 3.981 2.419 8.82 2.974 14.364.403-1.563.806-3.074 1.26-4.586.807-2.419 1.663-4.788 2.52-7.157v33.163c-.302.151-.705.252-1.36.302 0 .706-.252 1.26-.605 1.664a21 21 0 0 1 1.965 2.671v32.66c-2.217-1.664-4.334-3.478-6.401-5.343-3.427-3.125-6.602-6.552-9.676-10.231-1.613-1.966-3.579-3.377-5.645-4.889-.756-.605-1.462-1.109-2.117-1.815 4.133-.503 11.189 1.412 14.969 2.722.202.05.353.101.554.151-.151-.856-.202-1.764-.302-2.671-1.159-.403-2.268-.958-3.376-1.613a36 36 0 0 1-3.075-2.066 4.97 4.97 0 0 1-3.226-.857c-.907-.655-1.563-1.664-1.663-2.823 0-.353 0-.655.101-.958.202-.504.555-1.008 1.008-1.31a2.84 2.84 0 0 1 1.562-.605c.353 0 .706.05 1.109.151.958.302 1.663 1.159 1.966 2.318.252.957.252 2.117-.151 3.376.958.706 1.916 1.361 2.873 1.916a20.5 20.5 0 0 0 2.772 1.411c-.201-2.016-.454-4.032-.907-5.795-.605-2.419-1.311-4.688-2.218-6.854-1.008-2.57-2.268-4.889-3.679-7.258.958.252 1.966.454 2.923.756-1.462-2.772-3.528-4.788-5.594-6.854-1.664-1.613-3.276-3.226-4.688-5.191-1.915-2.822-3.629-5.493-4.788-8.165-1.311-2.923-1.865-5.645-1.613-8.819 4.536 1.764 8.518 4.183 12.197 7.308a64 64 0 0 1 2.671 2.52 77 77 0 0 0-4.183-7.106c-1.512-2.268-3.175-4.385-4.939-6.148a2.9 2.9 0 0 1-.907.151c-.706 0-1.361-.252-1.814-.706s-.756-1.059-.756-1.714.252-1.26.706-1.713c.504-.454 1.109-.706 1.814-.706s1.31.252 1.764.706c.504.403.806 1.059.806 1.713s-.302 1.26-.756 1.714c1.764 1.814 3.377 3.881 4.889 6.149a71 71 0 0 1 2.066 3.276 49 49 0 0 1-1.26-5.896c-.554-4.284-.403-8.568.252-12.853-3.276-4.284-5.393-8.518-6.653-12.751-1.411-4.435-1.764-8.921-1.663-13.507 2.822 1.764 5.443 3.579 7.661 6.048 1.209 1.361 2.318 2.823 3.175 4.385a51 51 0 0 1-.151-3.881l-.05-.051c-.756-1.411-1.512-2.772-2.369-3.931a30 30 0 0 0-2.419-3.125c-.05.05-.101.101-.202.101a2.83 2.83 0 0 1-2.217-.151 3.38 3.38 0 0 1-1.512-1.713c-.303-.756-.252-1.562.05-2.268s.857-1.26 1.613-1.512a2.82 2.82 0 0 1 2.218.202c.655.303 1.26.908 1.512 1.664.302.807.251 1.613-.051 2.268-.101.353-.302.604-.554.857a56 56 0 0 1 2.419 3.125 53 53 0 0 1 1.563 2.47c.05-3.931.403-7.863.907-11.794 2.47 2.47 4.385 4.99 5.947 8.064-.504-3.024-.403-5.645.252-7.963.807-2.974 2.419-5.242 4.586-7.358-.706-2.369-.604-4.486-.151-7.258.3-2.021 1.309-4.44 2.82-7.01m0 151.603v3.377a2.2 2.2 0 0 1-.957-.958c-.554-1.008-.101-2.066.957-2.419" data-source="https://football-logos.cc"></path><path fill="#FFE100" d="M159.323 44.957c.202 3.125.252 6.35.101 9.223-.101 2.52-.353 4.788-.756 6.552-.202.706-.403 1.361-.655 1.916-.555 1.411-.907 2.419.655 3.981.101.101.252.202.353.302.353.252.706.403 1.109.403.353 0 .755-.202 1.159-.605.151-.101.252-.252.353-.403.706-.907 1.26-2.419 1.613-4.435.353-2.066.554-4.688.504-7.812 0-4.233-.201-9.223-.958-14.062s-1.966-9.525-4.032-13.104c-.454-.806-1.008-1.764-1.663-2.419-.604-.555-1.311-.857-2.066-.555-1.663.756-1.31 2.52.101 3.427 1.664 1.059 2.672 4.688 3.276 8.417.604 3.68.805 7.511.906 9.174m44.604 56.095c-17.589-4.838-35.633-7.308-53.625-7.308-15.473 0-30.996 1.814-46.268 5.393-1.411.353-.756-.101-1.562-.403-.454-.202-.907.151-2.117.202-1.563.101-1.26-.857-.555-1.663.604-.655 1.361-.857 1.311-1.209-1.059.302-1.512.353-1.865.302-.555-.151-.151-1.159-1.26-.907-.856.202-2.016.706-2.016.202-.05-.454.605-1.361 1.21-1.512a185 185 0 0 1 32.961-6.452c.706.353 2.167 1.462 2.268 1.865 0-.353 1.209-1.713 1.865-2.217 5.292-.454 10.685-.655 16.027-.655s10.685.202 16.077.655c.655.554 1.814 1.865 1.814 2.217.101-.353 1.563-1.512 2.218-1.865 13.91 1.462 27.569 4.385 40.521 8.871-2.671-.101-5.443-.958-8.064-1.663-.252.958 5.494 2.47 6.854 2.369.554-.05 2.873.303 4.688 1.411 1.461.907 2.369 2.016-.303 2.369-2.671.353-6.401-1.562-7.157-1.865-1.51-.556-4.433-.254-3.022 1.863M143.8 24.495c3.427-1.059 1.563 2.621.706 3.83-1.109 1.613-1.814 4.486-2.318 7.459-.604 3.679-.806 7.51-.907 9.173-.202 3.125-.252 6.35-.101 9.223.101 2.52.353 4.788.756 6.552.202.706.403 1.361.655 1.916.555 1.411.907 2.419-.655 3.981-.101.101-.252.202-.353.302-.353.252-.706.403-1.109.403-.353 0-.756-.202-1.159-.605-.101-.101-.252-.252-.353-.403-.706-.907-1.209-2.419-1.613-4.435-.353-2.066-.554-4.688-.504-7.812 0-4.032.101-6.854.604-9.475.555-2.671 1.462-5.191 3.024-8.719.353-.856.655-2.369 1.008-4.032.403-2.117.907-4.486 1.613-6.149.202-.454.454-.857.706-1.209"></path><path fill="#FFE100" d="M146.572 31.803a3.84 3.84 0 0 0 3.075 2.873c-1.865.353-3.276 1.965-3.276 3.881 0 2.066 1.613 3.729 3.629 3.931a4.185 4.185 0 0 0-3.88 4.183c0 2.217 1.764 4.083 3.981 4.183-2.117.101-3.831 1.915-3.831 4.083a4.05 4.05 0 0 0 3.326 3.981 3.62 3.62 0 0 0-2.822 3.528c0 .202 0 .403.05.605-.806.705-1.411 1.713-1.663 2.973a7 7 0 0 0-1.764.403c1.109-1.512.655-2.621.101-4.133-.202-.554-.454-1.109-.604-1.814-.403-1.663-.655-3.881-.756-6.35-.101-2.823-.05-5.998.101-9.123.101-1.512.302-4.788.755-8.064.353-2.116 1.461-4.284 3.578-5.14m10.685 34.675a5.4 5.4 0 0 0-1.814-.454c-.252-1.26-.857-2.268-1.663-2.973.05-.202.05-.403.05-.605a3.62 3.62 0 0 0-2.822-3.528 4.05 4.05 0 0 0 3.326-3.981c0-2.167-1.713-3.981-3.831-4.083 2.218-.101 3.981-1.966 3.981-4.183a4.185 4.185 0 0 0-3.88-4.183c2.016-.202 3.629-1.865 3.629-3.931 0-1.916-1.412-3.528-3.276-3.881a3.904 3.904 0 0 0 3.125-4.586c1.461.958 2.57 1.865 2.923 3.629.151.706.302 1.461.403 2.217.604 3.579.856 7.409.958 9.072.151 3.125.201 6.3.101 9.123-.101 2.469-.353 4.687-.756 6.35-.151.706-.403 1.26-.605 1.814-.605 1.511-1.008 2.671.151 4.183"></path><path fill="#FFE100" d="M149.747 76.356c-2.47 3.528-5.242 5.242-8.266 5.595-3.024.302-6.3-.807-9.778-2.873-.353-.202-.302-.756.101-.907 1.109-.302 1.814-1.109 2.117-2.016a2.9 2.9 0 0 0 .151-1.613 4 4 0 0 0-.605-1.512c-.554-.756-1.411-1.311-2.621-1.311-1.462 0-2.419.756-2.923 1.764a3.4 3.4 0 0 0-.302 1.411c-.05.504.05 1.008.202 1.461.403 1.008 1.31 1.865 2.772 1.966.353 0 .605.504.353.806-2.268 2.823-5.141 4.284-8.063 4.687-3.377.454-6.804-.454-9.627-2.268-.353-.252-.151-.958.353-.907 2.621.252 4.284-.857 5.09-2.419.454-.856.655-1.915.605-2.873-.101-1.008-.403-1.966-.907-2.722-.857-1.209-2.369-1.915-4.385-1.411-.202.05-.504-.101-.555-.302-.604-1.613-1.713-2.47-2.974-2.823a4.8 4.8 0 0 0-2.066 0 4.4 4.4 0 0 0-1.815.907c-.957.857-1.562 2.117-1.411 3.831 0 .202-.202.454-.403.504-2.016.403-3.024 1.764-3.276 3.276-.151.806-.05 1.714.252 2.57.302.807.806 1.613 1.461 2.218 1.311 1.159 3.326 1.613 5.746.454.403-.202.856.353.604.706-2.217 2.923-4.586 4.788-7.358 5.594-2.772.857-5.897.706-9.728-.454-.302-.05-.403-.454-.252-.706a3.24 3.24 0 0 0 .504-1.764c0-.555-.101-1.109-.403-1.613a2.85 2.85 0 0 0-1.108-1.21c-.454-.302-1.059-.504-1.764-.504-1.159 0-2.066.504-2.621 1.26a4 4 0 0 0-.605 1.512c-.05.555-.05 1.109.151 1.663a3.15 3.15 0 0 0 2.117 2.016c.252.051.403.454.252.706-.958 1.461-2.167 2.419-3.427 3.023-1.563.756-3.226 1.008-4.738.958-.403 0-.655-.454-.403-.756.807-1.008 1.26-2.268 1.26-3.477q0-.908-.302-1.664c-.252-.504-.555-.958-.958-1.31-.655-.454-1.461-.756-2.57-.756-.856-.05-1.512.151-2.117.504s-1.159.907-1.663 1.563c-.202.252-.655.202-.806-.101-.807-1.36-1.764-2.217-2.823-2.671s-2.167-.504-3.276-.202c-1.109.252-2.167.857-3.024 1.714-1.159 1.058-2.016 2.57-2.218 4.233-.05.454-.101.907-.101 1.462 0 .806.101 1.663.403 2.369.302.604.756 1.058 1.461 1.159.101 0 .252.05.353.05.454 0 .857-.151 1.21-.403a1.9 1.9 0 0 0 .655-.756c.151-.302.251-.655.251-1.008 0-.403-.101-.806-.353-1.159-.101-.101-.101-.403-.05-.504.604-1.311 1.411-2.066 2.369-2.369.857-.302 1.865-.252 2.823.151.755.252 1.512.756 2.167 1.311 1.109.907 1.714 2.47 3.175 1.109a3.64 3.64 0 0 0 1.008-1.461c.303-.655 1.209-.303.907.353-.252.706-.706 1.311-1.209 1.814-1.965 1.563-.403 1.563-.403 4.083 0 .302.05.554.151.807.605 1.562 3.175 2.117 4.637 1.512 21.47-8.619 45.31-12.953 69.149-12.953 23.789 0 47.628 4.334 69.098 12.953 1.412.605 4.032.05 4.637-1.512 1.814-3.73-6.149-3.226-8.82-5.041-1.26-.604-2.47-1.562-3.427-3.023-.151-.252-.051-.655.252-.706a3.15 3.15 0 0 0 2.117-2.016q.227-.83.151-1.663a3.4 3.4 0 0 0-.655-1.512c-.504-.756-1.411-1.26-2.57-1.26a3.5 3.5 0 0 0-1.814.504c-.454.303-.806.706-1.109 1.21a3.6 3.6 0 0 0-.403 1.613c0 .605.202 1.209.555 1.764.151.252 0 .655-.302.706-3.78 1.16-6.956 1.311-9.728.454-2.772-.806-5.141-2.671-7.358-5.645-.252-.353.202-.907.655-.706 2.369 1.209 4.385.756 5.695-.353a5.14 5.14 0 0 0 1.512-2.217c.353-.857.454-1.764.303-2.571-.202-1.512-1.26-2.873-3.276-3.326-.201-.05-.403-.302-.403-.504.151-1.714-.454-2.974-1.411-3.831a4.4 4.4 0 0 0-1.814-.907 4.8 4.8 0 0 0-2.066 0c-1.26.353-2.369 1.209-2.974 2.823-.051.201-.353.353-.555.302-2.066-.504-3.578.252-4.435 1.461-.504.756-.807 1.714-.857 2.671s.101 1.915.555 2.772c.756 1.563 2.419 2.721 5.09 2.52.454-.051.706.655.302.907-2.772 1.814-6.199 2.721-9.576 2.268-2.923-.403-5.795-1.864-8.064-4.687-.252-.302-.05-.806.353-.806 1.462-.101 2.369-.958 2.772-1.966.151-.454.202-.958.202-1.461s-.151-.958-.353-1.411c-.454-1.008-1.411-1.764-2.873-1.764-1.209 0-2.117.554-2.621 1.311a2.83 2.83 0 0 0-.604 1.512 3.5 3.5 0 0 0 .101 1.613 3.03 3.03 0 0 0 2.167 2.016c.403.151.454.706.101.907-3.528 2.117-6.804 3.175-9.828 2.822-3.024-.302-5.796-2.066-8.266-5.645-.303-.403.302-1.008.706-.706.605.555 1.562.807 2.621.807.806 0 1.663-.151 2.419-.504.756-.303 1.461-.756 1.965-1.412.605-.705.958-1.663.958-2.872a4.88 4.88 0 0 0-1.311-3.276c-.806-.806-1.865-1.311-3.125-1.26-.202 0-.454-.252-.454-.454-.151-1.058-.554-1.864-1.109-2.469-.605 1.109-1.714 1.865-3.074 1.915.958 3.931.907 3.629 5.09 4.586-1.966-.05-3.83.05-5.141 1.563-1.311-1.512-3.175-1.613-5.141-1.563 4.183-.958 4.133-.655 5.09-4.586-1.36-.05-2.469-.806-3.074-1.915-.555.605-.958 1.411-1.109 2.469 0 .202-.252.454-.454.454-1.159-.05-2.318.403-3.175 1.109-.756.655-1.209 1.563-1.159 2.571 0 .706.353 1.311.857 1.814.252.202.555.403.856.504q.454.227.908.151c.403 0 .857-.151 1.209-.554.302-.353.958 0 .807.454-.101.605-.05 1.159.151 1.613.151.403.454.756.756 1.008.353.202.706.353 1.109.353.353 0 .756-.101 1.109-.403.404-.305.958.3.706.703m.555-48.384c-1.563 0-2.873 1.311-2.873 2.873 0 1.613 1.31 2.923 2.873 2.923s2.873-1.311 2.873-2.923c-.001-1.562-1.311-2.873-2.873-2.873m-23.789 356.529c-1.008 2.066-2.47 3.024-4.838 2.772-2.57-.302-4.586-1.461-5.846-3.074a7.1 7.1 0 0 1-1.361-2.671 8.4 8.4 0 0 1-.251-2.974c.251-2.167 1.411-4.334 3.528-5.997 2.318-1.865 6.955-3.377 11.139-4.789 1.663-.554 3.276-1.058 4.586-1.562 1.966-.756 2.923-2.218 3.075-3.579.101-.907-.202-1.915-1.008-2.469-.705-.454-1.764-.454-3.125.353-2.923 1.713-5.645 2.772-8.467 3.83-1.461.605-3.024 1.16-4.586 1.865-3.579 1.613-6.552 4.233-8.417 7.308-2.268 3.73-3.175 8.316-1.361 12.348 1.008 2.218 2.722 4.233 5.393 5.847 2.822 1.764 6.25 2.117 9.223 1.36 2.419-.655 4.788-2.066 6.099-4.233 1.512-2.419 1.612-6.501-.454-8.668-1.612-1.663-4.586-1.563-5.544.706-.403.907-.202 1.915.454 2.621.501.503 1.156.755 1.761 1.006m35.179-25.099c1.512 1.664 2.47 3.478 4.184 5.09.705.706 1.36 1.26 2.016 1.764 1.159.806 2.47 1.159 3.78 1.613 4.233 1.361 8.921 2.873 11.188 4.688 2.117 1.663 3.276 3.83 3.528 5.997a7.87 7.87 0 0 1-1.612 5.645c-1.26 1.613-3.276 2.772-5.847 3.074-2.369.252-3.831-.706-4.838-2.772.604-.252 1.26-.504 1.764-1.008.655-.706.857-1.714.454-2.621-.958-2.269-3.932-2.369-5.544-.706-2.066 2.167-1.966 6.25-.454 8.668 1.311 2.167 3.679 3.578 6.098 4.233 2.974.756 6.401.403 9.223-1.36 2.671-1.613 4.385-3.629 5.393-5.847 1.814-4.032.907-8.618-1.361-12.348-1.865-3.074-4.838-5.695-8.417-7.308-1.563-.706-3.125-1.26-4.586-1.865-2.822-1.058-5.544-2.117-8.467-3.83-1.916-1.107-4.234-1.157-6.502-1.107"></path><path fill="#E2001A" d="M150.302 356.177c62.395 0 113.299-50.904 113.299-113.35 0-62.345-50.904-113.249-113.299-113.249S37.003 180.482 37.003 242.827c-.001 62.446 50.903 113.35 113.299 113.35"></path><path fill="#FFE100" d="M160.382 362.023a19.2 19.2 0 0 1 3.376 2.671c3.427 3.377 5.594 8.114 5.594 13.306 0 .907-.05 1.865-.202 2.772.252-.504.555-.958.907-1.311a4.8 4.8 0 0 1 2.167-1.26 5.16 5.16 0 0 1 2.318-.051c.655.202 1.26.555 1.764 1.008q.605.605.907 1.361c.251.555.353 1.209.251 1.865q-.15.983-.907 1.814c-.302.252-.655.554-1.109.806.302.454.706.756 1.109.958.655.353 1.411.403 2.217.353 2.318-.302 4.083-1.311 5.242-2.721.555-.706.958-1.462 1.159-2.318.252-.857.303-1.714.202-2.621-.202-1.915-1.209-3.831-3.125-5.342-2.117-1.714-6.754-3.175-10.887-4.536-.604-.202-1.159-.353-1.461-.454a10.2 10.2 0 0 1-2.57-1.26c-.706-.504-1.361-1.108-2.167-1.865a53 53 0 0 1-2.318-2.469l-.05-.051c-.554-.151-1.159-.302-1.714-.454-.25-.05-.452-.15-.703-.201M176.51 147.47c41.882 11.542 72.777 49.997 72.777 95.357 0 45.461-30.895 83.916-72.777 95.458v-10.887c36.036-11.239 62.294-44.906 62.294-84.571 0-33.163-18.446-62.093-45.562-77.263v27.166c14.112 12.096 23.134 30.089 23.134 50.098 0 27.115-16.43 50.45-39.866 60.682v-11.642c17.438-9.425 29.383-27.872 29.383-49.04 0-13.356-4.738-25.603-12.651-35.229v28.274h-10.685v-38.204a62 62 0 0 0-6.048-3.78v-11.642a68 68 0 0 1 6.048 3.024v-24.747a78 78 0 0 0-6.048-2.167V147.47zm-14.566-2.872a99 99 0 0 1 14.566 2.873v10.887a106 106 0 0 0-6.048-1.663v23.285a62 62 0 0 1 6.048 2.268v11.642c-1.966-1.058-3.982-1.966-6.048-2.822v82.202h-8.518zm14.566 193.687a99.4 99.4 0 0 1-14.566 2.873v-10.584a87 87 0 0 0 14.566-3.175zm0-34.776c-4.587 1.966-9.476 3.478-14.566 4.385v-10.685a56 56 0 0 0 14.566-5.342zm-16.733-159.163c.706.101 1.461.151 2.167.252v128.671h-2.167v-85.176c-3.074-.504-6.25-.807-9.475-.807-3.226 0-6.401.303-9.476.807v47.527h-10.685v-44.554a56.2 56.2 0 0 0-12.096 6.602v90.418c9.123 6.501 20.261 10.382 32.256 10.382 3.981 0 7.862-.454 11.642-1.26v10.685a63.7 63.7 0 0 1-11.642 1.059c-32.408 0-59.472-23.587-65.016-54.432l10.231-2.167c1.713 9.677 5.897 18.447 11.844 25.754v-70.509c-3.175 3.831-5.796 8.114-7.862 12.701l-9.375-4.687c7.661-16.834 22.226-29.887 40.018-35.633v-23.285c-39.06 9.223-68.342 44.352-68.342 86.133 0 46.973 36.893 85.579 83.21 88.351v10.534c-52.063-2.822-93.694-46.116-93.694-98.885 0-51.257 39.413-93.643 89.51-98.481v33.163a65 65 0 0 1 9.476-.706c3.226 0 6.401.252 9.475.706v-33.163zm2.167 196.812v-10.584a66 66 0 0 1-6.351.604v10.534c2.168-.151 4.234-.302 6.351-.554"></path><path fill="#FFE100" d="M150.402 367.769a167 167 0 0 1-3.226 5.443 113 113 0 0 1-2.873 4.536c-.302.504-.403.856.101 1.159.706.403 1.663.454 2.419.504 4.334.403 8.467 2.52 12.096 4.889 1.008.605 2.822 2.117 3.831 2.218.504.101.958-.151 1.562-.857h-.05c.555-.806 1.26-1.563 1.713-2.419 1.21-2.167-.503-3.931-2.318-4.939-4.133-2.319-8.568-4.083-13.104-5.343-.655-.201-.403-1.159.252-.958 4.082 1.159 8.064 2.671 11.793 4.586 2.167 1.109 3.528-1.159 3.931-2.923.554-2.621-.806-4.989-3.427-5.796-3.376-1.058-6.804-2.016-10.282-2.57-2.468-.453-1.258.454-2.418 2.47m12.651-2.419a18.18 18.18 0 0 0-11.793-5.191c-.05 0-.05 0-.05.05-.403.252-.454.958-.403 1.512.05.756.302 2.319 1.108 2.419 3.327.454 6.603 1.31 9.828 2.268.454.151.958.151 1.26-.303.1-.15.201-.604.05-.755m-13.86 30.441c.353.05.756.05 1.109.05h.403c.151-.755.202-1.512.252-2.268 0-.706.957-.655.957.05s-.05 1.462-.202 2.167c.655-.05 1.311-.151 1.966-.251.051-.857.051-1.714-.05-2.571a.507.507 0 0 1 1.008-.101c.05.807.05 1.613.05 2.419.555-.151 1.16-.302 1.714-.504 0-.907-.05-1.865-.252-2.772-.151-.655.857-.857.958-.151.202.807.252 1.663.303 2.52.554-.252 1.159-.504 1.663-.806.05-.857.151-1.613-.101-2.419-.151-.706.807-.958.958-.252.202.756.202 1.462.202 2.066.503-.353.907-1.008.806-1.613a6 6 0 0 1-.151-.504c-.302-.655.605-1.058.857-.403.05.05.05.05.05.101.202-.504.353-1.008.302-1.512-.05-1.714-2.016-3.125-3.478-3.729-4.233-1.814-6.048 1.512-9.324 2.923-2.722 1.159-5.897 1.864-8.82 1.764.403.907 1.058 1.714 1.865 2.419l.302-.403c.403-.605 1.209 0 .807.555l-.354.453c.252.202.454.353.706.504.202-.201.302-.504.353-.806.151-.655 1.109-.454.958.202a2.55 2.55 0 0 1-.454 1.159c.353.202.706.403 1.109.554.202-.403.353-.806.403-1.26.101-.706 1.109-.555.958.151-.05.555-.252 1.059-.454 1.512.555.252 1.109.454 1.613.605.202-.605.303-1.159.252-1.714-.051-.706.957-.756 1.008-.101 0 .656-.051 1.311-.252 1.966"></path><path fill="#FFE100" d="M140.474 388.987c1.311.05 2.621-.101 3.679-.302 2.469-.403 7.005-1.714 8.316-4.133.554-.957.151-2.57-.907-2.974-2.419-.957-5.695-1.612-8.367-1.31-.957.101-1.814.454-2.721.605zm0-9.122a3.73 3.73 0 0 0 2.318-1.613c1.26-1.865 2.419-3.729 3.528-5.544s2.217-3.629 3.275-5.443c1.059-1.915 1.21-4.637-.806-5.897-.101-.05-.151-.1-.252-.1-.706-.354-3.024-.354-2.621.957.251.907 1.31 1.412 1.512 2.47.101.655-.05 1.311-.504 2.369-1.209 2.621-2.671 5.141-4.233 7.56-.403.605-1.21.051-.807-.554 1.563-2.369 2.974-4.788 4.133-7.409.353-.856.504-1.36.403-1.764-.101-.605-.857-1.461-1.361-1.865-1.361-.958-3.075-.605-4.586.202v5.443c.353-.605.706-1.16 1.058-1.714.353-.604 1.21-.101.807.504l-1.361 2.268a6 6 0 0 0-.504.706v9.424zM137.55 365.4c-3.276 3.226-5.292 7.661-5.292 12.6 0 3.024.756 5.896 2.117 8.367 1.209 1.965 3.679 2.57 6.098 2.621v-8.114c-.302.05-.605.101-.907.101-1.613.101-3.276-.554-4.436-1.663-.503-.504.151-1.209.655-.706a5.25 5.25 0 0 0 3.73 1.412c.353 0 .655-.05.958-.151v-9.425l-1.059 1.512c-.454.605-1.26 0-.806-.555.504-.756 1.058-1.461 1.512-2.217.1-.151.252-.353.353-.504v-5.443c-1.159.603-2.217 1.459-2.923 2.165"></path><path fill="#FFE100" d="M131.452 380.772c-.151-.907-.202-1.865-.202-2.772 0-4.435 1.562-8.518 4.183-11.743a5.5 5.5 0 0 1-1.613.856 154 154 0 0 1-4.637 1.613c-4.083 1.36-8.669 2.873-10.836 4.586-1.916 1.512-2.923 3.427-3.125 5.342-.101.907-.05 1.764.202 2.621.202.856.605 1.612 1.159 2.318 1.764 2.217 5.645 3.326 7.056.1-.252-.403-.403-.856-.503-1.31-.101-.655 0-1.31.251-1.865q.303-.756.907-1.361a4.7 4.7 0 0 1 1.764-1.008 5.16 5.16 0 0 1 2.318.051 4.8 4.8 0 0 1 2.167 1.26c.354.354.657.808.909 1.312m18.85-21.622c3.981 0 8.064 1.311 11.894 2.369-1.26-1.965-5.443-5.494-7.913-5.393-1.311 0-2.671.05-3.981.05-1.209 0-2.47 0-3.68-.05-1.814-.05-3.226 2.217-1.411 3.729a18.8 18.8 0 0 1 5.091-.705m-42.488 19.959c.302-2.066 1.108-4.183 2.268-6.099 2.016-3.225 5.09-5.997 8.87-7.711 1.613-.706 3.175-1.26 4.687-1.865 2.772-1.059 5.444-2.117 8.316-3.78l.604-.302c.303-.655.353-1.26.151-1.865-1.058.05-1.915.151-2.621.252-1.663.201-2.318.151-2.47-1.663-.05-.403-.05-.908-.101-1.563-.706.302-1.361.554-1.865.807q-.983.529-1.664 1.058c-.101.101-.353.101-.504.05-1.512-.655-3.175-1.26-4.838-1.562-1.613-.353-3.276-.454-4.889-.252-.403.101-.706-.403-.454-.756q.53-.831 1.209-1.664c.151-.201.303-.403.504-.604-.302.05-.604.101-.907.202-.756.151-1.411.353-2.117.604-.403.101-.756-.353-.554-.705l1.058-1.915c-.907.05-1.814.201-2.671.403a17 17 0 0 0-3.376 1.008c-.353.151-.806-.302-.605-.655l1.26-2.923c-.051-.05-.101-.05-.101-.05a119 119 0 0 0-4.082.856c-.353.051-.655-.302-.555-.655l.604-1.965c-.151-.101-.302-.151-.453-.252-1.311.857-2.52 1.411-3.629 1.713-1.008.202-1.965.202-2.722-.151-.806-.353-1.411-1.058-1.764-2.117-.303-.907-.403-2.167-.252-3.78-.051 0-.101-.05-.151-.05l-1.512 1.26c-.302.252-.807 0-.807-.353l-.151-2.369c-.101-.101-.202-.151-.302-.201-.303.252-.655.554-1.008.856-.101.101-.202.151-.252.202-.252.252-.756.051-.806-.302a11 11 0 0 1 0-1.814c-.504.353-1.008.655-1.613.857-.303.101-.655-.101-.655-.403-.05-.756-.101-1.512-.05-2.218-.151-.151-.353-.252-.504-.353-.605.302-1.209.504-1.814.504-.706.05-1.411-.101-2.016-.454s-1.109-.807-1.462-1.461c-.454-.807-.705-1.764-.554-2.923a126 126 0 0 1-6.854-5.796 9.7 9.7 0 0 1-.454 1.613c-.706 2.318-1.714 4.233-3.024 6.25-1.108 1.613-2.016 3.175-2.722 4.989-.605 1.462-1.714 4.032-1.159 5.595.454 1.361 2.117 1.411 3.175.806.454-1.209.958-2.369 1.411-3.528.604-1.361 1.159-2.621 1.713-3.78.303-.655 1.16-.202.857.403a273 273 0 0 0-1.663 3.73c-.504 1.311-1.058 2.621-1.563 3.881-.252.705-.151 2.167.202 2.822.303.706.907 1.008 1.663.856.857-.202 1.563-.705 1.865-1.461.403-1.059.806-2.066 1.26-3.024a56 56 0 0 1 1.361-3.226c.252-.655 1.159-.252.907.403a100 100 0 0 0-1.361 3.175l-1.361 3.326c-.403.907-.554 2.066-.353 3.075.151.806.604 1.512 1.31 2.016.807.504 1.966-.454 2.218-1.159s.454-1.411.706-2.117l.504-1.512c.252-.655 1.21-.353.958.302l-.554 1.563a51 51 0 0 1-.706 2.066 7.1 7.1 0 0 0-.303 3.226c.202.958.605 1.916 1.311 2.671.504.605.958 1.159 1.714.807.504-.202.958-.655 1.109-1.109a157 157 0 0 0 1.764-5.141c.353-1.008.655-1.965.907-2.57.202-.655 1.159-.353.907.303l-.857 2.57c-.604 1.713-1.159 3.376-1.764 5.141-.403 1.109-.403 2.117-.151 2.772.302.756.907 1.109 1.663 1.059 1.008-.101 2.016-.907 2.117-1.915.101-.958.252-2.117.504-3.377.302-1.512.706-3.226 1.159-5.091.202-.655 1.16-.403.958.252a112 112 0 0 0-1.16 5.041c-.251 1.411-.453 2.671-.503 3.729q-.076 1.134.302 1.512c.252.353.655.403 1.058.252.807-.252 1.26-1.059 1.664-1.815.605-1.159 1.108-2.469 1.512-3.88a49 49 0 0 0 1.159-5.594c.101-.655 1.059-.504.958.151a49 49 0 0 1-1.159 5.695c-.454 1.512-.958 2.873-1.613 4.083-.756 1.462-.453 4.536 1.764 2.772 1.461-1.109 3.075-3.981 4.032-5.695.252-.504.504-.907.655-1.109.353-.605 1.21-.101.807.504-.151.252-.353.605-.605 1.109-.857 1.462-2.117 3.78-3.578 5.242-.907 1.008-2.318 2.722-2.016 4.133.151.706.706 1.108 1.411 1.108 1.311.051 2.268-1.209 2.923-2.217.907-1.512 1.915-2.873 2.923-4.233a155 155 0 0 1 3.327-4.234c.454-.504 1.209.101.756.655a63 63 0 0 0-3.276 4.183 42 42 0 0 0-2.873 4.083c-.604.907-1.612 1.713-1.915 2.722-.302.907-.252 1.613 0 2.117.202.454.655.706 1.16.655.856-.101 1.663-.907 2.117-1.563a99 99 0 0 1 4.435-5.846c1.512-1.865 3.175-3.679 4.838-5.443a.5.5 0 0 1 .706.706 81 81 0 0 0-4.788 5.393c-1.562 1.814-2.974 3.78-4.385 5.746a4.6 4.6 0 0 1-1.361 1.412c-.605 1.411-.403 3.024.202 4.032q.378.453.756.756c1.462.756 2.621-1.865 2.974-2.772a21.5 21.5 0 0 1 3.528-5.796c1.462-1.613 3.125-3.024 4.939-4.284.202-.151.403-.303.706.101.252.403.05.555-.151.706-1.713 1.209-3.377 2.57-4.737 4.133-1.361 1.613-2.52 3.377-3.327 5.494-.504 1.311-1.814 2.57-.454 3.881.252.252.605.453.958.554.353.151.756.151 1.159.101.808-.108 1.615-.713 2.118-2.023m64.966-17.388c1.412.655 2.823 1.159 4.234 1.714 1.512.605 3.024 1.159 4.637 1.865 3.78 1.714 6.854 4.486 8.871 7.711 1.26 2.067 2.066 4.334 2.369 6.552.202 1.764.05 3.528-.403 5.242.554.554 1.512.151 2.117-.252 1.159-.806 2.066-2.671 2.571-4.637.604-2.318.705-4.838.202-6.25-1.361-3.579-3.478-6.451-6.25-8.568-2.772-2.167-6.199-3.679-10.181-4.637-.706-.151-.454-1.109.202-.958 4.133.958 7.711 2.52 10.583 4.788 2.924 2.268 5.141 5.242 6.552 9.022.252.655.353 1.563.403 2.52 0 .555.302 1.059.857 1.361 1.008.655 1.562-.908 1.713-1.663.605-3.327-.353-6.452-2.117-9.022-2.268-3.427-5.998-5.998-9.425-7.157-.706-.202-.353-1.159.302-.907 3.629 1.209 7.51 3.931 9.979 7.51 1.965 2.974 3.024 6.552 2.066 10.382-.151.604-.202 1.008.151 1.612.151.354.504.655.908.555 1.814-.354 2.167-3.579 2.318-4.939q.303-2.117.303-4.385c-.05-1.916-.303-3.831-1.21-5.393-1.311-2.47-5.292-4.385-8.467-5.998-.958-.454-1.865-.907-2.621-1.361-.605-.302-.151-1.209.454-.857.756.454 1.663.857 2.621 1.361 3.276 1.613 7.409 3.68 8.92 6.401.958 1.714 1.26 3.78 1.311 5.847 0 1.512-.151 3.074-.353 4.536-.101 1.16.807 1.663 1.714.907 1.461-1.209 2.419-3.528 2.822-5.947.403-2.671.202-5.494-.706-7.107-1.059-1.965-2.57-3.578-4.435-4.939-1.865-1.31-4.083-2.419-6.501-3.377a.488.488 0 0 1 .353-.907c2.47.958 4.788 2.117 6.704 3.528 2.016 1.411 3.628 3.125 4.788 5.241.706 1.311 1.059 3.377.958 5.494 0 .554-.202.856.353 1.26.604.454 1.311.706 1.966.101.353-.353.655-.907.907-1.512.555-1.613.706-3.78.504-5.292-.504-4.183-4.384-7.358-8.92-9.677-4.234-2.117-8.82-3.427-12.298-4.334h-.05c.202.604.05 1.159.05 1.814-.05.302-.403.554-.706.403-.756-.353-1.361-.706-1.966-1.059.303.655.504 1.361.655 2.217.051.353-.252.655-.604.555-1.008-.202-2.016-.504-2.974-.807-.202-.05-.806-.454-1.008-.503.554.554 1.512 1.411 2.217 2.066.303.303-.101.958-.504.807-1.613-.554-2.822-1.209-4.233-1.966.554 1.059 1.36 2.218 2.117 3.175.252.403-.303 1.008-.706.706a51 51 0 0 1-4.234-3.125c-.201.05-.403.151-.604.201.302.807.655 1.613 1.008 2.369.202.454-.504.907-.806.554-.655-.806-1.311-1.613-1.865-2.469l-2.873.755a48 48 0 0 0 2.822 2.722c.554.454-.101 1.21-.655.756a32.4 32.4 0 0 1-3.226-3.226c-.756.202-1.512.353-2.217.504l2.671 2.923c.454.504-.252 1.159-.756.655l-3.074-3.327c-1.008.202-2.066.403-3.125.605.403.302.807.655 1.26.958a49 49 0 0 0 3.125 2.167c.605.353.051 1.209-.554.857a50 50 0 0 1-3.175-2.218c-.655-.504-1.31-1.008-1.915-1.562-.756.151-1.563.252-2.319.353.655 1.209 1.361 2.268 2.218 3.226 1.109 1.26 2.318 2.318 3.729 3.175q.224.154.451.305"></path><path fill="#FFE100" d="M201.609 348.163c1.915.706 3.881 1.512 5.746 2.47 4.788 2.419 8.87 5.846 9.475 10.433.05.655.101 1.411.05 2.217.756.604.958.857 1.814.05 1.159-1.159 2.167-3.175 1.814-4.889-.454-2.016-1.26-3.931-2.722-5.645-1.461-1.663-3.528-3.175-6.35-4.435-1.412-.655-2.823-1.562-4.184-2.47-.756-.504-1.512-.958-2.268-1.512s-1.26-.907-2.268-.907c-.504 0-.706.151-.605.655.151.504.605 1.109.857 1.613-.655 0-1.159-.05-1.814-.252-.807-.202-1.613-.454-1.764.05-.351.808 1.413 2.37 2.219 2.622m22.377-13.507c1.209.957 2.318 2.217 3.326 3.578 1.21 1.663 2.268 3.377 2.873 4.738q.226.453.454 1.059c1.108.302 1.008.101 1.008-.908 0-.151 0-.353.05-.554.05-1.26-.101-2.923-.454-4.536-.403-1.713-1.008-3.376-1.915-4.687-.857-1.209-2.017-2.016-3.478-2.117-.403 0-.806.05-1.26.151-.555.101-1.059.403-1.26.958-.301.705.102 1.865.656 2.318m-3.125 4.939c2.167 2.268 4.385 4.586 6.3 7.409.554.856 1.159 2.066 1.411 3.275.655.252 1.512.504 1.865-.302.151-.403.202-.958.202-1.563-.101-1.713-.807-3.83-1.361-4.989-.604-1.361-1.563-3.024-2.772-4.586-.907-1.311-2.016-2.52-3.125-3.377-.655-.554-1.462-.857-2.218-.806-.655.101-1.311.403-1.865 1.108-.303.353-.454.756-.403 1.159.051.959 1.362 2.067 1.966 2.672m-4.384 3.629c.857.807 1.714 1.613 2.621 2.369 1.562 1.361 2.923 2.822 3.981 4.586.554 1.008 1.008 2.066 1.311 3.276.101.504.202.958.958 1.059 1.563.101 2.47-1.714 2.419-3.074-.051-1.361-.756-2.873-1.462-3.881-1.865-2.772-4.032-5.04-6.148-7.258-.454-.504-.958-.958-1.16-1.209-.454-.504-1.159-.958-1.865-1.109-.504-.101-1.008-.051-1.461.353-.504.454-1.26.907-1.311 1.714-.202 1.612 1.008 2.166 2.117 3.174"></path><path fill="#FFE100" d="M211.84 347.458c2.974 1.311 5.141 2.923 6.703 4.737s2.47 3.881 2.923 6.048c.05.302.101.655.101.958h.403c.454 0 .807-.151 1.109-.353.303-.252.504-.605.655-1.109.05-.353.101-.706.101-1.159-.101-2.318-.705-4.284-1.613-5.897-.958-1.663-2.268-3.074-3.78-4.334-.907-.756-1.764-1.613-2.671-2.419-.857-.807-1.713-1.663-2.671-2.47-.756-.604-1.814-1.209-2.671-1.361-.353-.05-.907-.151-1.059.303-.151.554.202 1.512.303 2.117-.857-.202-2.923-1.412-2.621.403.353 2.267 2.923 3.679 4.788 4.536M40.833 213.595c-2.822-9.878-6.904-18.699-10.886-27.418-1.108-2.369-2.268-4.687-1.26-7.358.504-1.311 1.613-1.209 2.722-.806a85 85 0 0 1 4.485 7.661 83 83 0 0 1 3.982 8.87.488.488 0 0 0 .907-.353c-1.159-3.125-2.57-6.149-4.032-8.971a83 83 0 0 0-4.637-7.862c-.957-1.512-1.36-3.125-.856-4.889.252-.907.856-1.764 1.865-1.915.202.403.454.806.706 1.159 1.613 2.066 3.075 4.183 4.536 6.3 1.411 2.167 2.772 4.334 4.032 6.602.353.605 1.26.151.857-.504a90 90 0 0 0-4.083-6.653 145 145 0 0 0-4.536-6.351c-.604-.806-1.058-1.713-1.108-2.671-.101-1.966 2.167-4.637 3.679-2.52a256 256 0 0 1 5.544 8.165 241 241 0 0 1 5.746 9.274c.353.604 1.209.101.856-.504-1.915-3.175-3.83-6.3-5.796-9.273-1.915-2.974-3.83-5.846-5.796-8.568-.353-.504-.604-1.008-.555-1.714q0-.605.303-1.058c.605-.857 1.865-1.059 2.52-.252 2.117 2.52 3.931 5.04 5.695 7.56 1.815 2.621 3.528 5.342 5.343 8.114.353.605 1.209.051.806-.503-1.814-2.823-3.528-5.494-5.342-8.165a108 108 0 0 0-6.048-8.014c-.554-.706-.403-1.663-.101-2.369.151-.202.303-.403.403-.555.958-1.058 1.814-1.159 2.671-.151 3.326 3.427 7.056 7.358 10.534 13.104.353.605 1.209.101.807-.504-3.528-5.847-7.309-9.778-10.635-13.306-.706-.706-1.361-1.159-1.21-2.268.101-.807.504-1.461 1.059-1.966 1.109-.907 1.613-1.059 2.621 0 1.713 1.764 3.376 3.831 5.04 6.099 1.664 2.318 3.327 4.788 5.041 7.409.101.202.252.403.655.151s.302-.454.151-.706a134 134 0 0 0-5.04-7.409c-1.713-2.318-3.427-4.435-5.141-6.199-.857-.907-1.361-1.613-.655-2.822 1.311-2.066 2.419-.756 3.578.554 1.714 1.916 3.377 3.881 4.99 5.998a102 102 0 0 1 4.688 6.854c.151.202.251.403.705.151.403-.252.252-.454.151-.655-1.562-2.469-3.125-4.788-4.737-6.905a105 105 0 0 0-5.04-6.098c-.807-.907-1.21-1.563-1.26-2.117-.101-.454.151-.907.555-1.36.958-1.059 3.125-3.276 4.233-.807 1.059 2.318 2.571 4.133 4.334 5.494a16.4 16.4 0 0 0 6.603 3.024c5.645 1.21 11.39-1.209 15.876-4.435 4.586-3.326 9.122-8.014 11.945-13.356 2.369-4.637 3.629-10.03 2.318-15.17 8.518 3.528 16.431 5.292 24.041 5.493 5.695.152 12.348-.604 18.145-2.469 7.711-2.47 17.287-2.47 24.998 0 5.796 1.865 12.499 2.621 18.144 2.469 7.61-.202 15.523-1.965 24.041-5.493-1.31 5.141-.05 10.534 2.369 15.17 2.772 5.342 7.308 10.03 11.894 13.356 4.486 3.226 10.231 5.645 15.876 4.435a16.4 16.4 0 0 0 6.603-3.024c1.764-1.361 3.276-3.175 4.334-5.494 1.109-2.47 3.276-.252 4.233.807.403.453.655.907.555 1.36-.05.555-.454 1.21-1.26 2.117a105 105 0 0 0-5.04 6.098c-1.612 2.117-3.175 4.436-4.737 6.905-.101.202-.252.403.151.655.454.252.554.051.705-.151a102 102 0 0 1 4.688-6.854c1.613-2.117 3.276-4.083 4.99-5.998 1.159-1.31 2.268-2.621 3.578-.554.706 1.209.202 1.916-.655 2.822-1.713 1.764-3.427 3.881-5.141 6.199-1.663 2.269-3.326 4.788-5.04 7.409-.151.251-.252.453.151.706s.555.05.655-.151c1.714-2.621 3.377-5.09 5.041-7.409 1.663-2.268 3.326-4.334 5.04-6.099 1.008-1.059 1.512-.907 2.621 0 .554.504.958 1.159 1.059 1.966.151 1.109-.504 1.563-1.21 2.268-3.326 3.528-7.106 7.459-10.634 13.306-.403.604.454 1.109.806.504 3.478-5.746 7.208-9.677 10.534-13.104.857-1.008 1.714-.907 2.671.151.101.151.252.353.403.555.302.706.453 1.663-.101 2.369a108 108 0 0 0-6.048 8.014c-1.814 2.671-3.528 5.342-5.342 8.165-.403.554.453 1.108.806.503 1.814-2.772 3.528-5.493 5.343-8.114 1.764-2.52 3.578-5.04 5.695-7.56.655-.807 1.916-.605 2.52.252q.303.453.303 1.058c.05.706-.202 1.209-.555 1.714-1.966 2.722-3.881 5.594-5.796 8.568-1.965 2.974-3.881 6.099-5.796 9.273-.353.605.504 1.109.857.504 1.865-3.175 3.78-6.25 5.746-9.274a256 256 0 0 1 5.544-8.165c1.512-2.117 3.78.554 3.679 2.52-.05.958-.454 1.865-1.108 2.671a143 143 0 0 0-4.536 6.351c-1.411 2.167-2.822 4.385-4.083 6.653-.403.655.504 1.109.857.504 1.26-2.268 2.621-4.435 4.032-6.602 1.462-2.117 2.923-4.234 4.536-6.3.252-.353.504-.756.706-1.159 1.008.151 1.613 1.008 1.865 1.915.503 1.764.101 3.377-.857 4.889a83 83 0 0 0-4.637 7.862c-1.461 2.822-2.873 5.846-4.032 8.971a.488.488 0 0 0 .907.353c1.159-3.074 2.52-6.048 3.981-8.87a85 85 0 0 1 4.485-7.661c1.109-.403 2.218-.504 2.722.806 1.008 2.671-.151 4.989-1.26 7.358-3.981 8.719-8.064 17.54-10.886 27.418-12.953-48.283-57.204-84.017-109.469-84.017-52.271 0-96.522 35.734-109.475 84.017"></path><path fill="#FFE100" d="M239.963 137.693c.101 1.411 1.26 1.563 2.369 1.512.202 1.613.202 3.125-.403 4.637-1.209 3.276-4.234 5.191-7.61 5.595-2.117.302-4.435.05-6.552-.604-3.327-1.008-6.603-3.226-9.375-6.048-3.024-2.974-5.443-6.703-6.804-10.181-1.008-2.571-1.512-5.242-1.361-8.014.202-2.419.907-4.889 2.369-7.257.958-1.563 2.52-1.613 3.982-1.664 1.159-.05 2.217-.101 2.57-1.008.302-.705.101-1.461-.353-2.016-.604-.806-1.612-1.26-2.621-1.311-4.889-.151-8.618 4.234-9.929 8.518-1.563 4.99-.504 10.836 1.966 15.523 2.721 5.191 7.156 9.777 11.592 13.003 4.233 3.075 9.777 5.443 15.12 4.284 2.218-.504 4.385-1.411 6.199-2.822 1.664-1.311 3.075-2.974 4.032-5.141.756-1.612 1.058-3.679.756-5.443-.151-.756-.353-1.461-.756-2.016-.605-1.109-2.217-2.117-3.528-1.814-1.058.251-1.764 1.208-1.663 2.267m-34.07-19.656c.856-1.965 2.117-3.78 3.729-5.191-13.255 5.09-30.845 8.064-49.19 8.87 6.603 2.47 13.356 3.679 20.513 3.478 7.106-.202 14.616-1.815 22.579-5.04 1.008-.404 1.915-1.059 2.369-2.117M60.64 137.693c-.101 1.411-1.26 1.563-2.369 1.512-.202 1.613-.151 3.125.403 4.637 1.21 3.276 4.234 5.191 7.61 5.595 2.117.302 4.436.05 6.552-.604 3.326-1.008 6.602-3.226 9.375-6.048 3.024-2.974 5.493-6.703 6.804-10.181 1.008-2.571 1.512-5.242 1.361-8.014-.202-2.419-.907-4.889-2.369-7.257-.958-1.563-2.52-1.613-3.982-1.664-1.159-.05-2.217-.101-2.57-1.008-.302-.705-.101-1.461.353-2.016.604-.806 1.663-1.26 2.621-1.311 4.889-.151 8.619 4.234 9.929 8.518 1.613 4.99.504 10.836-1.965 15.523-2.722 5.191-7.157 9.777-11.592 13.003-4.233 3.075-9.777 5.443-15.12 4.284-2.218-.504-4.385-1.411-6.199-2.822-1.664-1.311-3.075-2.974-4.032-5.141-.756-1.612-1.058-3.679-.756-5.443.151-.756.353-1.461.756-2.016.605-1.109 2.218-2.117 3.528-1.814 1.057.251 1.763 1.208 1.662 2.267m66.881-13.608c-2.268 1.008-6.854 1.209-7.863 1.109-7.106-.202-14.616-1.815-22.579-5.04h-.05c-1.008-.403-1.865-1.109-2.318-2.117-.857-1.965-2.117-3.78-3.729-5.191 9.828 3.78 22.125 6.401 35.28 7.812 1.914.201 3.728 2.368 1.259 3.427"></path><path fill="#008146" d="M48.141 330.876c1.311.302 2.621.706 3.881 1.159 3.629 1.461 7.006 3.729 10.584 6.753a98 98 0 0 0-3.528-4.233c-2.016-2.318-4.184-4.586-6.25-6.804a9 9 0 0 1-.655-.756c-1.109-.201-2.117-.604-3.175-1.109-1.059-.554-2.117-1.209-3.226-1.965-.554-.403 0-1.209.554-.807 1.059.706 2.067 1.361 3.125 1.865.504.252 1.008.504 1.563.655-.454-.454-.807-.958-1.21-1.411-.907-1.209-1.713-2.318-2.469-3.478-.403-.554.403-1.109.806-.554.756 1.108 1.563 2.268 2.47 3.427a62 62 0 0 0 2.923 3.427c2.066 2.218 4.133 4.436 6.25 6.854 1.361 1.563 2.722 3.125 3.981 4.788-1.008-2.52-1.764-5.191-2.369-8.014-.555-1.613-1.461-3.326-2.57-5.04-3.377-5.342-6.956-9.727-12.55-12.65-3.175-1.713-6.854-2.822-11.189-3.276a36 36 0 0 1 3.78 5.595c1.31 2.369 2.369 4.889 3.074 7.358q.756 2.874 2.268 4.99a10.3 10.3 0 0 0 3.932 3.226M30.047 188.748c.201.504.454 1.008.706 1.512-.403 0-.807.051-1.26.252a6 6 0 0 0 .554-1.764m2.873 6.35c1.411 3.226 2.772 6.502 4.032 9.879-1.563 1.058-3.125 2.217-4.637 3.679v-3.276c.907-.403 1.412-.655 1.412-2.369 0-.554-.101-1.059-.353-1.311-.353.454-.655.857-1.059 1.21v-6.956c.202-.251.403-.553.605-.856m-.605 13.558a57 57 0 0 0-1.713 1.764c-1.26 1.462-2.52 3.125-3.579 5.141a41 41 0 0 1 1.714-5.998c.252-.705-.706-1.008-.958-.353-.605 1.764-1.159 3.528-1.563 5.393a46.4 46.4 0 0 0-1.109-8.719c.252-1.059.604-2.067 1.159-2.974a8.3 8.3 0 0 1 2.016-2.419c1.713-1.411 2.974-2.923 4.032-4.536v6.956c-.202.101-.403.252-.655.353-1.008.353-.705 1.613-.655 2.772.504-.302.958-.504 1.31-.655v3.275z"></path><path fill="#008146" d="M35.49 331.833A47 47 0 0 1 37.808 334a43 43 0 0 1 3.175 3.376c2.722 3.276 7.106 7.006 12.348 8.014 3.276.605 6.854.202 10.584-2.016-.101-.202-.252-.403-.353-.605-.05 0-.151-.05-.202-.05-2.52-1.16-4.788-2.167-7.106-2.218h-.151c-.504 0-1.059.05-1.563.151a44 44 0 0 1-2.772.453c-.806.051-1.512.051-2.117-.05-.252-.051-.504-.101-.403-.605.101-.454.353-.454.554-.403.555.101 1.16.101 1.916.05.655-.05 1.411-.151 2.268-.353-.555-.202-1.109-.403-1.664-.706a32 32 0 0 1-3.931-2.167c-.202-.151-.403-.302-.151-.706.302-.403.504-.252.706-.151 1.361.907 2.621 1.613 3.83 2.167 1.16.554 2.318.958 3.427 1.311 2.52.05 4.889 1.109 7.56 2.318.101.05.202.101.302.101l.252-.302c-4.435-4.032-8.367-6.955-12.701-8.619-5.138-2.064-10.682-2.064-16.126-1.157m-1.461-23.184c2.369.151 4.536.504 6.552 1.059-.856-1.411-2.016-2.772-3.427-4.083a34 34 0 0 0-3.427-2.974c-1.16-.202-2.269-.302-3.427-.151-.655.101-.807-.857-.101-.958s1.361-.151 1.915-.101a7 7 0 0 0-.756-.555c-.604-.453-1.209-.907-1.814-1.31-1.159-.252-2.369-.706-3.679-1.26a50 50 0 0 1-4.083-2.016c-.655-.303-.202-1.16.454-.857 1.461.756 2.772 1.461 4.032 1.966.353.202.756.353 1.109.454a6 6 0 0 1-.857-.706 112 112 0 0 1-4.687-3.881c-.555-.454.101-1.209.605-.755 1.612 1.36 3.125 2.62 4.687 3.88a109 109 0 0 0 4.788 3.679 49.4 49.4 0 0 1 5.947 4.788c1.311 1.26 2.419 2.57 3.276 3.831-.151-2.016-.806-4.032-2.016-6.048-1.764-3.024-4.334-5.594-7.006-7.862-3.629-3.125-7.61-5.292-11.945-6.854-3.78-1.36-7.812-2.167-11.995-2.671l.05.05c2.117 1.563 4.133 3.024 5.846 5.09 3.024 3.629 6.199 7.006 9.525 10.08a81 81 0 0 0 10.434 8.165m-4.234 10.736c-.554.151-.806.555-.554 1.059.353.605 1.209.907 1.814.756.555-.101.806-.554.555-1.059-.303-.605-1.16-.908-1.815-.756m21.773-11.895c-.353.504-.302 1.311.151 1.764.403.403 1.008.403 1.361-.051.806-1.158-.655-2.871-1.512-1.713m-29.484-19.907a38.5 38.5 0 0 1 6.4 3.326c.101-1.059.202-2.066.403-3.024.101-.655.303-.958.101-1.613-.554-1.663-1.159-3.175-1.865-4.637s-1.512-2.873-2.419-4.133c-.403-.554.353-1.109.807-.554a32 32 0 0 1 2.52 4.284c.605 1.209 1.108 2.47 1.613 3.831.958-2.722 1.865-4.586.504-7.51-1.31-2.873-3.125-5.594-5.494-7.762-2.419-2.167-5.342-3.78-8.77-4.737a53 53 0 0 1 2.57 5.393c.907 2.218 1.613 4.485 2.268 6.956.504 2.117.756 4.485.958 6.854.152 1.108.253 2.217.404 3.326m7.409 3.931a38 38 0 0 1 3.276 2.52c.655.554 1.26 1.108 1.865 1.663a11.5 11.5 0 0 0-.403-3.528c-.353-1.36-.907-2.671-1.663-3.981a.488.488 0 0 1 .857-.454c.756 1.361 1.411 2.722 1.764 4.184.403 1.461.504 2.974.353 4.687 1.26 1.26 2.369 2.52 3.276 3.831.151-2.57-.05-4.99-.504-7.409-.604-2.873-1.612-5.695-2.974-8.618-1.008-2.167-2.167-4.284-3.276-6.401-.151 2.117-.353 4.385-1.26 6.753-.403 1.059-.756 2.167-.958 3.327-.202 1.107-.353 2.216-.353 3.426"></path><path fill="#008146" d="M39.724 301.745c.655 1.059 1.26 2.218 1.663 3.427.756-.756 1.311-1.915 1.714-3.478.503-1.865.806-4.233.907-6.905.202-5.645-.302-10.886-1.209-16.128a107 107 0 0 1-3.276-12.096c-.907 1.26-1.664 2.772-2.369 4.637-1.008 2.671-1.764 6.048-2.269 10.029.454.907.908 1.814 1.361 2.772 1.311 2.873 2.318 5.594 2.923 8.366.101-1.512.202-3.074.303-4.536.151-2.722.252-5.342.302-7.913 0-.706 1.008-.706 1.008 0-.05 2.621-.151 5.292-.353 7.963-.101 2.419-.302 4.889-.504 7.308-.201 2.169.001 4.387-.201 6.554m-21.621-36.994c2.117.756 3.981 1.815 5.645 3.024-1.058-2.117-2.318-4.284-3.679-6.401-1.713-2.722-3.528-5.393-5.342-8.014 0 0 0-.05-.05-.05-1.159-.403-2.318-1.008-3.478-1.714-1.21-.756-2.419-1.713-3.629-2.772-.504-.454.101-1.209.655-.706 1.159.958 2.318 1.865 3.528 2.621.706.454 1.411.856 2.117 1.159-.403-.605-.806-1.26-1.26-1.865-.706-1.008-1.461-2.016-2.318-2.974-.454-.503.252-1.159.756-.655a42 42 0 0 1 2.369 3.024c2.57 3.528 5.141 7.711 7.51 11.44 1.764 2.823 3.377 5.645 4.688 8.468.403.353.755.756 1.108 1.159.605-.706.403-2.268-.504-4.687-1.563-4.284-4.032-8.618-6.25-12.6-1.965-3.478-4.889-6.905-8.366-9.878-3.226-2.772-6.905-5.091-10.584-6.653-.101 2.318.504 4.637 1.563 7.006 1.159 2.621 2.823 5.242 4.738 8.014 1.311 1.915 2.923 3.478 4.536 5.04 2.319 2.268 4.637 4.586 6.199 7.913-.003.051.048.051.048.101m14.061 3.175c-.907-.05-1.461.303-1.663.756-.605 1.159.554 2.369 1.713 2.369.655.05 1.109-.353 1.311-.857.202-.403.202-.907.05-1.31-.151-.504-.655-.958-1.411-.958M14.07 279.871c.303-1.109.353-2.117.151-2.873-.201-.857-.705-1.412-1.36-1.613-.202-.101-.454-.101-.706-.101-.403.05-.756.151-1.059.403-.302.202-.554.504-.655.807-.05.201-.05.353-.05.554.05.856.555 1.613 1.26 2.117a3.8 3.8 0 0 0 2.419.706m6.754-27.115c.958 1.714 1.865 3.327 2.621 4.788a79.6 79.6 0 0 0-2.621-11.29c-1.411-4.486-3.226-8.87-5.594-13.154-.353-.605.555-1.109.857-.504a71.4 71.4 0 0 1 5.695 13.356 97 97 0 0 1 2.621 11.34c.05-1.915.252-3.729.504-5.494v-.252c-.504-7.56-1.663-13.91-3.679-18.85-1.562-3.981-3.981-7.812-7.661-10.181-.605 4.082-.756 8.114-.202 12.146.504 3.78 1.563 7.509 3.226 11.239 1.159 2.572 2.872 4.386 4.233 6.856m6.703 13.911c.353-3.125.806-6.25 1.311-9.273a171 171 0 0 1 2.117-10.634 23 23 0 0 1-.303-2.672q0-1.36.151-2.873a.507.507 0 0 1 1.008.101 13 13 0 0 0-.152 2.772c0 .454.051.908.101 1.361.252-.252.504-.605.706-.958.353-.604.655-1.31.907-2.167.101-.202.151-.454.655-.302.454.151.403.403.302.604a9.3 9.3 0 0 1-1.008 2.369 7.5 7.5 0 0 1-1.361 1.663c-.806 3.578-1.563 7.257-2.167 10.886-.604 3.579-1.058 7.207-1.411 10.987.856-.151.856-1.209 1.108-1.916.756-2.117 1.664-4.384 2.57-6.652 2.067-5.191 4.234-10.634 4.939-14.768v-2.369c0-1.209 0-2.419.05-3.629a17.5 17.5 0 0 0-1.109-4.183 15.3 15.3 0 0 0-3.326-5.242 186 186 0 0 1-2.218 6.351c-.907 2.52-1.814 5.04-2.621 7.459a52.2 52.2 0 0 0-2.419 16.279c.054 2.421 1.515 4.537 2.17 6.806m-9.475-41.429c-1.108-3.226-2.268-6.452-3.729-9.526-1.814-3.931-3.981-7.61-6.804-10.735-.151-.202-.353-.403.05-.706.353-.353.504-.151.655.051 2.923 3.226 5.141 6.955 7.005 10.987.807 1.714 1.512 3.427 2.218 5.242a74.4 74.4 0 0 1-2.066-11.542c-.958-2.469-2.369-4.637-4.133-6.603-1.714-1.865-3.729-3.528-5.947-4.939-.05 3.78.403 7.61 1.613 11.491 1.109 3.628 2.873 7.257 5.443 10.937 1.613 2.319 3.83 3.125 5.695 5.343m3.679 6.048c.202.403.353.856.504 1.26.756-.504 1.108-2.167 1.613-4.687.151-.706.302-1.512.454-2.369 1.461-6.502 1.209-13.658-.303-20.11-1.31-5.645-3.729-10.886-7.358-14.817-.706 5.544-.958 11.34-.353 17.64.655 7.106 2.369 14.212 4.788 20.966.303-2.117.454-4.284.555-6.451.101-2.873 0-5.847-.202-8.82-.202-2.621-1.663-5.695-2.974-8.518-.504-.958-.958-1.966-1.361-2.873-.101-.252-.201-.454.252-.655.453-.202.554.05.655.252.353.907.857 1.865 1.311 2.873a88 88 0 0 1 1.461 3.175c-.101-.907-.202-1.764-.302-2.671a161 161 0 0 0-1.209-6.451c-.05-.252-.151-.504.353-.605.504-.05.554.151.605.403.454 2.217.907 4.385 1.209 6.501.252 1.865.454 3.679.605 5.494.101 1.059.302 2.016.353 3.024.202 2.974.303 5.998.202 8.921a53 53 0 0 1-.858 8.518m-16.884-3.125c-.403 0-.807.151-1.109.403-.252.252-.403.604-.403 1.008s.151.756.454 1.008c.252.252.655.403 1.109.403s.806-.151 1.109-.403c.252-.252.454-.605.454-1.008s-.202-.756-.454-1.008a1.8 1.8 0 0 0-1.16-.403m19.051-26.763c.353-.756.604-1.613.857-2.419.706-2.268 1.965-3.276 3.931-4.788.202-.151.403-.353.555-.454.554-.403 1.159.353.605.756a3.7 3.7 0 0 1-.555.454c-1.814 1.411-3.024 2.318-3.579 4.284-.201.655-.403 1.361-.655 1.915q-.303.907-.756 1.512c.101.403.252.856.353 1.31a9 9 0 0 1 .756-1.563c.554-1.008 1.31-1.865 2.268-2.671 1.966-1.563 3.276-3.427 4.486-5.292-.252-.958-.403-2.47-1.159-3.075-.252-.252-.756-.151-1.311.101-1.058.453-2.167 1.361-2.57 1.764-1.361 1.412-2.369 2.671-3.024 3.831-1.16 1.916-.806 2.471-.202 4.335m2.218 18.447c-.151 1.966-.403 3.981-.856 5.897.202-.151.403-.403.655-.605.655-.756 1.361-1.613 1.664-2.217 1.108-1.764 2.016-3.024 3.074-4.536 0-.051.101-.202.655-.958.403-.555 1.209 0 .806.605-.101.101-.252.353-.655.907-1.058 1.512-1.965 2.772-3.023 4.536-.353.604-1.109 1.563-1.814 2.318-.908.958-1.563.958-1.814 2.268-.252 1.159-.454 2.167-.655 3.024a52 52 0 0 0 6.199-5.695c2.167-2.369 3.88-4.788 4.989-7.106 1.008-2.016 1.664-4.133 1.916-6.25.252-1.915.151-3.83-.302-5.847-1.916 1.311-3.831 2.873-5.595 4.889-1.965 2.218-3.78 4.99-5.191 8.669-.002 0-.053.05-.053.101M8.224 190.563c-.504.151-.857.504-1.059.958s-.202 1.008 0 1.512c.151.555.555.958 1.008 1.16a1.87 1.87 0 0 0 1.461.151 1.9 1.9 0 0 0 1.059-1.008q.302-.681 0-1.512a2.3 2.3 0 0 0-1.008-1.16c-.453-.203-1.008-.303-1.461-.101m15.473 5.241a28 28 0 0 1 2.722-3.276c1.512-1.512 2.974-2.419 2.621-5.09-.201-1.26-.756-3.226-2.117-5.191-1.663 1.764-3.175 4.083-3.881 6.501-.554 2.016-.706 4.334-.303 6.955.202-1.713.504-3.427.958-5.09a32.3 32.3 0 0 1 2.369-6.501c.302-.655 1.209-.202.907.403a33 33 0 0 0-2.318 6.351c-.404 1.612-.757 3.275-.958 4.938m43.545 141.221c.252-1.915.353-3.982.202-6.149a42.7 42.7 0 0 0-2.671-12.852.504.504 0 0 1 .302-.655 102 102 0 0 1-4.183-5.09c-.101 5.393.151 10.534.907 15.271.706 4.335 1.865 8.619 3.679 12.6.907-1.21 1.109-1.764 1.764-3.125m-1.26-18.648c1.411 4.032 2.268 8.366 2.47 12.499.05 1.361.05 2.671 0 3.982.605-.958.806-1.815.958-2.974.353-2.167.403-5.242.252-8.971 0-.202.05-.353.151-.403a148 148 0 0 1-3.831-4.133m4.687 4.99c.151 3.376.051 6.199-.202 8.316a26 26 0 0 0 1.814-4.184c.202-.655.353-1.36.555-2.117-.755-.655-1.461-1.36-2.167-2.015m209.161-65.369q.075 2.117-.302 4.234c1.562-1.663 3.175-3.276 4.788-4.889.101-.806.202-1.563.403-2.318.202-.806.454-1.663.807-2.47.252-.756 1.159-.353.907.303-.302.857-.554 1.613-.756 2.419-.05.302-.151.655-.201.957 2.217-2.117 4.536-4.183 6.854-6.25.554-.453 1.159.302.655.756-2.369 2.066-4.687 4.133-6.955 6.3.252 0 .504 0 .756.05.605 0 1.26.05 1.865.101.706.05.605 1.058-.101.958a20 20 0 0 0-1.814-.101h-1.713c-2.016 1.965-3.982 3.981-5.897 6.148-.605 2.217-1.613 4.435-2.923 6.501.403-.252.807-.454 1.21-.706.957-1.411 2.016-2.873 3.427-3.931 3.477-2.621 6.249-4.738 8.668-7.258 2.469-2.469 4.586-5.292 6.703-9.273 1.109-2.067 1.664-4.839 2.873-6.603-3.881.857-6.804 1.713-9.879 3.679-3.83 2.47-7.005 6.653-9.122 10.735-.153.305-.253.355-.253.658m7.106-10.988c.655-1.512 1.26-2.974 1.613-4.385.302-1.411.504-3.024.202-4.435-.555-3.075.302-6.552 1.058-9.727a23 23 0 0 0 .353-1.563c-3.78 3.074-7.106 6.25-9.525 9.576-2.621 3.628-4.184 7.509-4.032 11.642 1.26 1.966 2.167 3.982 2.671 6.099.05-1.563.05-3.075.151-4.436.151-2.016.403-3.83.807-5.393.504-1.613 1.108-2.873 1.814-3.881s1.563-1.764 2.419-2.369c.605-.403 1.159.403.605.806-.857.555-1.563 1.26-2.218 2.167s-1.209 2.066-1.663 3.528c-.101.353-.151.706-.252 1.109q.604-.68 1.209-1.21a21 21 0 0 1 2.671-2.016c.554-.353 1.109.454.504.857-.857.554-1.713 1.159-2.52 1.865-.756.756-1.512 1.512-2.167 2.369-.101.706-.152 1.462-.202 2.268a78 78 0 0 0-.151 5.04c2.067-3.526 4.284-6.046 6.653-7.911m-20.009 37.699c-.051 0-.051.05-.051.05.353 6.351-1.411 12.449-3.326 18.195 1.714-2.873 3.377-6.048 4.939-9.324l.302-.605h-.05a16 16 0 0 0 .151-2.167 26 26 0 0 0-.252-2.066c-.151-.655.807-.857.958-.202s.202 1.361.252 2.066a260 260 0 0 0 4.133-9.929.488.488 0 0 1 .907.353 232 232 0 0 1-4.133 9.979c.151-.101.252-.252.403-.353a35 35 0 0 1 2.419-1.663c.604-.302 1.008.554.504.857-.807.454-1.563 1.008-2.318 1.563-1.008.806-1.865 1.461-2.369 2.57a89 89 0 0 1-3.175 6.199 42.4 42.4 0 0 1 6.653-5.645 46 46 0 0 1 5.292-2.974c.907-2.57.302-4.536-.202-6.199-.252-.806-.454-1.512-.554-2.268-.504-4.587 3.175-10.433 5.594-14.263-3.226.907-6.451 2.469-8.971 4.586-3.477 2.925-5.745 6.957-7.106 11.24m22.227-85.276c-.403-.101-.857 0-1.26.303-.403.302-.706.756-.857 1.36-.151.555-.101 1.16.101 1.613.201.403.554.705.958.806s.857-.05 1.209-.302c.454-.353.756-.807.907-1.411.151-.605.101-1.16-.101-1.563-.201-.403-.504-.705-.957-.806m-18.901 1.864c.555.857 1.008 1.815 1.412 2.823.252.604.454 1.26.655 1.915.604-1.461 1.36-2.822 2.217-4.133-.403-2.318-1.411-3.729-2.722-4.637-1.209-.857-2.722-1.209-4.233-1.311-1.764 3.226-2.52 5.141-2.47 7.106.05 2.066.907 4.233 2.369 8.115v.101c1.109.151 2.167.706 3.276 1.713.051-1.26.252-2.57.555-3.831a9.6 9.6 0 0 1 .454-1.612 42 42 0 0 0-1.008-3.024c-.403-1.008-.806-1.915-1.31-2.721-.404-.604.453-1.108.805-.504m2.017 8.115c-1.159 4.637-.604 9.677 2.268 14.465.604.958 1.26 1.915 2.016 2.822.101-.303.202-.604.302-.857-1.008-4.233-1.209-7.862-.706-12.096a53 53 0 0 1 .857-4.637 37 37 0 0 1-.857-2.117 12 12 0 0 1-.403-2.419c-.05-.706.958-.706 1.008 0 0 .706.151 1.461.353 2.117.101.302.202.655.353.958.554-1.965 1.31-3.931 2.217-5.897.303-.604 1.209-.202.907.454-.856 1.764-1.512 3.528-2.066 5.343.05-.101.151-.202.252-.303.454-.454.907-.907 1.21-1.411.403-.604 1.209-.05.857.554a13 13 0 0 1-1.361 1.563c-.454.454-.958.857-1.461 1.26-.403 1.563-.706 3.125-.857 4.687a45 45 0 0 0-.252 2.571l.806-.807c.454-.555.908-1.058 1.109-1.411.353-.655 1.21-.202.908.454-.303.454-.756 1.008-1.311 1.613s-1.159 1.26-1.512 1.865c0 2.016.252 4.032.605 6.048 1.613-3.427 3.528-6.351 5.695-8.82.504-1.764.756-3.478.706-5.191a18.8 18.8 0 0 0-.907-5.241c-.605-1.865-.756-3.831-.555-5.796.101-1.411.403-2.923.756-4.385-1.008.706-2.016 1.411-2.923 2.218-3.781 3.173-6.855 7.507-8.014 12.396"></path><path fill="#008146" d="M263.5 218.333a9.7 9.7 0 0 0 2.419.756 102 102 0 0 1-2.873-4.133c-.403-.605.403-1.159.806-.554l2.722 3.931c-.051-.454-.152-.957-.202-1.411-.152-.958-.353-1.865-.555-2.823-.151-.706.806-.907.958-.252.202.958.403 1.966.554 2.923.202 1.059.353 2.167.454 3.276.655.907 1.361 1.865 2.016 2.772.403.504.756 1.059 1.159 1.563 0-.202.051-.403.051-.555.05-.655.05-1.31.05-1.915 0-.706 1.008-.706 1.008 0 0 .655 0 1.311-.05 1.966a18 18 0 0 1-.202 1.613c1.26 1.613 2.52 3.175 3.831 4.737.151-.806.302-1.613.554-2.419h-.05c-.907-1.109-1.764-2.268-2.419-3.427-1.965-3.276-2.923-6.653-3.024-9.979-2.419-2.823-4.687-2.369-7.61-1.815-.554.101-1.109.202-1.713.303.655 5.292 1.915 9.273 4.133 12.398 2.167 3.125 5.342 5.443 9.878 7.459 0-.403.051-.807.051-1.209a138 138 0 0 1-4.233-5.242h-1.512c-.504 0-1.008-.05-1.563-.151-.706-.101-.554-1.059.101-.958.504.051 1.008.101 1.512.101.252.05.454.05.706.05-.504-.655-.958-1.311-1.411-1.916-.806-1.108-1.613-2.167-2.369-3.275-1.26-.101-2.47-.353-3.579-.907-.657-.302-.203-1.209.402-.907m14.817 6.552a21.8 21.8 0 0 0-1.965 8.215c-.101 2.419.202 4.838.958 7.056a25 25 0 0 1 2.016-3.478l-.05-.05c-.202-1.159-.353-2.066-.051-3.226.907-3.629 2.218-6.955 3.831-10.181.756-1.411 1.512-2.873 2.369-4.234.101-.655.202-1.159.252-1.663.101-.504.101-.958.151-1.563 0-.705.958-.655.958.051 0 .302 0 .655-.05.958.554-.907 1.159-1.814 1.713-2.671.151-.202.252-.403.655-.151.454.252.302.454.151.706-1.865 2.873-3.729 5.947-5.292 9.021-.252.454-.454.907-.655 1.361l.05-.05c.555-.403 1.159-.807 1.764-1.109s1.059.554.454.907c-.605.252-1.109.604-1.663 1.008a18 18 0 0 0-1.512 1.361c-.05 0-.05.05-.05.05a39 39 0 0 0-2.167 6.451c-.202.655-.202 1.26-.101 1.915 1.26-1.663 2.722-3.275 4.334-4.889 0 0 .05-.05.05-.101a39.6 39.6 0 0 0 3.931-7.51 38.4 38.4 0 0 0 2.369-7.913c.353-1.966.604-3.981 1.109-5.998-2.571 1.714-4.939 3.629-7.107 5.998-2.621 2.824-4.839 6.201-6.452 9.729m18.497 5.947c-1.008.655-1.311 1.512-1.713 2.57 0 .05-.051.101-.051.151.907 0 1.613-.151 2.167-.403.604-.252 1.058-.706 1.36-1.26.202-.454.706-1.563-.151-1.613-.402 0-.956.202-1.612.555m-22.075 16.38c-1.512-1.915-2.872-3.729-4.082-5.494a55 55 0 0 1-2.47-3.981c-1.209 3.276-2.066 6.804-2.419 10.332-.403 3.729-.302 7.509.353 11.189.503 2.52 1.411 4.889 2.822 7.106a21.2 21.2 0 0 0 4.536 5.04c-.302-4.082-.958-8.114-1.865-12.096-.756-.454-1.411-.958-2.117-1.563a18 18 0 0 1-2.066-2.268c-.454-.555.353-1.159.756-.604.655.806 1.311 1.512 2.016 2.117.353.353.706.605 1.059.907a113 113 0 0 0-2.419-8.013c-.202-.655.706-.958.958-.303.857 2.521 1.664 5.091 2.319 7.661a15.6 15.6 0 0 0 .403-2.621c0-.706 1.008-.655.958.05-.05 1.461-.403 2.923-.958 4.334a80 80 0 0 1 1.916 12.5c5.441-7.409 6.146-16.884.3-24.293m-1.31 48.183c-5.342 3.628-9.778 8.518-11.844 13.558 2.772-1.21 5.393-2.47 7.963-4.184.151-.706.353-1.411.655-2.066.302-.706.706-1.412 1.159-2.066.151-.202.303-.403.706-.101.403.252.252.454.101.655a8 8 0 0 0-1.058 1.915 2.2 2.2 0 0 0-.302.807c3.276-2.369 6.25-5.04 9.122-7.863.504-.454 1.209.202.706.706-2.974 2.923-5.947 5.544-8.921 7.711-2.722 1.965-5.645 3.729-8.82 5.04-.151.403-.353.756-.504 1.159 3.276-.202 6.552-1.26 9.777-3.226 3.579-2.117 7.107-5.292 10.534-9.475 2.369-2.823 4.889-5.494 7.358-8.165-5.796-.05-11.794 2.368-16.632 5.595m13.305-15.423c-.303.857.302 1.613 1.159 1.764s1.915-.353 2.218-1.26c.252-.857-.303-1.563-1.159-1.764-.907-.151-1.966.353-2.218 1.26m-21.773-10.131c-.252.303-.403.706-.403 1.21 0 .454.151.907.454 1.209.504.605 1.26.807 1.814.101.252-.302.403-.756.403-1.26s-.151-.958-.403-1.26c-.504-.604-1.31-.604-1.865 0m-4.334 23.436c-.605.756-1.16 1.512-1.664 2.369a21 21 0 0 0-1.361 2.57c-.05 2.268.051 4.334.302 6.149.252 1.814.756 3.83 1.764 5.443 1.209-.554 2.117-4.788 2.671-6.35 2.671-7.913 5.141-16.481 2.318-25.352-.555-1.814-1.361-3.578-2.369-5.292a22 22 0 0 0-1.966-2.974 113 113 0 0 1-7.812 21.874l-.201.353c-.051 4.485.302 8.87 1.411 11.995.908 2.671 2.369 4.586 4.637 5.443-.655-1.311-1.108-3.024-1.411-5.04-.353-2.52-.454-5.494-.252-8.719.151-2.57.454-5.141.907-7.812a54.6 54.6 0 0 1 2.016-8.114c.202-.706 1.159-.403.907.302-.857 2.671-1.512 5.343-1.966 7.963s-.705 5.191-.857 7.711v.051c.152-.252.252-.504.403-.706.555-.856 1.109-1.713 1.764-2.52.457-.502 1.213.102.759.656m-24.394 46.268a41 41 0 0 1 2.218-2.923c2.52-3.024 5.09-4.536 5.998-8.568.252-1.21.353-2.369.302-3.579-.05-.756.907-.856.958-.101.101 1.311 0 2.621-.303 3.881a12 12 0 0 1-.403 1.461 57 57 0 0 0 2.873-3.226c1.563-1.915 2.974-3.931 4.133-6.3.353-.605 1.209-.151.907.454-1.26 2.419-2.671 4.485-4.233 6.451-.605.706-1.16 1.412-1.815 2.067.756-.403 1.462-.807 2.167-1.109.604-.303 1.058.554.403.857-.907.454-1.865.957-2.772 1.512-3.024 1.814-5.191 4.133-7.459 6.854-1.159 1.411-2.268 2.873-3.276 4.435 4.032-1.461 7.61-3.478 10.786-6.3 3.427-3.024 6.401-7.006 8.921-12.146a348 348 0 0 0 4.032-8.871c.605-1.461 1.26-2.923 1.915-4.385-13.306 5.797-22.025 15.525-25.352 29.536m8.569-29.736c-.353.05-.655.252-.908.555-.252.302-.403.756-.454 1.26 0 .454.101.908.353 1.26a.8.8 0 0 0 .706.403c.403 0 .756-.101 1.008-.353s.454-.655.554-1.26c0-.202 0-.454-.05-.655a1.9 1.9 0 0 0-.353-.857c-.201-.202-.403-.353-.655-.353zm21.369 12.348c-.958.706-.857 1.814.353 2.218.554.202 1.209.151 1.814 0 1.058-.303 1.915-1.461.856-2.318-.856-.606-2.166-.505-3.023.1m-18.85 18.9c-1.058 1.209-2.217 2.318-3.427 3.427 2.419-1.159 4.99-2.52 7.762-4.032a.487.487 0 0 1 .454.856c-3.276 1.814-6.3 3.377-9.123 4.637 1.108.101 2.217.302 3.377.806.403.151.403.403.151.756a21.5 21.5 0 0 0 3.024-1.562c5.091-2.974 9.475-7.409 13.003-11.643-5.645-.907-13.155.605-17.792 3.931-2.822 2.016-5.947 3.579-9.324 4.738-.806.705-1.461 1.613-1.966 2.57-.353.706-.706 1.462-1.008 2.369 2.52-.101 5.241-.857 8.215-2.066 2.117-1.613 4.133-3.427 5.897-5.443.505-.554 1.211.101.757.656" data-source="https://football-logos.cc"></path><path fill="#008146" d="M246.112 347.709c-.051-.05-.101-.05-.151-.101-1.412-.604-2.923-.655-4.385-.756h-.706c-2.923 1.16-5.594 1.865-8.114 2.067 4.788 1.159 9.274.504 13.356-1.21m-9.475-23.536c-.655.857-1.109 1.865-1.512 2.923a25 25 0 0 0-.856 3.226c.353 1.965 1.058 3.83 2.016 5.393.756-2.268 1.612-4.435 2.671-6.501.454-3.629.403-6.804-.101-9.576-.252-1.663-.706-3.226-1.311-4.586a110 110 0 0 1-8.417 9.072c.202 6.501 2.268 10.433 4.385 14.616.454.807.856 1.664 1.31 2.57a51 51 0 0 1 1.059-4.233c-1.16-1.512-2.016-4.334-2.52-6.199-.202-.857-1.613-1.814-2.419-2.217-.604-.303-.202-1.16.454-.857a6.6 6.6 0 0 1 2.066 1.512c.202-.856.454-1.713.756-2.52.403-1.16.907-2.269 1.612-3.226.454-.556 1.26.049.807.603"></path><path fill="#FFE100" d="M223.13 85.075c-1.109 0-2.117.454-2.873 1.159-.706.756-1.209 1.764-1.209 2.873 0 2.269 1.865 4.083 4.083 4.083 1.159 0 2.167-.454 2.873-1.159a4.07 4.07 0 0 0 1.209-2.924c-.001-2.217-1.816-4.032-4.083-4.032"></path><path d="M150.302 88.301c-.051.555-1.814 2.772-2.318 3.024h1.562c.353-.252.605-.504.756-.856.151.353.403.604.756.856h1.563c-.505-.252-2.269-2.47-2.319-3.024m0-8.417c-.051.503-1.814 2.318-2.318 2.52h1.562c.353-.201.605-.403.756-.706.151.303.403.504.756.706h1.563c-.505-.201-2.269-2.016-2.319-2.52"></path><path fill="#FFE100" d="M85.739 105.437c-1.411.454-2.066 1.209-2.167 1.965-.05.303 0 .605.05.857.101.302.303.555.504.756.554.605 1.512.907 2.52.554 22.831-7.207 43.243-10.836 63.655-10.836s40.824 3.629 63.655 10.836c1.008.353 1.965.051 2.52-.554.202-.201.403-.454.504-.756.05-.252.101-.554.05-.857-.101-.756-.756-1.512-2.167-1.965-21.017-7.106-42.79-10.685-64.563-10.685s-43.544 3.579-64.561 10.685"></path><path d="m121.019 92.333-.706.605c-3.226 2.923-7.207 3.629-11.945 2.268l-.958-.302.807-.554c1.814-1.361 3.729-2.167 5.695-2.47 1.966-.353 4.032-.251 6.149.252zm10.534-11.038c0 .403-1.563 2.167-2.016 2.419l1.563-.201c.303-.202.504-.403.706-.655.202.202.504.403.807.503l1.563-.151c-.507-.1-2.472-1.512-2.623-1.915m-19.555 2.319c.051.454-1.311 2.52-1.713 2.822l1.512-.353c.302-.252.504-.504.605-.807q.378.303.907.454l1.512-.353c-.505-.05-2.673-1.36-2.823-1.763m-20.967 5.493c.05.454-1.109 2.621-1.512 2.924l1.462-.454c.252-.252.454-.504.554-.807.252.202.554.302.907.403l1.512-.454c-.504-.05-2.721-1.209-2.923-1.612"></path><path fill="#E2001A" d="M118.852 92.887a13.6 13.6 0 0 0-4.738-.05 11.4 11.4 0 0 0-4.435 1.713c3.528.807 6.603.253 9.173-1.663"></path><path d="m179.584 92.333.706.605c3.276 2.923 7.207 3.629 11.945 2.268l.958-.302-.807-.554c-1.814-1.361-3.729-2.167-5.695-2.47-1.966-.353-4.032-.251-6.149.252zM169.05 81.295c0 .403 1.563 2.167 2.016 2.419l-1.563-.201a3 3 0 0 1-.706-.655 2.2 2.2 0 0 1-.806.503l-1.563-.151c.506-.1 2.471-1.512 2.622-1.915m19.555 2.319c-.05.454 1.311 2.52 1.714 2.822l-1.512-.353a3 3 0 0 1-.604-.807 2.6 2.6 0 0 1-.908.454l-1.512-.353c.504-.05 2.672-1.36 2.822-1.763m20.967 5.493c-.05.454 1.109 2.621 1.512 2.924l-1.462-.454c-.252-.252-.454-.504-.554-.807-.252.202-.554.302-.907.403l-1.512-.454c.504-.05 2.721-1.209 2.923-1.612"></path><path fill="#E2001A" d="M181.751 92.887a13.6 13.6 0 0 1 4.738-.05 11.4 11.4 0 0 1 4.435 1.713c-3.528.807-6.603.253-9.173-1.663"></path><path d="M191.428 72.425c-.151 4.435-.051 3.276 3.88 5.343-1.865-.555-3.729-.908-5.393.201-.907-1.814-2.671-2.419-4.586-2.873 4.436.151 3.983 1.21 6.099-2.671"></path><path fill="#FFE100" d="M144.253 79.683a2.13 2.13 0 0 0 2.117-2.117c0-1.16-.958-2.067-2.117-2.067s-2.066.907-2.066 2.067c0 1.159.907 2.117 2.066 2.117"></path><path d="M109.175 72.425c.151 4.435.05 3.276-3.881 5.343 1.865-.555 3.729-.908 5.393.201.907-1.814 2.671-2.419 4.586-2.873-4.435.151-3.981 1.21-6.098-2.671"></path><path fill="#FFE100" d="M150.302 59.825c-1.411 0-2.571 1.159-2.571 2.621 0 1.411 1.16 2.57 2.571 2.57a2.58 2.58 0 0 0 2.57-2.57c0-1.462-1.16-2.621-2.57-2.621m0-16.38c-1.764 0-3.175 1.461-3.175 3.226s1.411 3.175 3.175 3.175 3.175-1.411 3.175-3.175-1.411-3.226-3.175-3.226m0-7.862c-1.613 0-2.923 1.361-2.923 2.974s1.311 2.923 2.923 2.923 2.923-1.31 2.923-2.923-1.311-2.974-2.923-2.974m0 16.229c-1.663 0-3.075 1.411-3.075 3.125 0 1.663 1.412 3.074 3.075 3.074s3.074-1.411 3.074-3.074c0-1.714-1.411-3.125-3.074-3.125m0-39.968c-3.478 0-6.3 2.822-6.3 6.35 0 3.478 2.822 6.351 6.3 6.351s6.3-2.873 6.3-6.351c0-3.527-2.823-6.35-6.3-6.35m49.139 52.214a2.71 2.71 0 0 0-2.721 2.722c0 1.512 1.209 2.772 2.721 2.772.756 0 1.461-.302 1.966-.806a2.78 2.78 0 0 0 .806-1.966c0-1.512-1.259-2.722-2.772-2.722m7.006-13.759c-.807 0-1.563.353-2.117.907s-.907 1.31-.907 2.117a3.033 3.033 0 0 0 3.024 3.024c.856 0 1.613-.353 2.117-.857.555-.554.907-1.31.907-2.167a3.033 3.033 0 0 0-3.024-3.024m-2.923 7.207c-.806 0-1.563.302-2.066.857-.555.504-.856 1.26-.856 2.066 0 1.563 1.31 2.873 2.923 2.873.806 0 1.512-.303 2.016-.857.554-.504.856-1.21.856-2.016-.001-1.612-1.311-2.923-2.873-2.923m3.477-14.414a2.97 2.97 0 0 0-2.117.856 2.97 2.97 0 0 0-.857 2.117c0 1.663 1.361 3.023 2.974 3.023a3.23 3.23 0 0 0 2.167-.856c.555-.555.857-1.311.857-2.167 0-1.663-1.36-2.973-3.024-2.973m-.554-7.761c-.857 0-1.613.353-2.167.907a3.05 3.05 0 0 0-.907 2.167 3.053 3.053 0 0 0 3.074 3.074c.856 0 1.613-.353 2.167-.907.605-.555.907-1.311.907-2.167a3.053 3.053 0 0 0-3.074-3.074m.706-7.863a3.033 3.033 0 0 0-3.024 3.024c0 1.713 1.361 3.074 3.024 3.074a3.054 3.054 0 0 0 3.074-3.074c0-1.663-1.36-3.024-3.074-3.024m-7.661-2.218c-1.714 0-3.075 1.411-3.075 3.074s1.361 3.075 3.075 3.075c1.663 0 3.024-1.412 3.024-3.075s-1.361-3.074-3.024-3.074m-6.905-2.57a2.97 2.97 0 0 0-2.117.857c-.554.554-.907 1.31-.907 2.117a3.033 3.033 0 0 0 3.024 3.024c.807 0 1.563-.353 2.117-.907.555-.504.908-1.26.908-2.117-.001-1.664-1.362-2.974-3.025-2.974m-7.761-.957c-.756 0-1.512.302-2.016.806-.504.555-.857 1.26-.857 2.066 0 1.563 1.311 2.873 2.873 2.873.806 0 1.512-.353 2.066-.857.504-.554.806-1.26.806-2.016a2.84 2.84 0 0 0-2.872-2.872m-7.258-1.059c-.806 0-1.512.302-2.016.806a2.86 2.86 0 0 0-.857 2.067c0 1.562 1.311 2.873 2.873 2.873.807 0 1.512-.353 2.016-.857.555-.504.856-1.26.856-2.016a2.87 2.87 0 0 0-2.872-2.873m-7.107-1.059c-.806 0-1.512.303-2.016.807-.504.554-.857 1.26-.857 2.016 0 1.562 1.311 2.822 2.873 2.822.756 0 1.461-.302 1.966-.807.504-.554.857-1.26.857-2.016 0-1.561-1.31-2.822-2.823-2.822m-6.703-.503c-1.512 0-2.722 1.21-2.722 2.671s1.21 2.671 2.722 2.671c1.462 0 2.671-1.209 2.671-2.671s-1.209-2.671-2.671-2.671m50.653 11.087c-.857 0-1.664.353-2.218.907-.605.605-.958 1.361-.958 2.268 0 1.714 1.411 3.175 3.175 3.175.856 0 1.663-.353 2.217-.958h.05a3.16 3.16 0 0 0 .907-2.218 3.16 3.16 0 0 0-3.173-3.174m7.257 1.361c-.907 0-1.663.353-2.268.907-.554.605-.907 1.361-.907 2.268 0 1.713 1.411 3.175 3.175 3.175.857 0 1.663-.403 2.217-.958a3 3 0 0 0 .958-2.218c0-1.763-1.461-3.174-3.175-3.174m7.711 1.613a3.6 3.6 0 0 0-2.57 1.059c-.655.706-1.108 1.613-1.108 2.621 0 2.016 1.663 3.679 3.679 3.679 1.008 0 1.966-.454 2.621-1.109a3.62 3.62 0 0 0 1.058-2.57c-.001-2.016-1.664-3.68-3.68-3.68m7.611 3.931c-1.059 0-2.016.454-2.722 1.159s-1.159 1.664-1.159 2.722c0 2.117 1.764 3.88 3.881 3.88 1.058 0 2.016-.454 2.722-1.159s1.159-1.663 1.159-2.721c-.001-2.117-1.765-3.881-3.881-3.881m6.45 7.006c-2.167 0-3.981 1.814-3.981 3.981 0 2.218 1.814 4.032 3.981 4.032a4.043 4.043 0 0 0 4.032-4.032c.001-2.167-1.814-3.981-4.032-3.981m3.629 9.223a3.882 3.882 0 0 0 0 7.761c2.117 0 3.831-1.764 3.831-3.881s-1.714-3.88-3.831-3.88m-.302 9.475c-1.865 0-3.427 1.563-3.427 3.427s1.563 3.427 3.427 3.427 3.377-1.563 3.377-3.427-1.512-3.427-3.377-3.427m-2.218 7.812c-1.612 0-2.974 1.361-2.974 2.974a2.98 2.98 0 0 0 2.974 2.974 2.95 2.95 0 0 0 2.974-2.974 2.98 2.98 0 0 0-2.974-2.974m-3.074 6.603c-1.613 0-2.974 1.361-2.974 3.024 0 1.613 1.361 2.974 2.974 2.974 1.664 0 3.024-1.361 3.024-2.974a3.033 3.033 0 0 0-3.024-3.024"></path><path fill="#FFE100" d="M210.933 50.148c-.302 2.873-1.008 5.645-2.117 8.165-1.209 2.721-2.621 5.393-4.233 7.812-1.512 2.319-3.226 4.436-4.939 6.048-.302.353-.504.604-.454.907.05.353.303.806.807 1.461.151.151.302.302.453.403.555.353 1.21.252 1.966-.202.857-.554 1.764-1.512 2.671-2.671 1.915-2.469 3.831-5.947 5.242-9.021 1.814-3.831 2.772-7.157 3.226-10.584.454-3.931.252-7.862 0-11.793-.151-1.663-.252-3.78-1.966-4.032-.454-.05-.655.403-.756 1.008-.101.806 0 1.865.101 2.57.352 3.276.402 6.653-.001 9.929m-13.104-11.945c.856 2.923 1.209 5.796 1.108 8.669a29.8 29.8 0 0 1-1.713 8.518c-.555 1.613-1.26 3.024-2.066 4.385-.857 1.361-1.764 2.671-2.671 3.981-.856 1.159-1.109 1.865-.958 2.218s.655.554 1.411.756c2.167.504 3.024-.958 3.931-2.52.252-.403.504-.857.806-1.31 2.772-4.083 4.385-8.266 4.99-12.449.655-4.486.202-8.972-1.209-13.205-.252-.807-.756-1.915-1.461-2.671-.454-.504-.958-.857-1.512-.857-1.209.05-1.361.756-1.461 1.461-.153 1.059.502 1.915.805 3.024m-96.667 25.855a2.71 2.71 0 0 1 2.722 2.722c0 1.512-1.209 2.772-2.722 2.772a2.8 2.8 0 0 1-1.966-.806 2.78 2.78 0 0 1-.806-1.966c0-1.512 1.259-2.722 2.772-2.722m-7.006-13.759c.806 0 1.562.353 2.117.907s.907 1.31.907 2.117a3.033 3.033 0 0 1-3.024 3.024 3 3 0 0 1-2.117-.857 3.04 3.04 0 0 1-.907-2.167 3.033 3.033 0 0 1 3.024-3.024m2.923 7.207c.806 0 1.563.302 2.066.857.555.504.857 1.26.857 2.066 0 1.563-1.311 2.873-2.923 2.873-.806 0-1.512-.303-2.016-.857-.554-.504-.856-1.21-.856-2.016 0-1.612 1.31-2.923 2.872-2.923m-3.477-14.414a2.97 2.97 0 0 1 2.117.856 2.97 2.97 0 0 1 .857 2.117c0 1.663-1.361 3.023-2.974 3.023a3.23 3.23 0 0 1-2.167-.856c-.555-.555-.857-1.311-.857-2.167 0-1.663 1.36-2.973 3.024-2.973m.554-7.761a3.05 3.05 0 0 1 2.167.907c.554.554.907 1.311.907 2.167a3.053 3.053 0 0 1-3.074 3.074 3.05 3.05 0 0 1-2.167-.907c-.604-.555-.907-1.311-.907-2.167a3.053 3.053 0 0 1 3.074-3.074m-.706-7.863a3.033 3.033 0 0 1 3.024 3.024c0 1.713-1.361 3.074-3.024 3.074a3.055 3.055 0 0 1-3.074-3.074c0-1.663 1.361-3.024 3.074-3.024m7.661-2.218c1.713 0 3.074 1.411 3.074 3.074s-1.361 3.075-3.074 3.075c-1.663 0-3.024-1.412-3.024-3.075s1.361-3.074 3.024-3.074m6.905-2.57a2.97 2.97 0 0 1 2.117.857c.554.554.907 1.31.907 2.117a3.033 3.033 0 0 1-3.024 3.024c-.807 0-1.563-.353-2.117-.907-.555-.504-.907-1.26-.907-2.117 0-1.664 1.361-2.974 3.024-2.974m7.761-.957c.756 0 1.512.302 2.016.806.504.555.857 1.26.857 2.066 0 1.563-1.311 2.873-2.873 2.873a2.86 2.86 0 0 1-2.016-.857c-.555-.554-.857-1.26-.857-2.016a2.84 2.84 0 0 1 2.873-2.872m7.258-1.059c.806 0 1.512.302 2.016.806.554.555.857 1.26.857 2.067 0 1.562-1.311 2.873-2.873 2.873a2.86 2.86 0 0 1-2.016-.857c-.554-.504-.856-1.26-.856-2.016a2.87 2.87 0 0 1 2.872-2.873m7.107-1.059c.806 0 1.512.303 2.016.807.504.554.856 1.26.856 2.016 0 1.562-1.311 2.822-2.873 2.822a2.78 2.78 0 0 1-1.966-.807c-.504-.554-.856-1.26-.856-2.016 0-1.561 1.311-2.822 2.823-2.822m6.703-.503c1.512 0 2.722 1.21 2.722 2.671s-1.209 2.671-2.722 2.671c-1.461 0-2.671-1.209-2.671-2.671s1.209-2.671 2.671-2.671M86.193 30.189a3.17 3.17 0 0 1 2.218.907c.604.605.957 1.361.957 2.268 0 1.714-1.411 3.175-3.175 3.175a3 3 0 0 1-2.218-.958h-.05a3.16 3.16 0 0 1-.907-2.218 3.16 3.16 0 0 1 3.175-3.174m-7.258 1.361c.907 0 1.663.353 2.268.907.554.605.907 1.361.907 2.268 0 1.713-1.411 3.175-3.175 3.175-.857 0-1.663-.403-2.217-.958a3 3 0 0 1-.958-2.218c0-1.763 1.461-3.174 3.175-3.174m-7.711 1.613c1.008 0 1.915.403 2.57 1.059.655.706 1.108 1.613 1.108 2.621 0 2.016-1.663 3.679-3.679 3.679-1.008 0-1.966-.454-2.621-1.109a3.62 3.62 0 0 1-1.058-2.57c.001-2.016 1.664-3.68 3.68-3.68m-7.611 3.931c1.059 0 2.017.454 2.722 1.159s1.159 1.664 1.159 2.722c0 2.117-1.764 3.88-3.881 3.88-1.058 0-2.016-.454-2.721-1.159s-1.159-1.663-1.159-2.721c0-2.117 1.764-3.881 3.88-3.881m-6.45 7.006c2.167 0 3.981 1.814 3.981 3.981 0 2.218-1.814 4.032-3.981 4.032a4.043 4.043 0 0 1-4.032-4.032c-.001-2.167 1.814-3.981 4.032-3.981m-3.629 9.223a3.882 3.882 0 0 1 0 7.761c-2.117 0-3.831-1.764-3.831-3.881s1.714-3.88 3.831-3.88m.302 9.475c1.865 0 3.427 1.563 3.427 3.427s-1.563 3.427-3.427 3.427-3.377-1.563-3.377-3.427 1.512-3.427 3.377-3.427m2.218 7.812c1.613 0 2.974 1.361 2.974 2.974a2.98 2.98 0 0 1-2.974 2.974 2.95 2.95 0 0 1-2.974-2.974 2.98 2.98 0 0 1 2.974-2.974m3.074 6.603c1.613 0 2.974 1.361 2.974 3.024 0 1.613-1.361 2.974-2.974 2.974-1.663 0-3.024-1.361-3.024-2.974a3.033 3.033 0 0 1 3.024-3.024"></path><path fill="#FFE100" d="M89.67 50.148c.302 2.873 1.008 5.645 2.117 8.165 1.209 2.721 2.621 5.393 4.234 7.812 1.512 2.319 3.226 4.436 4.939 6.048.302.353.504.604.454.907-.05.353-.302.806-.807 1.461-.151.151-.302.302-.453.403-.555.353-1.21.252-1.966-.202-.857-.554-1.764-1.512-2.671-2.671-1.915-2.469-3.831-5.947-5.241-9.021-1.814-3.831-2.772-7.157-3.226-10.584-.454-3.931-.252-7.862 0-11.793.151-1.663.252-3.78 1.966-4.032.454-.05.655.403.756 1.008.101.806 0 1.865-.101 2.57-.354 3.276-.404 6.653-.001 9.929m13.104-11.945a27.2 27.2 0 0 0-1.109 8.669 29.8 29.8 0 0 0 1.713 8.518 20.8 20.8 0 0 0 2.117 4.385c.807 1.361 1.713 2.671 2.621 3.981.857 1.159 1.109 1.865.958 2.218s-.655.554-1.412.756c-2.167.504-3.024-.958-3.931-2.52-.252-.403-.504-.857-.806-1.31-2.772-4.083-4.385-8.266-4.99-12.449-.655-4.486-.202-8.972 1.209-13.205.252-.807.756-1.915 1.461-2.671.454-.504.958-.857 1.512-.857 1.21.05 1.361.756 1.461 1.461.154 1.059-.501 1.915-.804 3.024M66.688 83.21a6.8 6.8 0 0 1 2.469-.151c.655.1.807-.605.504-1.059-1.814-2.419-3.427-5.04-4.687-7.762-1.512-3.175-2.52-6.501-2.823-9.878-.504-5.998 1.714-11.793 5.796-16.582-2.52 1.108-5.242 2.47-7.258 5.242-3.578 4.838-3.226 11.037-1.714 16.582 1.311 4.637 3.68 9.072 6.552 13.154.304.404.707.556 1.161.454m164.304-40.622a30 30 0 0 0-2.167-1.109c-1.058-.503-2.57.706-1.411 1.512a34 34 0 0 1 2.621 2.117c1.158 1.059 3.376-1.109.957-2.52m-2.016 41.983c-.957 1.159-1.26 2.419-1.058 3.326.151.454.454.857.958.908.705 0 1.713-.504 2.872-1.865 4.385-5.09 8.115-11.038 9.879-17.337 1.411-5.191 1.461-10.534-.706-15.725a23.86 23.86 0 0 0-6.099-8.568c-1.461-1.209-3.125 1.311-2.117 2.52 4.083 4.788 6.25 10.584 5.746 16.531-.303 3.377-1.311 6.703-2.822 9.878-1.714 3.73-4.133 7.207-6.653 10.332"></path><path fill="#E2001A" d="M115.072 48.888c-1.965 2.419-5.04 2.823-5.997 5.746-.454 1.311.655 2.369 1.713 2.672 1.209.403 1.814-1.412 3.125-1.865-.554.655-.958 1.563-.604 2.066.403-.604.756-1.008 1.764-1.26-1.613 2.318-.907 2.722.303 2.57.706-.05 1.159-.706 2.016-1.109-.051.202-2.269 2.268-.454 2.419.403.05 1.713-.555 2.066-.907-.101.806-1.361 1.109-.151 1.764.655.403 1.461-.353 2.066-.605-1.461 2.016-.756 2.419.151 2.117.655-.252 1.21-.958 2.269-.958-.605.504-1.109.604-1.109 1.26.05 2.117 2.016 1.966 3.125 1.764-.806.605 0 3.024.353 3.074 2.066.252 2.57-.353 4.485-.907 2.772-.856 3.327-4.586 3.276-9.374-.05-4.184-.554-8.468-1.26-9.778-.857-.252-2.873.907-2.873 2.117-.151-.554-.504-1.008-.806-1.008-.655.051-1.311 1.008-1.865 1.26-2.016.907-.303-1.814-.303-1.965-2.822-.101-2.822 3.88-2.822-.252-1.965-.303-3.276 3.729-3.125.202-1.26-1.109-2.217-.051-2.974.856-.554.706-1.058 1.311-1.108 1.008-.101-.604.252-1.663.151-1.965-.202-.555-1.261.856-1.412 1.058m55.541-3.125c.252 1.814 0 2.671-.252 3.629-1.311 4.183.605 8.114.454 12.348 1.613.958 1.461-.655 1.965-1.966.958-4.183 4.889 6.451 9.375 1.966 1.461-1.916 4.233-3.982 7.106-3.73 3.78 2.319 2.117-8.417 1.059-8.971-.403-.202-1.26.302-1.26.151-.101-.907-.454-1.512-.958-1.512-.907-.201-1.26.454-1.462 1.411-.101.655-.806.202-.755-1.209-.504.454-.857 1.411-1.059 1.563-.403.302.101 0-.303-1.209-.353-1.159-.806-1.814-1.26.151-.302 1.26-1.814 3.326-4.133 1.965-1.059-.655-1.26-3.831-2.923-4.183-.857-.151-.202.907-.907.806-.202-.05-.353-.604-.756-.907-.706-.504.303.251-1.714-2.369-1.764-2.167-2.419.907-2.217 2.066m41.58 29.887c-1.059.101-1.764.605-2.016 1.563-.555 2.218 3.175 1.613 5.393 1.31 3.579-.454 3.276 2.571 5.343 1.865 1.209-.403.554-5.191 2.117-6.703.806-.756 2.722-1.563 3.024-2.369.604-1.613-.554-3.024-2.873-3.629-.958-.201-1.109-1.209-2.521-1.109-1.865.101-2.469 1.613-3.376 3.024-.706 1.058-1.462 2.117-2.722 2.621-1.563.605-1.714 2.268-2.369 3.427M85.891 72.929c2.217 2.974 5.191 5.292 7.106 5.141 1.563-.252 2.369-2.117 1.461-4.132-1.915-4.385-5.544-5.695-5.645-10.685-2.873-1.311-6.098-.303-9.525 1.411-4.184 3.075-8.215 5.09-15.322 4.334.907 3.175 2.369 6.199 4.083 8.971 1.965.05 3.377-.806 3.679-2.47.202-.857.907-2.469 2.268-2.469-.958.706-1.714 2.52-.756 2.923 1.663.756 2.52-3.931 4.032-4.284-.403.908-2.117 3.175-.302 3.175 1.411-.251 1.31-2.822 2.772-2.671.202.806-.202 2.722.958 2.671 1.613-.403 1.109-2.721 2.117-2.721-.253 2.317 2.368 1.915 3.074.806m96.919 32.054c1.209.604 3.327.706 4.99.655 3.125-.101 1.26 1.965 3.226 1.965 3.226 0 5.645 3.78 2.671 5.242-.706.353-1.915.302-3.226.302-1.159.353 2.369 1.814-.958 2.318-1.26.202-4.889-.856-4.889 1.361 0 1.26-3.78 2.016-4.838 2.167-9.425 1.311-19.505 1.965-29.484 1.965-6.502 0-13.054-.302-19.404-.806-2.167-.202-2.217-1.916-4.334-2.47-1.159-.302-2.671-.151-4.233-.302-3.478-.353-3.074-2.924-6.25-2.419-2.823.454-5.595-1.411-5.141-2.822.303-.807 2.066-1.26 4.688-1.512-1.865-.756-1.361-.454-3.377-.504-2.369-.05-2.974-.454-2.318-1.159.554-.554 4.133-.756 1.764-1.209-3.578-.706 2.722-2.369 3.377-2.671 2.57-1.109 4.788-2.722 7.611-3.175 9.375-1.461 18.497-2.167 27.619-2.167 7.61 0 15.221.504 22.932 1.512 3.374.403 6.6 2.268 9.574 3.729" data-source="https://football-logos.cc"></path><!-- source: https://football-logos.cc --></svg>