<svg xmlns="http://www.w3.org/2000/svg" xml:space="preserve" width="2144" height="2875" style="shape-rendering:geometricPrecision;text-rendering:geometricPrecision;image-rendering:optimizeQuality;fill-rule:evenodd;clip-rule:evenodd" viewBox="0 0 2174.34 2915.31"><!-- Source: https://football-logos.cc --><defs data-source="https://football-logos.cc"><style>.fil0{fill:#ab842c}.fil1{fill:#cb2725}.fil3{fill:#fff}</style></defs><g id="Ebene_x0020_1" data-source="https://football-logos.cc"><path d="M833.352 533.418c0 18.64-15.108 33.747-33.747 33.747-18.64 0-33.748-15.107-33.748-33.747s15.108-33.747 33.748-33.747 33.747 15.108 33.747 33.747" class="fil0"></path><path d="m528.678 558.729-9.376 43.124 33.747 33.747z" class="fil1"></path><path d="M1797.7 169.041c-61.575 0-78.45 76.575-78.45 76.575s-18.748-32.454-56.83-32.454c-43.476 0-69.116 29.642-69.116 68.35s35.467 57.399 43.329 65.26c20.449 25.19-1.284 38.06-20.5 28.213-13.13-3.752-141.564-37.5-159.375-37.5-30.112-2.285-23.727-22.147-5.68-22.147 8.261.443 14.854 1.059 19.514 1.059 32.105 0 52.856-23.906 52.856-47.017 0-49.075-42.117-55.302-42.117-55.302s9.649-12.516 9.649-25.645c0-29.77-23.676-57.422-56.952-57.422-57.422 0-55.546 61.052-55.546 61.052s-7.787-2.224-10.355-2.224c-15.887 0-52.07 15.94-52.07 52.086 0 30.878 26.317 48.201 39.455 50.566 18.282 6.094 24.846 23.906 0 26.247-11.247-1.875-184.703-15.437-198.236-15.437-25.815 0-31.675-42.45 9.225-42.103 39.723 0 77.35-30.582 77.35-75.111 1.274-75.23-76.762-79.918-76.762-79.918s5.153-16.64 5.153-26.486c0-48.513-45.465-79.683-84.836-79.683-39.375 0-84.844 31.17-84.844 79.683 0 9.845 5.158 26.486 5.158 26.486s-78.04 4.689-76.767 79.918c0 44.529 37.627 75.11 77.35 75.11 40.898-.346 35.04 42.104 9.23 42.104-13.538 0-186.994 13.562-198.242 15.437-24.84-2.341-18.281-20.153 0-26.247 13.143-2.365 39.461-19.688 39.461-50.566 0-36.146-36.183-52.086-52.081-52.086-2.562 0-10.349 2.224-10.349 2.224s1.876-61.052-55.546-61.052c-33.278 0-56.947 27.653-56.947 57.422 0 13.129 9.648 25.645 9.648 25.645s-42.121 6.227-42.121 55.302c0 23.111 20.754 47.017 52.86 47.017 4.656 0 11.249-.616 19.51-1.059 18.051 0 24.432 19.862-5.68 22.147-17.812 0-146.246 33.748-159.37 37.5-19.222 9.847-40.955-3.023-20.5-28.212 7.861-7.862 43.325-26.554 43.325-65.261 0-38.708-25.636-68.35-69.117-68.35-38.082 0-56.83 32.454-56.83 32.454s-16.875-76.575-78.45-76.575c-49.983 0-77.166 14.7-77.166 14.7s30.083 48.86 64.46 104.635c6.509-4.762 14.507-7.603 23.188-7.603 21.747 0 39.374 17.629 39.374 39.376 0 15.259-8.698 28.467-21.394 34.997 29.52 47.86 54.526 88.335 57.733 93.333 22.146 26.723 46.34 19.275 67.254 15.333 142.023-56.716 416.231-86.481 556.853-82.964 140.617-3.517 414.822 26.248 556.85 82.964 20.91 3.942 45.101 11.39 67.248-15.333 3.208-4.998 28.214-45.474 57.733-93.333-12.696-6.53-21.39-19.738-21.39-34.997 0-21.747 17.624-39.376 39.371-39.376 8.68 0 16.678 2.84 23.186 7.603a360351 360351 0 0 0 64.466-104.636s-27.192-14.699-77.17-14.699M751.32 275.615c-19.414 0-35.153-15.742-35.153-35.152 0-19.416 15.739-35.158 35.153-35.158 19.416 0 35.158 15.742 35.158 35.158 0 19.41-15.742 35.152-35.158 35.152m336.084-55.95c-25.438 0-46.057-20.619-46.057-46.052 0-25.439 20.619-46.053 46.057-46.053 25.43 0 46.048 20.614 46.048 46.053 0 25.433-20.618 46.052-46.048 46.052m300.922 20.798c0-19.416 15.738-35.158 35.152-35.158 19.416 0 35.158 15.742 35.158 35.158 0 19.41-15.742 35.152-35.158 35.152-19.414 0-35.152-15.742-35.152-35.152" class="fil0"></path><path d="M1087.41 394.672c156.549 0 422.236 30.113 573.725 89.994-5.629 26.253-9.55 40.98-15.005 62.81-129.369-55.305-406.855-89.057-558.72-89.057-151.868 0-429.359 33.752-558.729 89.058-5.454-21.831-9.376-36.558-14.999-62.811 151.483-59.881 417.171-89.994 573.728-89.994m0 167.805c134.053 0 404.04 30.94 535.285 85.31-4.293 17.68-11.253 49.688-15.935 65.623-97.495-44.059-372.174-88.117-519.35-88.117-147.186 0-421.86 44.058-519.353 88.117-4.688-15.935-11.647-47.942-15.94-65.623 131.246-54.37 401.236-85.31 535.293-85.31" class="fil0"></path><path d="M1341.45 533.418c0 18.64 15.113 33.747 33.752 33.747 18.638 0 33.746-15.107 33.746-33.747s-15.108-33.747-33.746-33.747c-18.64 0-33.752 15.108-33.752 33.747" class="fil0"></path><path d="m1646.13 558.729 9.37 43.124-33.74 33.747zm-558.72-89.998 46.16 42.657-46.16 41.012-46.18-41.012z" class="fil1"></path><path d="M1586.42 880.213c-4.1-48.455-44.782-86.65-94.272-86.65-37.448 0-69.784 21.901-85.136 53.515-34.373-6.127-118.747-16.345-177.505-21.696l-53.938-8.248c-.283-.78-.546-1.575-.856-2.341-.579-1.406-1.25-2.76-1.895-4.13-.537-1.142-1.062-2.29-1.646-3.408-.686-1.33-1.43-2.624-2.182-3.917a87 87 0 0 0-1.994-3.282 92 92 0 0 0-2.416-3.649c-.786-1.114-1.613-2.187-2.441-3.268-.84-1.086-1.655-2.19-2.534-3.24a95 95 0 0 0-5.121-5.628c-.813-.823-1.688-1.59-2.53-2.379-1.18-1.115-2.365-2.22-3.592-3.268-.945-.8-1.918-1.557-2.882-2.324a96 96 0 0 0-3.81-2.844 85 85 0 0 0-2.956-2.021 90 90 0 0 0-4.467-2.719c-.898-.517-1.773-1.057-2.68-1.542a94 94 0 0 0-7.379-3.56c-.508-.215-1.033-.38-1.536-.588a95 95 0 0 0-6.447-2.364c-.937-.302-1.886-.556-2.836-.832a96 96 0 0 0-5.563-1.43 75 75 0 0 0-3.07-.635 94 94 0 0 0-5.938-.912c-.923-.113-1.835-.254-2.766-.338-2.924-.278-5.873-.452-8.868-.452-2.99 0-5.944.174-8.868.452-.926.084-1.843.225-2.76.338-2.003.249-3.983.54-5.943.912-1.03.188-2.05.405-3.066.635-1.881.418-3.73.903-5.568 1.43-.945.276-1.9.53-2.83.832a93 93 0 0 0-6.46 2.369c-.504.202-1.026.368-1.524.578a96 96 0 0 0-7.383 3.565c-.907.48-1.778 1.02-2.661 1.532a95 95 0 0 0-4.491 2.733 88 88 0 0 0-2.938 2.008 88 88 0 0 0-3.837 2.873c-.96.752-1.924 1.5-2.85 2.29-1.26 1.071-2.46 2.191-3.658 3.324-.823.78-1.68 1.519-2.473 2.323a97 97 0 0 0-5.145 5.657c-.86 1.02-1.645 2.097-2.463 3.159-.857 1.11-1.707 2.215-2.517 3.363a90 90 0 0 0-2.37 3.577 95 95 0 0 0-2.054 3.373 96 96 0 0 0-2.135 3.835c-.606 1.162-1.152 2.353-1.706 3.542-.626 1.33-1.275 2.643-1.839 4.001-.315.78-.569 1.584-.87 2.37l-53.938 8.248c-58.758 5.356-143.123 15.569-177.501 21.696-15.352-31.613-47.694-53.515-85.137-53.515-49.49 0-90.172 38.195-94.272 86.645l-587.91 158.89 7.307 53.863c52.015 383.49 202.351 761.01 446.828 1122.08 222.956 329.285 467.137 558.574 592.848 665.952l40.175 34.31.01.01 40.184-34.32c125.707-107.378 369.892-336.667 592.848-665.952 244.477-361.071 394.813-738.59 446.828-1122.08l7.308-53.863-587.911-158.885z" class="fil0"></path><path d="M1087.17 2833.95c309.174-264.08 902.774-895.749 1018.55-1749.3l-534.504-144.454c-11.995 18.183-30.042 32.036-51.296 38.568v246.456c38.698 11.897 66.916 47.966 66.916 90.516 0 42.545-28.218 78.614-66.916 90.506v89.016c0 33.596-14.571 154.211-32.872 198.25-.08.212-.583 1.43-1.322 3.212 17.272 17.158 27.988 40.908 27.988 67.122 0 51.757-41.764 93.883-93.352 94.612l-1.668 4.392c-28.491 68.298-159.99 233.817-240.086 279.855a94 94 0 0 1 2.07 10.04c.154.968.3 1.928.427 2.905.141 1.19.273 2.38.371 3.583.222 2.549.376 5.116.376 7.716 0 52.209-42.47 94.683-94.681 94.683z" style="fill:#2c1a69"></path><path d="M1087.17 2261.63c-52.207 0-94.681-42.474-94.681-94.683 0-2.6.154-5.167.376-7.716.098-1.203.23-2.393.376-3.583a87 87 0 0 1 .422-2.905 94 94 0 0 1 2.07-10.04c-80.1-46.038-211.6-211.557-240.081-279.855l-1.673-4.392c-51.587-.729-93.352-42.855-93.352-94.612 0-26.214 10.716-49.964 27.988-67.122-.74-1.782-1.242-3-1.327-3.212-18.296-44.04-32.867-164.654-32.867-198.25v-89.015c-38.698-11.892-66.916-47.962-66.916-90.507 0-42.55 28.218-78.62 66.916-90.516V978.766c-21.25-6.532-39.3-20.384-51.333-38.558L68.62 1084.652c115.776 853.552 709.376 1485.22 1018.55 1749.3z" class="fil1"></path><path d="M1030.43 2091.19c15.823-11.881 35.472-18.93 56.735-18.93 21.16 0 40.721 6.978 56.5 18.747l.236.183c62.783-31.838 192.152-190.953 217.68-252.156-22.575-17.407-37.241-44.586-37.241-75.192 0-52.216 42.474-94.69 94.686-94.69 3.683 0 7.289.268 10.867.671 13.726-33.013 28.151-144.289 28.151-174.565v-91.297c-35.388-13.729-60.582-48.05-60.582-88.225s25.194-74.5 60.582-88.23V976.552c-29.247-11.454-51.421-36.78-58.296-67.856-41.497-8.073-192.425-24.973-223.836-24.973-.084.085-.173.25-.257.41l.3-.49c-13.396 36.042-48.14 61.79-88.79 61.79-40.622 0-75.35-25.715-88.762-61.72l.273.42c-.085-.16-.174-.325-.258-.41-31.411 0-182.34 16.9-223.835 24.973-6.876 31.076-29.05 56.402-58.297 67.856v250.952c35.388 13.73 60.582 48.056 60.582 88.231s-25.194 74.496-60.582 88.225v91.297c0 30.277 14.425 141.552 28.15 174.565 3.574-.403 7.19-.672 10.868-.672 52.212 0 94.686 42.475 94.686 94.691 0 30.606-14.666 57.785-37.24 75.192 25.523 61.202 154.891 220.317 217.68 252.156z" class="fil3"></path><path d="M946.419 1166.1c0 2.75-2.229 4.98-4.97 4.98a4.974 4.974 0 1 1 0-9.95 4.97 4.97 0 0 1 4.97 4.97" class="fil0"></path><path d="m901.509 1169.83-1.382 6.36 4.98 4.98z" class="fil1"></path><path d="M1088.57 1112.39c-9.08 0-11.568 11.285-11.568 11.285s-2.759-4.782-8.378-4.782c-6.405 0-10.186 4.369-10.186 10.072 0 5.714 5.229 8.465 6.386 9.62 3.014 3.72-.188 5.615-3.023 4.162-1.933-.555-20.863-5.525-23.487-5.525-4.443-.339-3.498-3.263-.837-3.263 1.213.061 2.191.15 2.873.15 4.735 0 7.796-3.521 7.796-6.931 0-7.231-6.217-8.153-6.217-8.153s1.425-1.843 1.425-3.781c0-4.387-3.483-8.459-8.392-8.459-8.465 0-8.187 9-8.187 9s-1.147-.334-1.524-.334c-2.35 0-7.674 2.356-7.674 7.684 0 4.546 3.874 7.104 5.812 7.453 2.695.898 3.664 3.522 0 3.87-1.66-.278-27.23-2.276-29.224-2.276-3.803 0-4.668-6.26 1.36-6.208 5.858 0 11.402-4.509 11.402-11.073.188-11.087-11.313-11.778-11.313-11.778s.757-2.455.757-3.908c0-7.147-6.7-11.746-12.508-11.746-5.797 0-12.503 4.599-12.503 11.746 0 1.453.762 3.908.762 3.908s-11.507.691-11.319 11.778c0 6.564 5.545 11.073 11.4 11.073 6.032-.051 5.172 6.208 1.362 6.208-1.993 0-27.563 1.998-29.223 2.275-3.663-.347-2.694-2.971 0-3.87 1.942-.348 5.816-2.906 5.816-7.452 0-5.328-5.327-7.684-7.673-7.684-.376 0-1.528.334-1.528.334s.276-9-8.182-9c-4.91 0-8.393 4.072-8.393 8.459 0 1.938 1.414 3.78 1.414 3.78s-6.206.923-6.206 8.154c0 3.41 3.057 6.932 7.792 6.932.686 0 1.66-.09 2.876-.151 2.658 0 3.603 2.924-.84 3.263-2.624 0-21.555 4.97-23.488 5.525-2.836 1.453-6.037-.442-3.024-4.162 1.157-1.155 6.386-3.906 6.386-9.62 0-5.703-3.78-10.072-10.184-10.072-5.62 0-8.38 4.782-8.38 4.782s-2.487-11.285-11.562-11.285c-7.373 0-11.38 2.168-11.38 2.168s4.434 7.203 9.504 15.418a5.801 5.801 0 0 1 9.22 4.693 5.79 5.79 0 0 1-3.154 5.153c4.354 7.058 8.04 13.02 8.515 13.758 3.258 3.942 6.827 2.841 9.907 2.263 20.94-8.366 61.358-12.748 82.085-12.225 20.727-.523 61.151 3.86 82.085 12.225 3.084.578 6.653 1.679 9.916-2.263.471-.737 4.157-6.7 8.512-13.758-1.872-.964-3.16-2.905-3.16-5.153a5.806 5.806 0 0 1 9.226-4.693 39627 39627 0 0 0 9.508-15.418s-4.012-2.168-11.38-2.168m-154.243 15.705a5.181 5.181 0 1 1 0-10.364 5.183 5.183 0 0 1 0 10.364m49.537-8.243a6.79 6.79 0 0 1 0-13.58 6.786 6.786 0 0 1 6.789 6.791 6.79 6.79 0 0 1-6.79 6.79m44.359 3.066a5.187 5.187 0 0 1 5.182-5.187 5.184 5.184 0 0 1 5.182 5.187 5.182 5.182 0 0 1-10.364 0" class="fil0"></path><path d="M983.867 1145.65c23.078 0 62.247 4.443 84.577 13.27-.832 3.864-1.41 6.037-2.21 9.257-19.077-8.153-59.975-13.133-82.367-13.133-22.382 0-63.286 4.98-82.358 13.133-.804-3.22-1.382-5.393-2.215-9.257 22.336-8.827 61.5-13.27 84.573-13.27m0 24.74c19.763 0 59.567 4.565 78.907 12.583-.632 2.6-1.655 7.316-2.348 9.672-14.373-6.498-54.863-12.992-76.559-12.992-21.691 0-62.18 6.494-76.556 12.992-.686-2.356-1.711-7.072-2.346-9.672 19.345-8.018 59.144-12.583 78.902-12.583" class="fil0"></path><path d="M1021.31 1166.1a4.98 4.98 0 0 0 4.98 4.98 4.975 4.975 0 0 0 4.974-4.98 4.97 4.97 0 0 0-4.974-4.97 4.974 4.974 0 0 0-4.98 4.97" class="fil0"></path><path d="m1066.23 1169.83 1.38 6.36-4.98 4.98zm-82.363-13.26 6.808 6.28-6.808 6.05-6.804-6.05z" class="fil1"></path><path d="m1122.33 1415.57-26.454-36.408V1331.2c0-18.338-11.045-29.294-11.045-29.294s-30.992-34.025-38.318-42.07c-7.881-7.88-14.473-11.134-25.43-11.134v-7.5c0-5.86-1.348-7.966-7.965-7.966h-30.47c-4.494.626-7.63.626-11.021-8.298-3.39-7.525-12.593-5.827-17.807-.612-8.788 6.798-69.492 74.886-71.482 76.875-4.89 4.89-4.791 12.831 0 19.687.804 1.368 11.727 19.993 11.727 19.993s21.282-16.085 22.726-17.524c6.794-4.345 18.982 3.39 18.982 3.39l-33.394 26.365s1.17 8.554 8.553 8.554h30.465l10.787 21.328 20.153-.235v-40.311h12.188v-39.372h9.371v48.748h-12.183v41.246h-31.64l-52.5 50.154h38.2l-20.317 42.943 45.299.08-.606 45.568 44.999-52.498 44.995 33.747v-57.183h60.004l-22.505-40.311zm-183.731-125.951c-3.673 0-8.915-4.001-8.915-5.29v-3.987c.493-4.218 15.784-7.645 18.042-7.03.371.26 1.17.23 1.17 3.748 0 3.019-3.074 12.559-10.297 12.559" class="fil0"></path><path d="M952.763 1491.97h-73.824c-11.605 0-24.765 9.141-26.369 16.877-1.603 4.499-17.93 50.27-17.93 50.27s-1.754 9.494-1.754 12.305c0 37.618 33.042 41.134 33.042 41.134s14.605-47.425 14.766-48.517c3.046-7.03 11.952-14.238 18.28-14.238h45c6.678 0 8.789-2.515 8.789-8.788zm53.077-.35-44.994 48.511s-8.431 102.751-8.788 104.763c0 7.204-4.923 10.194-10.199 10.194h-25.665s-9.085 17.023-9.488 17.578c-2.375 6.24-2.812 20.388-2.812 20.388h76.988l65.74-112.846v-32.342l12.653 8.788v14.764s42.014-23.552 73.475-23.552c21.86 0 46.998 6.823 66.44 19.688 13.007 8.248 23.38 14.943 30.931 24.427 13.839 17.37 18.908 39.113 20.746 61.702h-15.818c-8.44 0-17.576 5.45-19.335 12.653-.747 2.849-7.029 26.717-7.029 26.717h84.37l16.876-39.37-15.823-86.481s-45.347-45.348-45.347-86.13v-3.517c39.196-6.15 50.27-33.042 50.27-60.817 0-25.133-4.128-41.04-30.588-67.494-13.531-13.537-44.467-27.597-44.467-44.472 0-5.45 4.744-18.283 18.282-18.283 8.436 0 17.05 2.111 22.32 9.32 5.625 33.747 37.618 48.16 37.618 48.16l8.082-8.084s9.495 9.494 34.453 9.494c0-27.07-15.992-42.013-25.664-49.922-12.127-10.458-27.14-21.72-35.75-25.59-11.605-7.203-24.888-8.158-35.262-8.158-32.867 0-50.622 21.268-50.622 44.994 0 28.303 26.016 42.889 35.858 52.735 28.302 25.838 33.436 33.22 33.436 46.025 0 11.98-5.84 18.52-13.457 18.52h-151.807l21.794 40.566h-63.629v66.44z" class="fil0"></path><path d="M1116.23 1559.11c.475 1.547 8.436 27.776 8.436 27.776s1.406 2.812 1.406 7.735c0 14.586-11.949 47.806-18.63 59.059h-37.617c-7.203 0-16.523 20.567-16.523 39.37h78.75l65.736-73.823s7.274-35.055 7.383-35.858c-11.953-11.954-47.458-27.95-88.941-24.26" class="fil0"></path><path d="M737.495 888.249c0 30.545-24.762 55.307-55.311 55.307-30.545 0-55.306-24.762-55.306-55.307 0-30.55 24.76-55.311 55.306-55.311 30.55 0 55.311 24.761 55.311 55.311m0 427.481c0 30.545-24.762 55.307-55.311 55.307-30.545 0-55.306-24.762-55.306-55.307 0-30.55 24.76-55.311 55.306-55.311 30.55 0 55.311 24.761 55.311 55.311m73.123 448.11c0 30.54-24.762 55.302-55.311 55.302-30.545 0-55.307-24.762-55.307-55.302 0-30.554 24.762-55.315 55.307-55.315 30.55 0 55.311 24.76 55.311 55.315m626.222-875.591c0 30.545 24.762 55.307 55.316 55.307 30.545 0 55.306-24.762 55.306-55.307 0-30.55-24.76-55.311-55.306-55.311-30.554 0-55.316 24.761-55.316 55.311m-404.98-37.499c0 30.545 24.762 55.307 55.307 55.307 30.55 0 55.311-24.762 55.311-55.307 0-30.55-24.762-55.311-55.311-55.311-30.545 0-55.307 24.761-55.307 55.311m0 1316.19c0 30.55 24.762 55.311 55.307 55.311 30.55 0 55.311-24.761 55.311-55.311s-24.762-55.315-55.311-55.315c-30.545 0-55.307 24.765-55.307 55.315m404.98-851.21c0 30.545 24.762 55.307 55.316 55.307 30.545 0 55.306-24.762 55.306-55.307 0-30.55-24.76-55.311-55.306-55.311-30.554 0-55.316 24.761-55.316 55.311m-73.13 448.11c0 30.54 24.765 55.302 55.315 55.302 30.545 0 55.307-24.762 55.307-55.302 0-30.554-24.762-55.315-55.307-55.315-30.55 0-55.315 24.76-55.315 55.315m-911.201-345.7v40.78h-80.152c-70.312 0-130.776-68.193-130.776-142.027 0-74.524 58.358-138.505 130.776-138.505h80.152v39.371h-80.152c-47.812 0-90.7 48.511-90.7 99.134 0 49.218 42.183 101.37 90.7 101.37 39.37 0 80.152-.123 80.152-.123m1481.181-137.33v177.877h-38.435v-59.054h-142.489v59.054h-36.799V1280.81c0-54.145 53.67-109.45 109.447-109.45 55.781 0 108.275 55.78 108.275 109.45zm-108.275-67.263c-42.188 0-72.648 28.589-72.648 72.647v74.064h142.49v-74.064c0-43.589-26.718-72.648-69.842-72.648zM1089.98 2372.54c78.145 0 141.731 63.582 141.731 141.732s-63.586 141.722-141.731 141.722c-78.15 0-141.727-63.572-141.727-141.722s63.577-141.732 141.727-141.732m0 42.122c-55.01 0-99.605 44.595-99.605 99.61 0 55.005 44.594 99.605 99.605 99.605 55.01 0 99.61-44.6 99.61-99.605 0-55.015-44.6-99.61-99.61-99.61" class="fil3"></path></g><!-- source: https://football-logos.cc --></svg>