<svg xmlns="http://www.w3.org/2000/svg" xml:space="preserve" id="Слой_1" x="0" y="0" version="1.1" viewBox="0 0 480 446.6"><!-- Source: https://football-logos.cc --><style data-source="https://football-logos.cc">.st0{fill:#c0ae33}.st0,.st2,.st3{fill-rule:evenodd;clip-rule:evenodd}.st2{fill:#e3361d}.st3{fill:#251900}</style><path d="M477.2 112c-4.3-36.6-20.6-82.7-42.4-112-76 31.1-120.7 32.3-194.9 4.2-74.1 28-118.8 26.9-194.8-4.2-21.8 29.3-38 75.5-42.4 112-1.6 14-2.5 24.7-2.7 34.2v8c.2 12 1.7 23.3 4.1 39.2 9.5 61.8 58.8 121.8 91.2 143.8 68.4 46.3 90.4 14.7 144.7 109.4 54.4-94.7 76.3-63 144.7-109.4 32.5-22 81.8-82 91.2-143.8 2.5-16 3.9-27.2 4.2-39.2v-8.1c-.3-9.4-1.2-20-2.9-34.1" class="st0"></path><path d="M334.7 345.3c6.3-2.7 12.6-5.5 18.7-8.5l10.5-5.8c4.8-2.9 9.5-5.9 14.1-9.2 7.7-5.8 14.6-12.1 21.3-19 5.7-6.1 11.1-12.3 16.3-18.9 5.6-7.2 10.7-14.5 15.6-22.1 3.9-6.4 7.5-12.8 11-19.4 3.3-6.7 6.2-13.4 8.9-20.3 1.9-5.2 3.5-10.2 5-15.5 1.5-6.1 2.8-12.2 3.7-18.4 1.6-10.6 3-21.2 3.5-31.9.5-15.2-1.1-30.4-3-45.4-1.7-11.6-4.2-22.9-7.5-34.1-1.4-4.8-2.9-9.4-4.6-14.1-5.3-14.5-11.5-29.1-19.7-42.3-15.8 6.1-31.7 11.1-48.1 15-6.3 1.4-12.5 2.5-18.8 3.5-6.2.8-12.2 1.4-18.4 1.8-6.2.2-12.2.2-18.4.1-6.2-.3-12.3-.8-18.4-1.5-6.4-.9-12.5-2-18.8-3.2l-12.8-3c-11.8-3.2-23.4-6.8-34.8-11-15.5 5.7-31.4 10.4-47.6 14.1-6.3 1.3-12.5 2.3-18.8 3.2-6.2.7-12.3 1.2-18.4 1.5-6.2.1-12.2.1-18.4-.1-6.2-.4-12.3-1-18.4-1.8-6.4-1-12.5-2.1-18.8-3.5-16.4-3.9-32.4-8.9-48.1-15l-1.8 3c-12.7 22.1-21.4 46-27 70.9-1.2 5.6-2.2 11.1-3 16.7-1.8 13.7-3.2 27.6-3.1 41.4.2 14.8 2.3 29.5 4.9 44 1.1 5.3 2.4 10.4 3.9 15.5 1.7 5.2 3.5 10.3 5.5 15.5 3.7 8.6 7.7 16.8 12.2 25 2.8 4.8 5.6 9.5 8.7 14.2C58.7 277 66 286.6 74.2 296l6.5 7.1c7.5 7.7 15.2 14.7 24 20.9 5.5 3.6 11.1 7.1 16.8 10.4 6.3 3.4 12.7 6.5 19.4 9.4 13 5.4 26.3 9.7 39.1 15.5l8.9 4.6c4.7 2.8 9.1 5.7 13.5 9l9 7.8 9.1 9.3c7 8.2 13.5 16.6 19.5 25.6 7.1-10.9 15.2-21 24-30.5l9.1-8.5 9.1-7c4.4-2.9 8.8-5.6 13.4-8l8.8-4.2c10-4.6 20.2-8.2 30.3-12.1" style="fill-rule:evenodd;clip-rule:evenodd;fill:#fff"></path><path d="m307.7 39.3-54.1 104.3 31.6-6.7-50.8 89.4-10-26.1L166 313l-18.6-10.2 11.8 40.3 40.3-11.8-18.5-10.2 41.5-72.7 8.4 32.9 108.1-173-44.9 8.4 45.9-76c-5 .1-10 .1-15.1 0-5.8-.3-11.5-.8-17.2-1.4" class="st2"></path><path d="M420.1 120.6c-.3-.3-1-.7-1.9-1.3s-1.7-1.2-2.5-2-1.5-1.9-2.1-3.3c-1.3-3.3-2.7-6.4-4-9.2s-2.9-5.7-4.7-8.6-3.9-5.5-6.1-7.8c5.4-2.5 9.4-5.4 12-8.9s3.9-7.3 3.9-11.7c-.2-2.7-1.2-5.4-2.7-7.9-1.6-2.5-4.1-4.6-7.5-6.2-3.5-1.6-7.9-2.5-13.3-2.5H351c-3.4 0-5.1 1.2-5.1 3.5 0 .9.2 1.5.6 1.9.4.3 1.1.7 2 1.2s1.6 1 2.1 1.6.7 1.5.7 2.8v52.2c0 1.1-.2 2-.7 2.5q-.75.9-2.1 1.5c-1.35.6-1.6.9-2 1.4-.4.4-.7 1.1-.7 2.1 0 1.1.5 2 1.4 2.5.9.6 2 .8 3.2.8h20.2c1.2 0 2.4-.2 3.5-.7s1.6-1.4 1.6-2.6c0-1-.2-1.7-.7-2.1s-1.2-.9-2.1-1.3-1.6-1-2.1-1.5c-.5-.6-.7-1.5-.7-2.8V94.4l10.2-1.5c.6.7 1.1 1.4 1.8 2.2 1.5 2 3.2 4.5 5 7.6 2.6 4.2 4.3 8 5.4 11.4.2.7.3 1.5.3 2.3 0 .7-.2 1.2-.5 1.6-.4.4-.9.8-1.6 1.3s-1.3.9-1.6 1.3c-.4.4-.6.9-.6 1.6.1 2.1 1.6 3.1 4.5 3.1h22.9c1.2 0 2.2-.2 3.1-.7s1.4-1.2 1.4-2.2c.3-.9.1-1.4-.3-1.8m-29.6-40.8c-2.2 2.1-5 3.6-8.1 4.7-.5.2-.9.3-1.4.4-3.7 1.1-7.3 1.6-10.6 1.6V64.4c0-2.1.7-3.7 2.3-4.6 1.5-.8 3.7-1.4 6.6-1.5 1.1 0 2.1.1 3.1.2 3.5.4 6.3 1.5 8.2 3.4 2.4 2.3 3.7 5.3 3.8 8.9q0 5.4-3.9 9m-19.8 139.4c1.5-2.7 3.3-6.3 5.6-10.8q3.3-6.9 6.6-14.7c3.3-7.8 4.1-9.9 5.6-14.1 1.4-4.2 2.1-7.2 2.1-9.1 0-1.4-.4-2.5-1.1-3.2s-1.8-1.4-3.3-2.1c-1.4-.6-2.4-1.2-3-1.6-.6-.5-.9-1.2-.9-2.2 0-2.1 1.8-3.1 5.4-3.1h15.6c3.9 0 5.8 1 5.8 3.1 0 1.2-.5 2.2-1.3 2.8-.8.7-1.8 1.4-2.8 2.1s-1.7 1.6-2 2.8c-.7 2.5-2.1 6.4-4.2 11.8-2.2 5.3-4.8 11.1-7.7 17.4s-5.7 12-8.3 17.1-4.5 8.8-5.8 10.8c-1.3 2.1-2.4 3.7-3.3 4.7-.9.9-2 1.7-3.2 2.1-1.3.4-3.1.7-5.3.7-2.4 0-4.1-.1-5.1-.2s-2-.6-2.8-1.3c-.9-.7-2-1.8-3.1-3.3-3.6-4.5-6.8-9.3-9.7-14.6-2.8-5.2-5.4-10.4-7.5-15.5s-4.1-10.2-5.7-15.1c-1.7-5-3.5-10-5.3-15.3-.5-1.3-1.1-2.3-2-2.9-.8-.6-1.6-1.2-2.2-1.7-.7-.5-1-1.2-1.1-2.1 0-2.3 2.5-3.5 7.5-3.5H348c4.6 0 6.9 1 6.9 3.1 0 .8-.3 1.5-.8 2-.6.5-1.4 1-2.6 1.6s-2 1.1-2.6 1.6-.8 1.3-.8 2.2c.2 3.3 1.2 7.1 2.8 11.5 1.7 4.5 3.7 9 6 13.4 2.3 4.5 5 9.5 7.9 14.8 3 5.5 5 9 5.9 10.8m-107.5 59.4v42.9q0 2.7.9 3.9c.9 1.2 1.5 1.5 2.7 2.1s2 1.1 2.5 1.5.8 1.2.8 2.2c0 1.1-.4 1.9-1.3 2.4-.8.5-1.9.7-3 .7h-13.7c-2.8 0-4.3-1.1-4.3-3.3 0-1.3.8-2.3 2.5-3.1s2.8-1.5 3.5-2.1 1-2 1-4.3v-48.3c0-2.2-.3-3.6-1-4.2-.7-.5-2-1.2-4-2.1s-2.9-2-2.9-3.3c0-2.2 1.4-3.3 4.3-3.3h20.9c1.8 0 3 .4 3.7 1.2s1.5 2.5 2.4 5l14.1 37.1 14.5-35.9c1.2-2.9 2.1-4.9 2.8-5.9s2-1.5 3.6-1.5h19.5c2.2 0 3.3 1.1 3.3 3.1 0 1.2-.3 2.1-.8 2.5-.5.5-1.4.9-2.5 1.3s-2 .8-2.6 1.4-.9 1.5-.9 2.9V324c0 .9.2 1.7.7 2.1.5.5 1.1 1 2 1.4s1.6.9 2.1 1.4c.5.4.7 1.2.8 2.1 0 2.2-1.9 3.3-5.5 3.3h-19c-1 0-2-.3-2.9-.9S306 332 306 331q0-1.35.6-2.1c.5-.4 1.1-.9 1.9-1.3.9-.5 1.5-.9 2-1.4s.7-1.4.7-2.4v-46.2l-17.3 43.3c-.3 1.2-.8 2.1-1.7 2.7-.8.6-2.4 1-4.6 1s-3.8-.3-4.7-.9-1.6-1.6-2.2-2.8z" class="st3"></path><path d="M176.2 181.9c0-3.2 3.3-6.8 7.1-8.6 3.9-1.8 8.5-5.7 9.9-9.3s-.7-8.5-1-12c-.5 4.7-2.8 10.9-7.2 14s-8.8 7.1-8.8 9.7v-8c0-3.3 2.7-4.9 4.8-6.7s4.7-4 6.4-5.8c1.6-1.9 3.1-4.3 3.2-7.7 0-3.4-3.3-8.7-3.1-10.2-1.4 4.3-.7 9.1-2.9 12.6-2.1 3.5-8.3 6.3-8.3 9.1v-12.3c0-3 3.7-5.3 6.2-8 2.5-2.6 5.9-4.4 7.7-8.5 1.7-4.1-.5-9.3-2.2-12.5-.8 3.8-.6 10.2-4.3 12.7-3.7 2.4-7.3 5.5-7.3 9.3v-9.4c0-4.4 4.4-9.1 8.8-12.9s5-7.4 4.8-10.5-2-5.7-3.1-8.9c-1.2 4.1-.7 8.5-2.1 11.3s-2.7 3.6-4.3 5.4-4.1 4.7-4.1 6.4v-1.7c0-2.1 0-4.3.4-6.3.6-2.9 1.8-5.6 1.8-8.1-.1-4.9-3.3-8.5-3.2-13.4 0-4.9 1.7-9.2 2.9-14.2-7.4 5.4-11.6 10.4-10.9 18.7.8 8.4 8.4 13 7.6 24.9v2.3c0-2.8-2.8-6.1-7.4-9.2-.8-.5-1.5-1.2-2.1-1.9-2.9-3.5-3.8-9-3.4-13.3-2.1 2.5-4.7 7.6-2.9 13.1 1.6 4.7 3.9 5.7 6.3 7.8.4.3.8.7 1.2 1.1 2.9 2.9 8.4 7.6 8.4 11.2v8.6c0-1.6-1.4-2.5-3.4-4-2.5-1.9-4.2-3.2-6.2-5.1l-.7-.7c-2.2-2.2-4.3-5.9-4.9-12.1-1.2 1.4-3.8 7.4-.9 13 1.2 2.3 3.2 4.1 6.4 6.6.4.3.7.6 1.2.9 3.6 2.9 8.1 7.7 8.4 10.6v10.8c0-2.7-3.1-3.8-4.9-5.9-1.4-1.7-3.3-3.4-4.7-5.5-.3-.4-.6-.8-.8-1.3-1.3-2.7-1.2-6.2-2-9.3-1.3 2.8-3.5 6-3.1 9.6.4 3.5 2 5.9 5.7 9.3l.1.1c3.8 3.5 9.5 8.1 9.5 12.7v8.7c0-2.1-2.2-6.7-4.6-8.9-1.4-1.2-3.2-2.2-5-3.4-1.4-1-2.8-2.1-3.9-3.4-2.4-3-3.1-6.3-4.5-9.6-2.5 7.9-1 15.9 7.1 18.3.4.1.9.3 1.4.5 3.4 1.7 7.2 5.9 9.5 10.3v5.1c0 3-.7 5.8-1.9 8.5-1.8-3.1-3.2-7.3-5.6-9.8-.7-.7-1.4-1.3-2.1-1.9-1.9-1.5-4-2.7-5.7-4.8-2.3-2.8-2.8-6.5-4.6-10 0 3.4-1.5 6.4-1 9.7s3.4 8.1 7.8 9.2c1.3.3 2.4.9 3.5 1.8 2.6 2 4.8 5 7 7.1-1.7 3.2-4.2 6.2-7 8.7-6.4 5.7-14.9 9.4-21.1 9.9-13.6 1.1-24.1-.2-34 2.1-9.9-2.3-20.4-1-34-2.1-6.2-.5-14.7-4.1-21.1-9.9-2.8-2.5-5.3-5.5-7-8.7 2.2-2.1 4.4-5 7-7.1 1.1-.8 2.3-1.5 3.5-1.8 4.4-1 7.3-5.9 7.8-9.2s-.9-6.3-1-9.7c-1.7 3.5-2.2 7.2-4.6 10-1.7 2.1-3.8 3.2-5.7 4.8-.7.6-1.4 1.2-2.1 1.9-2.3 2.5-3.7 6.7-5.6 9.8-1.2-2.7-1.9-5.5-1.9-8.5v-5.1c2.3-4.4 6.1-8.6 9.5-10.3.5-.2.9-.4 1.4-.5 8.1-2.3 9.6-10.3 7.1-18.3-1.4 3.4-2.1 6.6-4.5 9.6-1.1 1.3-2.5 2.4-4 3.4-1.8 1.2-3.6 2.2-4.9 3.4-2.4 2.1-4.6 6.7-4.6 8.9v-8.7c0-4.6 5.7-9.2 9.5-12.7 0 0 .1 0 .1-.1 3.8-3.5 5.3-5.8 5.7-9.3.4-3.6-1.8-6.8-3.1-9.6-.7 3.2-.7 6.6-2 9.3-.2.5-.5.9-.8 1.3-1.4 2.1-3.3 3.7-4.7 5.5-1.7 2.1-4.9 3.2-4.9 5.9v-10.8c.2-2.9 4.7-7.7 8.4-10.6.4-.3.7-.6 1.1-.9 3.2-2.5 5.2-4.3 6.4-6.6 2.9-5.6.3-11.7-.9-13-.5 6.2-2.6 9.9-4.9 12.1l-.7.7c-2 1.9-3.6 3.2-6.1 5.1-2 1.5-3.4 2.3-3.4 4v-8.6c0-3.6 5.5-8.3 8.4-11.2.4-.4.8-.8 1.2-1.1 2.4-2.1 4.7-3.1 6.3-7.8 1.9-5.5-.7-10.6-2.8-13.1.4 4.2-.5 9.8-3.5 13.3-.6.7-1.3 1.4-2.1 1.9-4.6 3.1-7.4 6.4-7.4 9.2V121c-.7-11.9 6.8-16.5 7.6-24.9.7-8.3-3.5-13.3-10.9-18.7 1.2 5 2.8 9.4 2.9 14.2 0 4.9-3.2 8.5-3.3 13.4 0 2.5 1.3 5.2 1.8 8.1.4 2.1.4 4.3.4 6.3v1.7c0-1.7-2.4-4.6-4.1-6.4-1.6-1.8-2.9-2.6-4.3-5.4-1.4-2.7-.9-7.2-2.1-11.3-1.2 3.1-3 5.7-3.1 8.9-.1 3.1.4 6.7 4.8 10.5s8.7 8.5 8.8 12.9v9.4c0-3.8-3.5-6.9-7.3-9.3-3.7-2.4-3.5-8.8-4.3-12.7-1.7 3.2-4 8.4-2.2 12.5 1.7 4.1 5.2 5.9 7.7 8.5 2.5 2.7 6.2 5 6.2 8V159c0-2.8-6.2-5.6-8.3-9.1s-1.5-8.2-2.8-12.6c.1 1.5-3.2 6.8-3.1 10.2 0 3.4 1.5 5.8 3.2 7.7 1.6 1.9 4.3 4.1 6.4 5.8 2.1 1.8 4.8 3.4 4.8 6.7v8c0-2.6-4.3-6.6-8.8-9.7-4.4-3.1-6.8-9.3-7.2-14-.3 3.5-2.4 8.4-1 12s6 7.5 9.9 9.3 7.1 5.4 7.1 8.6v7.1c0 .7 0 1.4.1 2.1l-.1-.2c0-2.4-6.1-5.7-8.8-6.9s-4.6-5.6-7.3-10.7c-.2 3.5-1.8 8 .6 11.5s5.1 6 8.1 6.8c2.4.6 5.9 1.8 8.9 3.8 1.8 4.5 5.4 8.7 9.6 12.2 6.8 5.7 15.1 9.6 20.5 10.1 14 1.3 22.8.8 29.5 1.6-6 2.3-11.8 6.2-18.2 13.3l5.8 5.3c6.9-11 11.5-15.5 17.5-17.5 6 2 10.6 6.5 17.5 17.5l5.8-5.3c-6.4-7-12.2-11-18.2-13.3 6.7-.8 15.4-.3 29.4-1.6 5.4-.5 13.7-4.4 20.5-10.1 4.2-3.5 7.8-7.7 9.6-12.2 2.9-2.1 6.4-3.3 8.8-3.8 3-.7 5.7-3.2 8.1-6.8 2.4-3.5.8-7.9.6-11.5-2.7 5.1-4.6 9.5-7.3 10.7s-8.8 4.4-8.8 6.9l-.1.2c.1-.7.1-1.4.1-2.1z" style="fill-rule:evenodd;clip-rule:evenodd;fill:#008a3a" data-source="https://football-logos.cc"></path><path d="M119.3 77.7c-.8 0-1.7-.2-2.7-.2-4.8-.3-7-6.1-3.6-9.5 1.1-1.1 3.2-.3 3.2 1.3 0 1-.8 1.9-1.9 1.9h.5c2 0 3.6-1.6 3.6-3.6 0-1.7-1.3-3.2-3-3.5-3-.5-5.2-3-5.2-6.1 0 3-2.2 5.6-5.2 6.1-1.7.3-3 1.8-3 3.5 0 2 1.6 3.6 3.5 3.6h.6c-1 0-1.9-.8-1.9-1.9 0-1 .8-1.9 1.9-1.9.5 0 .9.2 1.3.6 1 1.1 1.6 2.5 1.6 3.9 0 2.9-2.2 5.4-5.2 5.6-.7 0-1.7.1-2.6.2-.7 0-1.1-.4-1.1-1 0-.4.3-.7.7-.9.6-.1 1.1-.7 1.1-1.4 0-.4-.2-.8-.5-1.1l-3.6-2.8-2.8 3.6c-.2.2-.3.5-.3.8 0 .8.6 1.4 1.4 1.4.6 0 1 .4 1 .9s-.4.8-.8.9c-.7.1-1.7.2-2.5.4-3.6.6-6.7-2-6.7-5.5 0-1 .3-2 .8-2.9 1-1.5 3.5-.9 3.5 1 0 .8-.7 1.6-1.5 1.8 1.8-.1 3.3-1.6 3.3-3.5 0-2-1.6-3.5-3.6-3.5h-.2c-3 .2-5.8-1.8-6.5-4.8.1.5.1.9.1 1.4 0 2.5-1.5 4.8-3.8 5.7-1.4.5-2.2 1.8-2.2 3.3 0 2 1.5 3.5 3.5 3.5.5 0 1 0 1.4-.2-1.2.3-2.3-.6-2.3-1.8 0-1 .8-1.9 1.8-1.9.4 0 .7.1 1 .2 1.6 1 2.7 2.8 2.7 4.8 0 2.4-1.6 4.6-3.9 5.3-.8.2-1.7.6-2.6.8-.7.2-1.3-.2-1.3-.9 0-.4.2-.7.6-.8.5-.2.7-.7.7-1.3 0-.5-.3-1-.7-1.3l-4.2-2-1.9 4.2c-.1.1-.1.3-.1.6 0 .8.6 1.4 1.4 1.4.1 0 .3 0 .4-.1.6-.1 1.1.3 1.1.9q0 .6-.6.9l-2.4.9c-3.8 1.6-7.9-1.1-7.9-5q0-.9.3-1.8c.7-2 3.6-1.5 3.6.6 0 .7-.4 1.4-1.1 1.7 1.5-.5 2.5-1.9 2.5-3.4 0-2-1.6-3.5-3.6-3.5-.3 0-.7 0-1.1.1-2.9 1-6.1-.3-7.4-3.1l12.6 25.2v91.7c0 6.6 5.4 12 12 12h21.2c4.1 0 7.5 3.4 7.5 7.4 0-4 3.3-7.4 7.4-7.4h21.3c6.6 0 12-5.4 12-12V95.5l12.6-25.2c-1.4 2.8-4.4 4.1-7.4 3.1-.3 0-.7-.1-1.1-.1-2 0-3.5 1.5-3.5 3.5 0 1.5 1 2.9 2.4 3.4-1.8-.8-1.1-3.5.8-3.5.8 0 1.5.5 1.7 1.2q.3.9.3 1.8c0 3-2.5 5.5-5.5 5.5-.8 0-1.5-.1-2.1-.4-.8-.3-1.6-.7-2.5-.9-1-.4-.7-1.9.3-1.9h.2c.1.1.2.1.3.1.8 0 1.4-.6 1.4-1.4 0-.2-.1-.4-.1-.6l-2-4.2-4.1 2c-.5.2-.8.7-.8 1.3s.4 1 .8 1.3c.3.2.5.5.5.8 0 .5-.4.9-.9.9h-.3c-.8-.2-1.6-.6-2.5-.8-4.6-1.4-5.4-7.5-1.4-10.1 1.3-.7 2.8.1 2.8 1.6 0 1-.8 1.8-1.9 1.8h-.4c.4.2.8.2 1.3.2 2 0 3.6-1.5 3.6-3.5 0-1.5-.9-2.8-2.2-3.3-2.9-1.2-4.4-4.2-3.7-7.1-.7 2.9-3.5 5-6.5 4.8h-.3c-2 0-3.5 1.5-3.5 3.5 0 1.9 1.4 3.5 3.3 3.5-2.2-.5-1.8-3.6.4-3.6.7 0 1.3.3 1.6.8.6.9.8 1.9.8 2.9 0 3.1-2.5 5.6-5.6 5.6-.3 0-.6 0-.9-.1-.9-.1-1.7-.2-2.6-.3-1.2-.2-1.1-1.9 0-1.9.7 0 1.4-.6 1.4-1.4 0-.3-.1-.6-.3-.8l-2.8-3.6-3.5 2.8c-.3.2-.6.7-.6 1.1 0 .7.5 1.3 1.1 1.4.4.1.7.5.7.9.1.7-.3 1.1-.9 1.1" class="st0"></path><path d="M148.1 95.8h-76c24.2-11.2 52-11.2 76 0" class="st3"></path><path d="M148.1 98.5h-76v89c0 5.1 4.2 9.2 9.3 9.2h21.2c2.8 0 5.6 1.2 7.5 3.2 1.9-2 4.6-3.2 7.4-3.2h21.3c5.1 0 9.2-4.1 9.2-9.2v-89z" class="st2"></path><path d="m110.7 145.1 13.4-19.9c4.9 2.2 10.6 0 12.8-4.9l4.3-10.1-9.1 9.2c-.2.3-.6.4-.9.4-.7 0-1.3-.6-1.3-1.3 0-.2 0-.4.1-.5l5.1-11.9-9.1 9.2c-.2.3-.6.4-.9.4-.7 0-1.3-.6-1.3-1.3 0-.2 0-.4.1-.6l5.1-11.9-7.7 7.8c-3.8 3.8-3.6 10 .3 13.7l-12.8 18.9-15-22.2 12.3-8.3-2.7-4.1-.7.4-6.4-4.5 1.8 7.7-.7.5-6.4-4.5 1.8 7.7-.7.4-6.4-4.5 1.8 7.7-.7.4-6.4-4.5 1.8 7.7-.7.5-6.4-4.5 1.8 7.7-.7.4 2.8 4.1 12.3-8.3 15.6 23.2-27.2 40.3c-.1.2-.2.5-.2.8 0 1.5 1.9 2.1 2.7.8l26.6-39.3 26.5 39.3c.3.4.7.7 1.3.7.8 0 1.4-.7 1.4-1.5 0-.3-.1-.6-.2-.8z" class="st3" data-source="https://football-logos.cc"></path><!-- source: https://football-logos.cc --></svg>