<svg xmlns="http://www.w3.org/2000/svg" xml:space="preserve" viewBox="1.37 -19.21 405.02 566"><!-- Source: https://football-logos.cc --><path d="M338.236 112.26c1.195-1.803 1.917-3.772 1.917-5.778a9.7 9.7 0 0 0-.149-1.689c-.398-2.248-1.615-4.156-3.393-5.512.602-1.272.985-2.64.985-4.059 0-3.958-2.464-7.482-6.047-8.917 1.584-1.75 2.502-3.987 2.502-6.39 0-4.543-3.124-8.328-7.432-9.32.616-1.29 1.034-2.665 1.034-4.112 0-5.297-4.31-9.606-9.605-9.606-.306 0-.613.094-.92.125.217-.805.364-1.625.364-2.468 0-5.298-4.31-9.608-9.604-9.608-.989 0-1.954.208-2.892.508-.016-5.286-4.317-9.58-9.607-9.58-1.595 0-3.097.488-4.48 1.235-1.342-3.788-4.869-6.492-8.949-6.492-2.912 0-5.573 1.361-7.395 3.597-1.74-1.54-3.968-2.448-6.313-2.448 0 0-.385.044-.672.08a9.5 9.5 0 0 0 .242-2.04c0-5.299-4.31-9.609-9.609-9.609-1.223 0-2.403.318-3.538.775a9.55 9.55 0 0 0-2.804-6.698 9.54 9.54 0 0 0-6.795-2.814c-1.68 0-3.26.542-4.71 1.375-1.347-3.757-4.86-6.439-8.928-6.439-2.193 0-4.246.767-5.938 2.11-1.743-2.762-4.742-4.552-8.049-4.552-.853 0-1.69.195-2.52.423-1.577-1.67-3.495-3.022-5.652-3.847l-.965-.309v-4.997h5.61a.935.935 0 0 0 .935-.935v-6.65a.936.936 0 0 0-.936-.935h-5.609v-4.956a.935.935 0 0 0-.936-.935h-7.006a.935.935 0 0 0-.935.935v4.956h-5.602a.934.934 0 0 0-.935.935v6.65c0 .517.418.935.935.935h5.602V.201l-.963.31c-2.156.823-4.074 2.174-5.654 3.846-.83-.229-1.668-.424-2.52-.424-3.308 0-6.307 1.79-8.049 4.551-1.69-1.343-3.747-2.109-5.938-2.109-4.065 0-7.58 2.682-8.928 6.438-1.446-.832-3.023-1.374-4.71-1.374-5.264 0-9.543 4.26-9.597 9.512-1.138-.457-2.319-.775-3.539-.775-5.299 0-9.61 4.311-9.61 9.61 0 .688.097 1.367.246 2.038l-.677-.079c-2.34 0-4.567.908-6.312 2.447-1.815-2.236-4.472-3.597-7.387-3.597-4.094 0-7.618 2.705-8.947 6.493-1.394-.748-2.899-1.237-4.492-1.237-5.287 0-9.586 4.294-9.603 9.58-.938-.3-1.896-.507-2.886-.507-5.298 0-9.608 4.311-9.608 9.608 0 .845.145 1.664.36 2.468-.308-.03-.615-.125-.92-.125-5.297 0-9.606 4.31-9.606 9.606 0 1.45.418 2.824 1.04 4.112-4.31.993-7.433 4.777-7.433 9.318 0 2.403.917 4.64 2.5 6.391-3.58 1.437-6.043 4.96-6.043 8.917 0 1.417.38 2.786.975 4.058-1.776 1.357-2.99 3.268-3.389 5.517a9.7 9.7 0 0 0-.148 1.686c0 2.006.721 3.975 1.916 5.778-1.277 1.32-1.982 2.985-1.982 4.906l.001.145c.065 3.753 2.58 7.405 4.888 9.21 4.331 3.383 9.048 3.847 13.077 1.452a16.6 16.6 0 0 0 13.055 2.742c-.045.29-.194.563-.194.854 0 .847.187 1.695.561 2.487.675 1.447 1.846 2.536 3.293 3.062.904.328 1.86.386 2.794.23a3 3 0 0 0-.238.5c-.278.771-.222 1.67.153 2.464.35.745.97 1.311 1.742 1.59.206.075.415.104.626.121l-1.348 5.506a.63.63 0 0 0 .305.7l5.53 3.077a3.42 3.42 0 0 0-.747 2.114c0 .478.1.962.312 1.423.84 1.77 2.721 2.511 4.382 1.737 27.567-13.008 57.224-19.602 88.15-19.602 30.928 0 60.586 6.594 88.152 19.6 1.672.78 3.552.036 4.377-1.73a3.4 3.4 0 0 0 .32-1.435c0-.768-.27-1.507-.749-2.107l5.525-3.079a.63.63 0 0 0 .305-.697l-1.349-5.535c1-.12 1.917-.7 2.38-1.684.214-.458.323-.95.323-1.434 0-.353-.059-.7-.176-1.024a2.8 2.8 0 0 0-.352-.653c2.505.425 5.073-.738 6.206-3.146a5.8 5.8 0 0 0 .554-2.473c0-.296-.15-.573-.197-.867a16.63 16.63 0 0 0 13.063-2.74c4.025 2.392 8.741 1.928 13.074-1.453 2.308-1.804 4.82-5.455 4.885-9.208l.001-.144c.002-1.92-.703-3.586-1.98-4.907M119.613 70.152c0 .216.035.424.05.637-4.672 1.038-9.998 2.431-14.328 4.132a34 34 0 0 0-7.733 4.271c4.688-9.978 12.627-16.999 25.632-23.765a9.44 9.44 0 0 0 2.438 5.798c-3.59 1.433-6.059 4.96-6.059 8.927m77.064-32.228c-.836 1.35-1.319 2.873-1.319 4.462 0 1.591.483 3.116 1.32 4.467v4.157c-15.289-2.203-34.878-.735-50.157 7.19 7.303-18.274 24.222-32.74 48.841-31.323.005 1.581.484 3.095 1.315 4.437zm14.4 13.086v-4.157c.833-1.346 1.317-2.87 1.317-4.467s-.484-3.118-1.317-4.462v-6.61c.828-1.336 1.308-2.849 1.313-4.437 24.62-1.416 41.537 13.05 48.84 31.323-15.279-7.925-34.867-9.393-50.153-7.19m91.34 23.911c-4.338-1.703-9.657-3.095-14.322-4.132.014-.213.05-.42.05-.637 0-3.966-2.47-7.493-6.062-8.926a9.46 9.46 0 0 0 2.437-5.8c13.004 6.766 20.942 13.786 25.63 23.765a34 34 0 0 0-7.734-4.27" style="fill:#00529f" data-source="https://football-logos.cc"></path><path d="M313.01 121.983c-1.408.08-2.814-.169-4.067-.86a7.59 7.59 0 0 1-3.933-6.643c0-.175.015-.352.026-.528.896-1.086 1.563-2.312 1.918-3.688a9.57 9.57 0 0 0-1.03-7.304 9.6 9.6 0 0 0-5.92-4.447c-5.146-1.327-10.418 1.788-11.755 6.944l-.229 1.616c-1.868 2.354-4.91 3.406-7.83 2.656-3.259-.839-5.463-3.682-5.625-6.957 6.893 1.341 11.112-1.236 12.83-7.928q.536-2.088.536-3.863c0-3.609-1.729-6.245-5.096-8.054.002-.109.011-.222.011-.33 0-1.356-.273-2.559-.693-3.668 2.95-1.226 5.123-3.815 5.771-6.89 4.592 1.022 9.797 2.39 14.033 4.052a32.6 32.6 0 0 1 9.274 5.58c2.351 5.904 3.714 12.818 4.411 21.231-2.36 1.016-4.274 3.271-5.648 6.855q-1.03 2.713-1.03 4.981c0 2.964 1.386 5.346 4.046 7.245m-54.66-23.378c-1.728 2.784-5.002 4.222-8.26 3.383-3.229-.829-5.527-3.718-5.662-7.044.726-1.374 1.146-2.896 1.146-4.46 0-5.324-4.329-9.655-9.65-9.655-5.324 0-9.655 4.331-9.655 9.654 0 .801.154 1.582.354 2.35-1.019 3.157-3.888 5.28-7.21 5.28-3.363 0-6.145-2.227-7.115-5.354 6.951-.438 10.385-3.972 10.385-10.854 0-5.855-2.459-9.266-7.455-10.455-.826-3.489-2.877-5.78-6.07-6.894 2-1.592 3.238-4.002 3.238-6.63 0-1.6-.484-3.12-1.317-4.462v-1.19c15.51-2.274 35.576-.729 50.825 7.687a57 57 0 0 1 3.036 12.941c-1.727.86-3.127 2.292-4.177 4.284-5.128-.085-8.34 2.63-9.799 8.294q-.535 2.08-.536 3.855c0 4.521 2.642 7.564 7.921 9.27m-59.754-34.049c-3.193 1.113-5.244 3.406-6.07 6.894-4.998 1.19-7.457 4.6-7.457 10.455 0 6.882 3.434 10.415 10.392 10.854-.977 3.127-3.76 5.354-7.122 5.354-3.274 0-6.204-2.17-7.202-5.28.196-.773.346-1.557.346-2.35a9.6 9.6 0 0 0-2.827-6.827 9.6 9.6 0 0 0-6.827-2.828c-5.325 0-9.656 4.331-9.656 9.654 0 1.547.424 3.071 1.153 4.461-.132 3.326-2.432 6.214-5.665 7.044-3.258.84-6.532-.599-8.255-3.383 5.28-1.706 7.922-4.749 7.922-9.27q0-1.777-.535-3.855c-1.46-5.664-4.672-8.379-9.8-8.294-1.044-1.99-2.447-3.422-4.18-4.285a57 57 0 0 1 3.035-12.939c15.25-8.417 35.317-9.96 50.83-7.688v1.191c-.837 1.347-1.32 2.87-1.32 4.462.001 2.628 1.24 5.037 3.238 6.63M124.92 82.927c-3.366 1.807-5.092 4.441-5.092 8.051q0 1.779.538 3.866c1.714 6.695 5.933 9.272 12.823 7.928-.155 3.274-2.36 6.117-5.628 6.957-2.919.75-5.965-.303-7.827-2.656l-.229-1.604c-1.333-5.168-6.606-8.284-11.758-6.956a9.6 9.6 0 0 0-5.91 4.441 9.6 9.6 0 0 0-1.036 7.308c.351 1.373 1.02 2.6 1.918 3.69.012.172.025.345.025.517a7.59 7.59 0 0 1-3.929 6.652c-1.254.69-2.662.94-4.067.861 2.658-1.898 4.044-4.28 4.044-7.24 0-1.515-.345-3.173-1.033-4.983-1.364-3.584-3.28-5.84-5.652-6.858.697-8.41 2.061-15.324 4.411-21.227a32.6 32.6 0 0 1 9.276-5.584c4.23-1.66 9.44-3.029 14.038-4.053.648 3.076 2.82 5.666 5.77 6.892-.422 1.115-.694 2.32-.694 3.67 0 .107.01.22.011.328m162.061 35.456a17.8 17.8 0 0 0 5.415-2.449c.87.564 1.798 1.018 2.807 1.275l.611.111a18 18 0 0 0 2.268 5.466 240 240 0 0 0-11.1-4.403m-83.105-14.788-5.49.102a16.45 16.45 0 0 0 5.49-7.387 16.46 16.46 0 0 0 5.491 7.387c-2.578-.049-5.49-.102-5.49-.102m-94.202 19.19a17.9 17.9 0 0 0 2.264-5.465l.615-.112c1.003-.256 1.934-.71 2.81-1.275a18 18 0 0 0 5.42 2.445 241 241 0 0 0-11.109 4.407m29.153-10.253c1.896-2.455 2.988-5.394 3.301-8.473a16.5 16.5 0 0 0 7.11 5.81 236 236 0 0 0-10.41 2.663" style="fill:#ee324e"></path><path d="M167.751 106.334a17.75 17.75 0 0 0 4.232-6.225c.674-.01 1.333-.144 1.99-.292a17.7 17.7 0 0 0 5.698 5.025c-3.976.398-7.953.895-11.92 1.492m60.329-1.492a17.8 17.8 0 0 0 5.707-5.025c.65.148 1.306.281 1.981.292a17.8 17.8 0 0 0 4.234 6.225 243 243 0 0 0-11.922-1.492m30.436 5.025a16.46 16.46 0 0 0 7.108-5.809c.315 3.08 1.41 6.018 3.305 8.474-3.425-.96-6.899-1.85-10.413-2.665" style="fill:#ee324e"></path><path d="M186.024 13.538a4.28 4.28 0 0 1 4.276-4.27 4.276 4.276 0 0 1 4.271 4.27 4.276 4.276 0 0 1-4.27 4.271 4.28 4.28 0 0 1-4.277-4.27m13.581 13.312a4.276 4.276 0 0 1 4.271-4.272 4.277 4.277 0 0 1 4.271 4.272 4.275 4.275 0 0 1-4.27 4.27 4.275 4.275 0 0 1-4.272-4.27m0 15.535a4.276 4.276 0 0 1 4.271-4.27 4.277 4.277 0 0 1 4.271 4.27 4.277 4.277 0 0 1-4.27 4.274 4.277 4.277 0 0 1-4.272-4.274m0 15.539a4.275 4.275 0 0 1 4.271-4.269 4.275 4.275 0 0 1 4.271 4.27 4.275 4.275 0 0 1-4.27 4.268 4.275 4.275 0 0 1-4.272-4.269m-27.559-41.942a4.24 4.24 0 0 1 1.251-3.019 4.24 4.24 0 0 1 3.016-1.25 4.275 4.275 0 0 1 4.27 4.27 4.274 4.274 0 0 1-4.27 4.267 4.27 4.27 0 0 1-4.267-4.268m-13.642 5.065a4.276 4.276 0 0 1 4.271-4.27 4.275 4.275 0 0 1 4.27 4.27 4.274 4.274 0 0 1-4.27 4.268 4.275 4.275 0 0 1-4.27-4.268m-13.139 8.738a4.277 4.277 0 0 1 4.273-4.27c1.138 0 2.21.444 3.015 1.25a4.274 4.274 0 0 1-3.016 7.291 4.277 4.277 0 0 1-4.272-4.27m-10.032 11.567a4.274 4.274 0 0 1 4.265-4.272 4.28 4.28 0 0 1 4.272 4.272 4.274 4.274 0 0 1-4.272 4.265 4.27 4.27 0 0 1-4.265-4.265m-13.707-1.152a4.274 4.274 0 0 1 4.274-4.265c1.14 0 2.21.444 3.016 1.25a4.23 4.23 0 0 1 1.25 3.016 4.276 4.276 0 0 1-4.266 4.275 4.28 4.28 0 0 1-4.274-4.276m-13.439 5.26a4.28 4.28 0 0 1 4.274-4.272 4.274 4.274 0 0 1 4.265 4.272 4.274 4.274 0 0 1-4.265 4.271 4.28 4.28 0 0 1-4.274-4.27m-12.491 9.071a4.277 4.277 0 0 1 4.275-4.27 4.273 4.273 0 0 1 4.265 4.27 4.274 4.274 0 0 1-4.265 4.272 4.28 4.28 0 0 1-4.275-4.272M85.44 66.483a4.274 4.274 0 0 1 4.264-4.273 4.28 4.28 0 0 1 4.274 4.273 4.28 4.28 0 0 1-4.274 4.27 4.273 4.273 0 0 1-4.265-4.27m-6.398 13.43a4.274 4.274 0 0 1 8.545 0 4.28 4.28 0 0 1-4.27 4.276 4.28 4.28 0 0 1-4.275-4.276m-3.545 15.309a4.273 4.273 0 0 1 4.271-4.265 4.27 4.27 0 0 1 4.27 4.265 4.276 4.276 0 0 1-4.27 4.272 4.277 4.277 0 0 1-4.27-4.272m53.008-40.387c0-1.14.445-2.213 1.253-3.02a4.24 4.24 0 0 1 3.017-1.253 4.276 4.276 0 0 1 4.27 4.273 4.275 4.275 0 0 1-4.27 4.27 4.276 4.276 0 0 1-4.27-4.27m-3.551 15.317a4.27 4.27 0 0 1 4.265-4.269 4.275 4.275 0 0 1 4.271 4.27 4.276 4.276 0 0 1-4.27 4.27 4.27 4.27 0 0 1-4.266-4.27m71.243 9.97c0-4.235 3.444-7.68 7.68-7.68 4.234 0 7.68 3.445 7.68 7.68s-3.445 7.682-7.68 7.682-7.68-3.447-7.68-7.682m-61.971 14.931a7.63 7.63 0 0 1-3.535-4.704c-1.052-4.103 1.43-8.298 5.531-9.35 4.101-1.056 8.297 1.424 9.354 5.528 1.056 4.097-1.423 8.291-5.525 9.35a7.64 7.64 0 0 1-5.825-.824m-59.541 23.857c-2.038-3.709-.682-8.39 3.027-10.434a7.64 7.64 0 0 1 5.852-.647 7.63 7.63 0 0 1 4.584 3.674v.001c2.042 3.707.685 8.386-3.024 10.431-3.708 2.041-8.39.684-10.439-3.025M213.19 13.538a4.25 4.25 0 0 1 1.25-3.02 4.23 4.23 0 0 1 3.012-1.25 4.277 4.277 0 0 1 4.275 4.27 4.28 4.28 0 0 1-4.275 4.271 4.27 4.27 0 0 1-4.262-4.27m13.986 2.444a4.27 4.27 0 0 1 4.263-4.269 4.277 4.277 0 0 1 4.273 4.27 4.276 4.276 0 0 1-4.273 4.267 4.27 4.27 0 0 1-4.263-4.268m13.634 5.065a4.275 4.275 0 0 1 4.267-4.27 4.28 4.28 0 0 1 4.273 4.27 4.276 4.276 0 0 1-4.273 4.268 4.274 4.274 0 0 1-4.268-4.268m13.137 8.738a4.275 4.275 0 0 1 4.268-4.27 4.277 4.277 0 0 1 4.272 4.27 4.276 4.276 0 0 1-4.272 4.271 4.275 4.275 0 0 1-4.268-4.27m10.036 11.567a4.276 4.276 0 0 1 4.271-4.272c1.14 0 2.21.444 3.017 1.25a4.25 4.25 0 0 1 1.251 3.022 4.27 4.27 0 0 1-4.268 4.265 4.273 4.273 0 0 1-4.27-4.265m13.702-1.152a4.275 4.275 0 0 1 4.274-4.265 4.27 4.27 0 0 1 4.268 4.265 4.277 4.277 0 0 1-4.268 4.275 4.28 4.28 0 0 1-4.274-4.275m13.439 5.26a4.274 4.274 0 0 1 4.265-4.272 4.28 4.28 0 0 1 4.275 4.272 4.28 4.28 0 0 1-4.275 4.271 4.274 4.274 0 0 1-4.265-4.27m12.49 9.071a4.277 4.277 0 0 1 4.273-4.27 4.273 4.273 0 0 1 4.266 4.27 4.274 4.274 0 0 1-4.266 4.272 4.28 4.28 0 0 1-4.273-4.272m10.162 11.949a4.28 4.28 0 0 1 4.272-4.273 4.28 4.28 0 0 1 4.271 4.273 4.276 4.276 0 0 1-4.27 4.27 4.277 4.277 0 0 1-4.273-4.27m6.399 13.43a4.27 4.27 0 0 1 4.268-4.266 4.274 4.274 0 0 1 4.271 4.266 4.28 4.28 0 0 1-4.27 4.276 4.276 4.276 0 0 1-4.269-4.276m3.541 15.309a4.269 4.269 0 1 1 4.275 4.272 4.28 4.28 0 0 1-4.275-4.272m-53.009-40.387a4.277 4.277 0 0 1 4.271-4.273 4.275 4.275 0 0 1 4.27 4.273 4.274 4.274 0 0 1-4.27 4.27 4.276 4.276 0 0 1-4.27-4.27m3.552 15.317a4.275 4.275 0 0 1 4.272-4.269 4.276 4.276 0 0 1 4.271 4.27 4.276 4.276 0 0 1-4.27 4.27 4.275 4.275 0 0 1-4.274-4.27m-6.551 25.724a7.63 7.63 0 0 1-4.7-3.532 7.62 7.62 0 0 1-.823-5.816 7.63 7.63 0 0 1 3.524-4.7 7.63 7.63 0 0 1 5.824-.83 7.63 7.63 0 0 1 4.701 3.532 7.62 7.62 0 0 1 .825 5.82 7.64 7.64 0 0 1-3.532 4.705 7.63 7.63 0 0 1-5.819.821m54.922 26.06a7.64 7.64 0 0 1-3.677-4.6 7.62 7.62 0 0 1 .654-5.83l.001-.002a7.62 7.62 0 0 1 4.586-3.675 7.62 7.62 0 0 1 5.845.647 7.62 7.62 0 0 1 3.675 4.582 7.65 7.65 0 0 1-.646 5.854c-2.043 3.71-6.727 5.066-10.438 3.024m-150.5 4.735a4.24 4.24 0 0 1 1.252-3.019 4.24 4.24 0 0 1 3.017-1.252 4.28 4.28 0 0 1 4.276 4.271 4.28 4.28 0 0 1-4.276 4.272 4.276 4.276 0 0 1-4.27-4.272m-52.968 14.316c0-1.14.444-2.214 1.251-3.02a4.24 4.24 0 0 1 3.015-1.25 4.28 4.28 0 0 1 4.274 4.271 4.28 4.28 0 0 1-4.274 4.273 4.274 4.274 0 0 1-4.266-4.274" style="fill:#fff"></path><path d="m203.876 120.191 13.668 5.093-13.668 5.097-13.664-5.097zm-95.221 21.55 5.745 2.112-1.672 6.542-5.449-3.032z" style="fill:#ee324e"></path><path d="M227.085 126.672a4.274 4.274 0 0 1 4.266-4.27 4.28 4.28 0 0 1 4.28 4.27 4.28 4.28 0 0 1-4.28 4.272 4.274 4.274 0 0 1-4.266-4.272m52.975 14.316a4.274 4.274 0 0 1 4.265-4.272 4.274 4.274 0 0 1 4.266 4.272 4.275 4.275 0 0 1-4.266 4.273 4.273 4.273 0 0 1-4.266-4.273" style="fill:#fff"></path><path d="M300.714 137.937c-30.396-14.323-62.977-21.586-96.838-21.586-33.862 0-66.442 7.263-96.839 21.586a.94.94 0 0 0-.507.545c-.11.307-.08.683.086 1.035a1.206 1.206 0 0 0 1.605.583.94.94 0 0 1 1.246.453l.083.18 5.813 2.137a.63.63 0 0 1 .392.745l-1.726 6.752.194.417a.934.934 0 0 1-.45 1.24 1.54 1.54 0 0 0-.737 2.027c.335.7 1.09 1.21 1.894.835 27.815-13.124 57.741-19.778 88.945-19.778 31.205 0 61.133 6.654 88.946 19.777.81.377 1.563-.13 1.89-.83a1.53 1.53 0 0 0-.734-2.03.933.933 0 0 1-.448-1.24l.195-.42-1.727-6.75a.63.63 0 0 1 .392-.745l5.811-2.135.084-.182a.93.93 0 0 1 1.245-.453c.605.285 1.33.022 1.614-.584.163-.347.193-.72.082-1.028a.94.94 0 0 0-.51-.55m-177.288 8.58c-3.045 0-5.52-2.48-5.52-5.529 0-1.477.574-2.865 1.618-3.91a5.48 5.48 0 0 1 3.903-1.618 5.535 5.535 0 0 1 5.53 5.528 5.536 5.536 0 0 1-5.53 5.53m41.498-17.73-13.529 9.44a.63.63 0 0 1-.426.11l-16.417-1.735a.627.627 0 0 1-.293-1.14l13.537-9.436a.63.63 0 0 1 .425-.109l16.41 1.728a.63.63 0 0 1 .294 1.141M176.4 132.2a5.533 5.533 0 0 1-5.525-5.528c0-1.475.575-2.863 1.621-3.908a5.5 5.5 0 0 1 3.905-1.619 5.535 5.535 0 0 1 5.532 5.527 5.54 5.54 0 0 1-5.533 5.528m43.163-6.327-15.466 5.767a.63.63 0 0 1-.439 0l-15.46-5.767a.628.628 0 0 1 0-1.178l15.46-5.764a.63.63 0 0 1 .44 0l15.465 5.764a.628.628 0 0 1 0 1.178m11.79 6.327a5.53 5.53 0 0 1-5.522-5.528 5.53 5.53 0 0 1 5.521-5.527c3.052 0 5.535 2.48 5.535 5.527s-2.483 5.528-5.535 5.528m41.846 4.403-16.407 1.734a.62.62 0 0 1-.425-.109l-13.538-9.44a.63.63 0 0 1 .292-1.14l16.412-1.729a.62.62 0 0 1 .425.11l13.534 9.435a.627.627 0 0 1-.293 1.139m11.126 9.914c-3.044 0-5.52-2.48-5.52-5.529s2.477-5.528 5.52-5.528a5.53 5.53 0 0 1 5.521 5.528 5.53 5.53 0 0 1-5.52 5.53" style="fill:#febe10"></path><path d="M336.494 113.133a.934.934 0 0 1-.14-1.286c1.572-2.047 2.215-4.436 1.808-6.727-.354-1.993-1.484-3.682-3.18-4.753a.936.936 0 0 1-.308-1.263 7.7 7.7 0 0 0 1.05-3.882c0-3.637-2.58-6.819-6.138-7.567a.936.936 0 0 1-.384-1.652 7.68 7.68 0 0 0 2.978-6.089 7.7 7.7 0 0 0-6.998-7.697.935.935 0 0 1-.69-1.447 7.74 7.74 0 0 0 1.29-4.287c0-4.266-3.47-7.736-7.735-7.736-.67 0-1.354.093-2.03.277a.935.935 0 0 1-1.096-1.292 7.6 7.6 0 0 0 .7-3.198c0-4.267-3.47-7.739-7.734-7.739-1.22 0-2.432.293-3.504.846-.303.156-.662.106-.945-.082a.98.98 0 0 1-.409-.883l.1-1.215c0-4.268-3.473-7.74-7.74-7.74a7.63 7.63 0 0 0-4.417 1.4.934.934 0 0 1-1.45-.564c-.78-3.53-3.959-6.092-7.563-6.092a7.73 7.73 0 0 0-6.514 3.567.937.937 0 0 1-1.479.121 7.72 7.72 0 0 0-5.715-2.538l-1.74.204c-.327.038-.7-.088-.902-.349-.2-.259-.302-.597-.183-.903a7.6 7.6 0 0 0 .527-2.78c0-4.269-3.474-7.74-7.74-7.74-1.436 0-2.85.407-4.094 1.18-.3.186-.678.151-.979-.035-.302-.185-.468-.56-.437-.914l.11-1.23a7.7 7.7 0 0 0-2.267-5.473 7.7 7.7 0 0 0-5.472-2.267 7.68 7.68 0 0 0-4.618 1.542.935.935 0 0 1-1.472-.549c-.775-3.51-3.95-6.058-7.548-6.058a7.7 7.7 0 0 0-5.479 2.274.935.935 0 0 1-1.509-.263 7.77 7.77 0 0 0-7-4.453c-.846 0-1.689.143-2.51.423a.93.93 0 0 1-1.004-.269 13.54 13.54 0 0 0-5.325-3.7l-1.467-.47c-.388-.124-.702-.499-.702-.905v-6.612c0-.517.42-.935.935-.935h5.61v-4.78h-5.61a.935.935 0 0 1-.935-.935v-4.956h-5.137v4.956a.934.934 0 0 1-.935.935h-5.603v4.78h5.603c.516 0 .935.418.935.935V.88c0 .407-.314.782-.702.906l-1.465.47a13.55 13.55 0 0 0-5.327 3.7.94.94 0 0 1-1.006.268 7.7 7.7 0 0 0-2.508-.423 7.77 7.77 0 0 0-7 4.453.94.94 0 0 1-1.509.263 7.7 7.7 0 0 0-5.479-2.274c-3.598 0-6.772 2.548-7.55 6.058a.935.935 0 0 1-1.473.546 7.65 7.65 0 0 0-4.615-1.54c-4.266 0-7.736 3.472-7.736 7.738l.113 1.218c.033.354-.132.734-.434.921-.3.187-.676.227-.978.041a7.8 7.8 0 0 0-4.1-1.18c-4.269 0-7.74 3.471-7.74 7.74 0 .95.177 1.885.527 2.782.12.306.017.642-.184.902-.2.26-.575.386-.9.348l-1.746-.204a7.73 7.73 0 0 0-5.715 2.54.935.935 0 0 1-1.48-.125 7.7 7.7 0 0 0-6.503-3.565c-3.616 0-6.793 2.56-7.554 6.088a.933.933 0 0 1-1.449.568 7.7 7.7 0 0 0-4.435-1.4c-4.266 0-7.736 3.471-7.736 7.74l.106 1.2a.99.99 0 0 1-.403.89c-.28.19-.639.246-.942.092a7.7 7.7 0 0 0-3.514-.849c-4.267 0-7.739 3.472-7.739 7.74 0 1.111.233 2.188.692 3.2a.935.935 0 0 1-1.097 1.288 7.7 7.7 0 0 0-2.025-.277c-4.266 0-7.736 3.471-7.736 7.736 0 1.533.45 3.014 1.296 4.284a.936.936 0 0 1-.689 1.45c-3.99.38-7 3.688-7 7.697A7.7 7.7 0 0 0 78.542 86a.934.934 0 0 1-.384 1.651c-3.554.75-6.133 3.931-6.133 7.567 0 1.368.36 2.712 1.041 3.885a.934.934 0 0 1-.309 1.26c-1.694 1.072-2.822 2.762-3.175 4.756-.406 2.292.236 4.68 1.81 6.724a.936.936 0 0 1-.14 1.286c-1.26 1.056-1.884 2.451-1.855 4.146.052 3.001 2.137 6.18 4.17 7.77 2.265 1.77 6.77 4.266 11.47 1.086a.94.94 0 0 1 1.095.034 14.78 14.78 0 0 0 13.354 2.42.936.936 0 0 1 1.12 1.297 3.92 3.92 0 0 0 0 3.376c.466 1 1.261 1.744 2.24 2.1a3.72 3.72 0 0 0 2.857-.146c30.792-14.517 63.82-21.878 98.165-21.878 34.351 0 67.391 7.361 98.21 21.875 1.932.78 4.163-.043 5.061-1.954a3.94 3.94 0 0 0-.008-3.375.935.935 0 0 1 1.12-1.296 14.8 14.8 0 0 0 13.36-2.42.94.94 0 0 1 1.095-.034c4.693 3.178 9.2.683 11.468-1.087 2.031-1.588 4.115-4.766 4.167-7.766.037-1.692-.587-3.088-1.847-4.144m-2.983-17.91c0 3.047-2.476 5.527-5.52 5.527a5.535 5.535 0 0 1-5.53-5.528c0-3.044 2.48-5.52 5.53-5.52a5.527 5.527 0 0 1 5.52 5.52m-9.068-20.83a5.53 5.53 0 0 1 5.526 5.52 5.536 5.536 0 0 1-5.526 5.532c-3.046 0-5.523-2.48-5.523-5.532a5.527 5.527 0 0 1 5.523-5.52m-6.395-13.439a5.534 5.534 0 0 1 5.527 5.53 5.53 5.53 0 0 1-5.527 5.524 5.533 5.533 0 0 1-5.528-5.525 5.534 5.534 0 0 1 5.528-5.529m.46 49.945v.002zm-10.62-61.89a5.53 5.53 0 0 1 5.521 5.525c0 3.048-2.477 5.528-5.52 5.528a5.535 5.535 0 0 1-5.53-5.528 5.533 5.533 0 0 1 5.53-5.525m-12.499-9.075a5.535 5.535 0 0 1 5.531 5.528 5.535 5.535 0 0 1-5.53 5.526 5.53 5.53 0 0 1-5.522-5.526 5.53 5.53 0 0 1 5.521-5.528m-13.43-5.253a5.53 5.53 0 0 1 5.523 5.521c0 3.05-2.478 5.531-5.523 5.531a5.536 5.536 0 0 1-5.53-5.53c0-3.045 2.48-5.522 5.53-5.522m-6.98 14.625a5.533 5.533 0 0 1 5.523 5.53 5.53 5.53 0 0 1-5.524 5.524 5.53 5.53 0 0 1-5.526-5.525 5.53 5.53 0 0 1 5.526-5.529m-9.908 31.44a8.88 8.88 0 0 1 6.776-.964 8.88 8.88 0 0 1 5.47 4.11 8.87 8.87 0 0 1 .96 6.771 8.9 8.9 0 0 1-4.11 5.474 8.88 8.88 0 0 1-6.77.956 8.88 8.88 0 0 1-5.47-4.11 8.88 8.88 0 0 1-.958-6.767 8.87 8.87 0 0 1 4.102-5.47m13.461-5.068a5.533 5.533 0 0 1-5.529-5.526 5.533 5.533 0 0 1 5.53-5.525 5.53 5.53 0 0 1 5.526 5.525 5.53 5.53 0 0 1-5.527 5.526m-10.28-39.852c1.475 0 2.86.574 3.905 1.618a5.5 5.5 0 0 1 1.618 3.911 5.53 5.53 0 0 1-5.523 5.521 5.53 5.53 0 0 1-5.527-5.52 5.534 5.534 0 0 1 5.527-5.53M258.213 24.26a5.534 5.534 0 0 1 5.528 5.527 5.533 5.533 0 0 1-5.528 5.527 5.53 5.53 0 0 1-5.523-5.527 5.53 5.53 0 0 1 5.523-5.527m-13.137-8.739a5.534 5.534 0 0 1 5.53 5.527 5.533 5.533 0 0 1-5.53 5.523 5.53 5.53 0 0 1-5.523-5.523 5.53 5.53 0 0 1 5.523-5.527m-13.637-5.062a5.533 5.533 0 0 1 5.53 5.525 5.53 5.53 0 0 1-5.53 5.523 5.527 5.527 0 0 1-5.519-5.523 5.53 5.53 0 0 1 5.52-5.525m-17.888-.828a5.47 5.47 0 0 1 3.9-1.617 5.534 5.534 0 0 1 5.531 5.525 5.534 5.534 0 0 1-5.53 5.526c-3.043 0-5.519-2.479-5.519-5.526a5.5 5.5 0 0 1 1.618-3.908m-9.675 11.693a5.533 5.533 0 0 1 5.527 5.528 5.53 5.53 0 0 1-5.527 5.525 5.53 5.53 0 0 1-5.527-5.525 5.534 5.534 0 0 1 5.527-5.528m-5.527 36.602a5.53 5.53 0 0 1 5.527-5.525 5.53 5.53 0 0 1 5.527 5.525 5.53 5.53 0 0 1-5.527 5.524 5.53 5.53 0 0 1-5.527-5.524m14.464 22.198c0 4.928-4.008 8.938-8.937 8.938-4.927 0-8.935-4.009-8.935-8.938 0-4.928 4.008-8.937 8.935-8.937 4.93 0 8.937 4.01 8.937 8.937m-8.937-32.207a5.534 5.534 0 0 1-5.527-5.53 5.533 5.533 0 0 1 5.527-5.527 5.53 5.53 0 0 1 5.527 5.527 5.533 5.533 0 0 1-5.527 5.53M190.3 8.013a5.53 5.53 0 0 1 5.526 5.525 5.53 5.53 0 0 1-5.526 5.526 5.536 5.536 0 0 1-5.532-5.526c0-3.046 2.482-5.525 5.532-5.525m-17.89 4.063a5.5 5.5 0 0 1 3.903-1.617 5.53 5.53 0 0 1 5.525 5.525 5.53 5.53 0 0 1-5.525 5.523 5.53 5.53 0 0 1-5.523-5.523c0-1.477.575-2.865 1.62-3.908m-9.735 3.444a5.53 5.53 0 0 1 5.525 5.527 5.53 5.53 0 0 1-5.525 5.523 5.53 5.53 0 0 1-5.527-5.523 5.533 5.533 0 0 1 5.527-5.527m-13.135 8.74c1.474 0 2.861.574 3.904 1.618a5.53 5.53 0 0 1-3.904 9.435 5.534 5.534 0 0 1-5.529-5.527 5.534 5.534 0 0 1 5.53-5.527M139.5 35.825a5.534 5.534 0 0 1 5.527 5.528 5.53 5.53 0 0 1-5.528 5.521 5.53 5.53 0 0 1-5.52-5.52 5.53 5.53 0 0 1 5.52-5.529m-3.59 43.956c4.77-1.228 9.653 1.658 10.882 6.433 1.228 4.768-1.656 9.648-6.428 10.88a8.88 8.88 0 0 1-6.777-.959 8.88 8.88 0 0 1-4.112-5.473c-1.225-4.774 1.662-9.656 6.434-10.88m-12.212-9.63a5.53 5.53 0 0 1 5.521-5.525 5.533 5.533 0 0 1 5.527 5.525 5.533 5.533 0 0 1-5.527 5.526 5.53 5.53 0 0 1-5.52-5.526m9.077-20.846a5.533 5.533 0 0 1 5.525 5.53 5.53 5.53 0 0 1-5.525 5.524 5.53 5.53 0 0 1-5.526-5.525c0-1.476.576-2.864 1.621-3.909a5.5 5.5 0 0 1 3.905-1.62M125.8 34.681c1.475 0 2.861.574 3.904 1.617a5.5 5.5 0 0 1 1.618 3.904c0 3.05-2.477 5.531-5.52 5.531a5.537 5.537 0 0 1-5.53-5.53c-.002-3.045 2.478-5.522 5.528-5.522m-13.439 5.253a5.53 5.53 0 0 1 5.521 5.528 5.53 5.53 0 0 1-5.52 5.526 5.534 5.534 0 0 1-5.53-5.526 5.535 5.535 0 0 1 5.53-5.528M99.873 49.01a5.53 5.53 0 0 1 5.521 5.525c0 3.048-2.477 5.528-5.52 5.528a5.536 5.536 0 0 1-5.532-5.528 5.533 5.533 0 0 1 5.531-5.525M89.704 60.954c3.05 0 5.53 2.48 5.53 5.53a5.533 5.533 0 0 1-5.53 5.524 5.53 5.53 0 0 1-5.52-5.525c0-3.049 2.475-5.529 5.52-5.529M77.785 79.913c0-3.045 2.48-5.52 5.53-5.52a5.53 5.53 0 0 1 5.527 5.52c0 3.05-2.48 5.532-5.527 5.532a5.536 5.536 0 0 1-5.53-5.532m1.982 9.788a5.53 5.53 0 0 1 5.525 5.521 5.533 5.533 0 0 1-5.525 5.528 5.534 5.534 0 0 1-5.527-5.528 5.53 5.53 0 0 1 5.527-5.52m5.964 33.336c-4.314 2.374-9.763.796-12.146-3.519-2.372-4.317-.793-9.763 3.521-12.14a8.9 8.9 0 0 1 6.808-.753 8.87 8.87 0 0 1 5.335 4.276 8.946 8.946 0 0 1-3.518 12.136m38.882-4.095a237 237 0 0 0-17.343 6.88.935.935 0 0 1-1.063-1.493c2.08-2.232 3.521-5.07 4.062-7.993.071-.383.415-.688.798-.756l1.021-.183a7.7 7.7 0 0 0 2.724-1.308.935.935 0 0 1 1.112-.005c2.401 1.76 5.398 2.84 8.441 3.042a.935.935 0 0 1 .248 1.816m3.414-7.402a9.44 9.44 0 0 1-9.919-3.482c-.095-.126-.165-.37-.187-.526l-.229-1.607c-1.073-4.16-5.325-6.672-9.478-5.6a7.74 7.74 0 0 0-4.767 3.58 7.7 7.7 0 0 0-.834 5.893 7.6 7.6 0 0 0 1.724 3.225.93.93 0 0 1 .234.534 9.46 9.46 0 0 1-4.854 9.204 9.46 9.46 0 0 1-7.82.586.936.936 0 0 1-.097-1.715c4.923-2.46 6.221-5.917 4.212-11.208-1.288-3.382-3.026-5.427-5.168-6.075a.935.935 0 0 1-.66-.968c2.057-26.3 10.204-38.528 33.53-50.322.3-.152.675-.158.955.028.28.187.456.481.433.817l-.065.93a7.68 7.68 0 0 0 2.985 6.091.934.934 0 0 1-.385 1.653c-3.566.742-6.155 3.927-6.155 7.574 0 3.398 2.276 6.446 5.534 7.413a.935.935 0 0 1 .57 1.318c-.632 1.248-.895 2.757-.78 4.485a.935.935 0 0 1-.53.904c-4.124 1.973-5.388 5.09-4.099 10.105 1.547 6.03 5.166 7.988 11.742 6.347a.935.935 0 0 1 1.158.821 9.396 9.396 0 0 1-7.05 9.995m24.792-.6a236 236 0 0 0-16.678 4.272.936.936 0 0 1-.873-1.608 14.74 14.74 0 0 0 5.084-12.818.935.935 0 0 1 1.793-.46 14.75 14.75 0 0 0 10.664 8.784.936.936 0 0 1 .01 1.83m30.467-4.598a240 240 0 0 0-18.64 2.332.935.935 0 0 1-.656-1.71c3.031-1.936 5.343-4.812 6.511-8.096a.906.906 0 0 1 .896-.622l.431.017c.771 0 1.534-.112 2.27-.333a.935.935 0 0 1 1.044.373c1.954 2.895 4.921 5.104 8.354 6.22a.935.935 0 0 1-.21 1.82m-4.003-13.098a.93.93 0 0 1 0-.538 7.7 7.7 0 0 0 .33-2.224c0-2.08-.81-4.035-2.28-5.505a7.73 7.73 0 0 0-5.505-2.28c-4.293 0-7.787 3.492-7.787 7.785 0 1.348.365 2.692 1.053 3.886a.95.95 0 0 1 .125.487c-.092 4.217-3.009 7.895-7.093 8.943a9.4 9.4 0 0 1-10.999-5.347.937.937 0 0 1 .617-1.28c6.552-1.743 8.786-5.2 7.238-11.227-1.293-5.013-3.905-7.134-8.47-6.877a.94.94 0 0 1-.902-.54c-1-2.15-2.359-3.536-4.156-4.236a.935.935 0 0 1-.59-.966c2.641-25.82 22.57-50.695 55.55-48.28.51.038.891.523.86 1.034l-.047.771c0 1.34.4 2.635 1.157 3.748a.94.94 0 0 1 .162.526v6.99a.94.94 0 0 1-.162.525 6.65 6.65 0 0 0 0 7.498.94.94 0 0 1 .162.526v6.99a.93.93 0 0 1-.163.526 6.6 6.6 0 0 0-1.156 3.745 6.65 6.65 0 0 0 3.961 6.077.936.936 0 0 1-.224 1.778c-3.915.65-6.074 2.751-6.796 6.612a.94.94 0 0 1-.739.745c-4.489.884-6.492 3.587-6.492 8.767 0 6.221 3.024 9.02 9.804 9.071a.935.935 0 0 1 .916 1.085 9.41 9.41 0 0 1-9.32 7.921c-4.139.001-7.863-2.769-9.054-6.736m34.264 11.665a.945.945 0 0 1-.937.72l-8.734-.164-8.735.163a.945.945 0 0 1-.936-.719.93.93 0 0 1 .498-1.059 14.71 14.71 0 0 0 8.248-11.213.936.936 0 0 1 1.852 0c.694 4.881 3.777 9.072 8.248 11.213a.93.93 0 0 1 .496 1.06m30.59 3.177a.93.93 0 0 1-1.026.588 240 240 0 0 0-18.645-2.332.936.936 0 0 1-.21-1.82c3.428-1.115 6.397-3.325 8.363-6.222a.94.94 0 0 1 1.047-.37c.725.22 1.484.332 2.258.332l.43-.017a.91.91 0 0 1 .896.621c1.173 3.29 3.487 6.166 6.517 8.097a.936.936 0 0 1 .37 1.123m5.488-4.287c-4.08-1.048-6.997-4.725-7.092-8.942a.95.95 0 0 1 .128-.492 7.7 7.7 0 0 0 1.045-3.883c0-4.292-3.492-7.785-7.782-7.785-4.292 0-7.784 3.492-7.784 7.785 0 .756.111 1.501.333 2.216a.9.9 0 0 1 .001.548c-1.218 4.03-4.859 6.735-9.063 6.735a9.4 9.4 0 0 1-9.312-7.922.933.933 0 0 1 .915-1.085c6.776-.052 9.796-2.85 9.796-9.07 0-5.18-2-7.884-6.489-8.768a.94.94 0 0 1-.74-.745c-.722-3.86-2.88-5.962-6.794-6.612a.936.936 0 0 1-.224-1.778 6.65 6.65 0 0 0 3.961-6.077 6.6 6.6 0 0 0-1.153-3.743.93.93 0 0 1-.164-.529v-6.989c0-.188.057-.373.164-.528a6.6 6.6 0 0 0 1.153-3.75 6.6 6.6 0 0 0-1.153-3.745.93.93 0 0 1-.164-.527v-6.989c0-.188.057-.373.164-.528a6.6 6.6 0 0 0 1.153-3.746l-.045-.75c-.03-.51.35-1.018.86-1.055 32.978-2.415 52.907 22.461 55.548 48.28a.934.934 0 0 1-.59.966c-1.786.696-3.146 2.083-4.153 4.238a.94.94 0 0 1-.9.538c-4.564-.257-7.178 1.864-8.469 6.876-1.55 6.027.683 9.49 7.237 11.228a.935.935 0 0 1 .617 1.281 9.41 9.41 0 0 1-11.004 5.347m23.072 10.964a.936.936 0 0 1-1.087.45 234 234 0 0 0-16.675-4.272.935.935 0 0 1 .011-1.829 14.73 14.73 0 0 0 10.661-8.784.934.934 0 0 1 1.793.46 14.77 14.77 0 0 0 5.086 12.818c.334.287.421.77.211 1.157m28.923 10.746a.936.936 0 0 1-1.14.312 237 237 0 0 0-17.343-6.878.934.934 0 0 1 .248-1.815c3.081-.204 6.003-1.256 8.448-3.043a.935.935 0 0 1 1.114.008 7.6 7.6 0 0 0 2.72 1.306l1.018.183c.382.068.724.373.795.755.55 2.926 1.992 5.765 4.063 7.994a.93.93 0 0 1 .077 1.178m15.286-21.16c-2.129.646-3.867 2.69-5.166 6.075-2.008 5.291-.707 8.748 4.22 11.208a.935.935 0 0 1-.096 1.715 9.452 9.452 0 0 1-12.678-9.791.93.93 0 0 1 .233-.532 7.7 7.7 0 0 0 1.724-3.229 7.7 7.7 0 0 0-.829-5.885 7.74 7.74 0 0 0-4.775-3.586c-4.149-1.07-8.4 1.443-9.476 5.588l-.229 1.622c-.022.157-.093.398-.188.524a9.45 9.45 0 0 1-9.923 3.481 9.41 9.41 0 0 1-7.05-9.99.934.934 0 0 1 1.156-.825c6.581 1.641 10.206-.316 11.753-6.347 1.29-5.012.023-8.128-4.103-10.105a.93.93 0 0 1-.529-.904c.115-1.765-.14-3.23-.78-4.482a.935.935 0 0 1 .568-1.322c3.26-.967 5.536-4.016 5.536-7.413 0-3.646-2.589-6.83-6.155-7.574a.94.94 0 0 1-.723-.704.94.94 0 0 1 .338-.949 7.67 7.67 0 0 0 2.982-6.09l-.063-.919c-.022-.335.154-.637.435-.822.28-.186.657-.186.956-.035 23.321 11.793 31.467 24.021 33.522 50.322a.93.93 0 0 1-.66.97m17.261 15.17c-2.377 4.316-7.824 5.894-12.145 3.518a8.9 8.9 0 0 1-4.276-5.353 8.87 8.87 0 0 1 .761-6.784 8.86 8.86 0 0 1 5.336-4.276 8.87 8.87 0 0 1 6.801.752 8.86 8.86 0 0 1 4.275 5.333 8.88 8.88 0 0 1-.752 6.81" style="fill:#febe10" data-source="https://football-logos.cc"></path><path d="m299.103 141.741 1.371 5.622-5.444 3.032-1.674-6.542z" style="fill:#ee324e"></path><path d="M1.365 344.39c0 111.606 90.845 202.404 202.51 202.404s202.511-90.798 202.511-202.405c0-111.722-90.846-202.614-202.51-202.614-111.665 0-202.51 90.892-202.51 202.614" style="fill:#00529f"></path><path d="M7.108 344.39c0 54.221 22.062 103.373 57.697 138.992 35.64 35.617 84.815 57.67 139.071 57.67 54.251 0 103.43-22.053 139.07-57.67 35.636-35.619 57.697-84.77 57.697-138.993 0-54.282-22.062-103.486-57.697-139.145-35.64-35.654-84.819-57.728-139.07-57.728-54.252 0-103.43 22.074-139.069 57.728-35.635 35.66-57.699 84.863-57.699 139.145" style="fill:#febe10"></path><path d="M24.351 344.283c.004-98.996 80.528-179.518 179.525-179.523 98.997.005 179.52 80.527 179.523 179.523-.004 99-80.526 179.522-179.523 179.527-98.997-.005-179.52-80.528-179.525-179.527" style="fill:#00529f"></path><path d="M30.095 344.284c0-95.822 77.958-173.779 173.781-173.779s173.781 77.957 173.781 173.78-77.958 173.782-173.78 173.782c-95.824 0-173.782-77.959-173.782-173.783" style="fill:#fff"></path><path d="M370.452 343.646c0-60.625-33.114-116.653-86.42-146.219l-1.114-.618-38.785 40.302h-.198l-.622.623c-12.407-4.604-25.65-7.077-39.413-7.272h-.002c-14.049 0-28.583 2.603-41.152 7.268l-38.778-40.498-1.118.626c-.4.225-.79.465-1.19.692l-.066-.069c-30.309 17.201-54.727 43.616-69.426 75.413q.042.044.085.086c-9.974 21.533-15.392 45.238-15.392 69.667 0 39.853 14.311 77.017 41.385 107.477l1.18 1.327 22.152-22.633-1.22-1.157c-11.993-11.38-34.073-43.062-34.073-83.156q0-1.645.05-3.312c.564-16.099 3.413-31.175 8.508-45.178 6.194 6.314 12.375 12.617 18.536 18.896-1.946 7.68-3.014 15.535-3.113 23.424q-.009.703-.009 1.404c0 50.723 35.1 96.193 84.083 109.013v28.525h30.763v-24.942c6.914-.15 13.831-.988 20.631-2.445a90552 90552 0 0 1 44.636 45.611c31.561-13.828 58.056-37.144 75.838-66.33l-.026-.028a166.2 166.2 0 0 0 24.27-86.497m-196.11 71.82c-31.516-11.42-51.744-38.62-52.436-70.477 17.518 17.856 34.967 35.645 52.435 53.46zm29.296-135.549-16.608-16.959c5.684-1.093 11.435-1.692 15.268-1.517 6.074.188 11.595.896 16.838 2.09-2.939 3.108-13.657 14.441-15.498 16.386m118.63 125.557L223.83 303.938l25.714-27.162c10.336 7.291 18.725 16.836 24.276 27.725l.96 1.882 24.738-21.369-.71-1.193c-6.73-11.29-16.1-21.653-27.077-30.167l16.385-16.77c25.5 18.32 50.94 59.906 50.94 105.258.001 26.564-6.146 45.791-16.788 63.332" style="fill:#00529f"></path><path d="M283.945 204.025c-6.822 7.091-36.65 38.085-36.65 38.085l-.719.746h-.26l-.419.418-1.116 1.116-1.473-.562-1.003-.383c-12.064-4.61-25.006-7.049-38.428-7.24-13.499-.006-28.22 2.655-40.143 7.237l-2.538.973-1.118-1.167-37.136-38.782c-49.627 29.026-80.339 82.058-80.336 139.18.007 37.006 12.8 71.536 37.083 100.324l13.815-14.114c-13.053-13.99-32.917-45.195-32.963-84.37q0-1.728.054-3.486c1.535-44.657 20.111-82.024 54.906-110.475l2.911-2.385 24.701 25.547-3.689 2.783c-26.83 20.23-43.036 50.925-43.413 81.936-.005.443-.008.89-.008 1.332-.018 48.522 33.903 92.112 80.98 103.811l3.103.77v27.216h19.276v-24.86l4.062-.022c29.95-.17 60.276-14.049 79.82-36.258l-15.095-15.256c-18.85 20.302-44.958 30.726-62.757 30.782q-1.103-.001-2.155-.05l-3.876-.203v-29.415h2.431c.028 0 23.244 0 31.234.002v-16.71c-7.996 0-31.234 0-31.234.003h-2.43v-23.834h2.43s23.604 0 31.666.003V342.37h-53.373v81.155l-5.379-1.792c-35.629-11.85-58.597-42.586-58.577-78.425q0-.836.018-1.68c.618-28.792 14.41-54.742 37.78-71.039l2.851-1.99 1.44 1.484s36.657 37.82 45.407 46.845l43.716-46.177 1.422-1.502 2.877 1.955c10.19 6.924 18.653 15.911 24.77 26.185l15.615-13.489c-6.482-10.035-15.109-19.292-25.186-26.844l-3.728-2.796 24.321-24.895 2.841 1.963c27.314 18.967 54.46 62.72 54.528 110.816.043 38.286-13.03 63.132-32.474 87.015 3.644 3.646 12.111 12.12 16.084 16.094 23.424-28.57 36.3-64.467 36.297-101.604.001-57.495-30.873-110.69-80.763-139.623m-78.5 82.338-1.736 1.832-28.04-28.632 7.137-1.616c6.373-1.438 12.986-2.28 18.008-2.283.592 0 1.17.011 1.688.036 7.531.232 14.38 1.188 20.876 2.93l6.624 1.773z" style="fill:#febe10" data-source="https://football-logos.cc"></path><!-- source: https://football-logos.cc --></svg>