<svg xmlns="http://www.w3.org/2000/svg" width="92" height="120" fill="none"><!-- Source: https://football-logos.cc --><g clip-path="url(#a)" data-source="https://football-logos.cc"><path fill="#0A0909" d="M82.338 73.608C74.406 93.9 56.15 115.855 45.842 115.855S17.592 94.751 9.714 75.333C3.693 60.499 3.68 51.339 4.065 49.029c.204-1.206.75-2.877 1.38-4.699.842-2.447 2.003-4.7 2.003-4.7.75-1.36 1.539-2.815 2.505-4.265 6.548-9.98 12.263-8.525 12.263-8.525 1.361-.966 2.77-1.583 4.176-1.844 5.626-1.1 11.12 3.165 11.696 8.836 0 0-.79 1.055-.089 1.671.66.572.966.089.966.089l1.845-1.889c3.338 0 4.837 4.088 4.837 4.088s1.582-4.088 4.877-4.088l1.893 1.889s.261.483.966-.089c.7-.616-.089-1.671-.089-1.671.572-5.76 6.243-10.069 12.002-8.792 1.32.306 2.593.878 3.866 1.8 0 0 5.67-1.45 12.263 8.525.922 1.45 3.347 5.764 4.23 7.834.704 1.663 1.245 2.754 1.715 5.83.39 2.55-.563 13.128-5.037 24.575M26.397 11.013a33.5 33.5 0 0 1 4.353-5.054l.218.35s-2.284 2.287-4.571 5.715c-2.328 3.47-4.66 8.086-4.571 12.706 0 0-.745-6.154 4.57-13.713m34.506-5.054c1.8 1.716 3.254 3.427 4.394 5.054 5.275 7.56 4.526 13.713 4.526 13.713.089-4.616-2.199-9.23-4.526-12.706-2.288-3.428-4.571-5.715-4.571-5.715l.177-.35zm22.77 20.615C77.164 15.371 69.867 9.568 65.296 6.752c-2.288-1.405-3.91-2.11-4.354-2.332-1.405-.705-1.977.177-1.977.177-5.67 6.504-9.32 1.495-9.32 1.495s.701-1.583 1.011-3.166c.262-1.538-1.099-1.538-1.715-1.538-.66 0-1.712 1.188-1.712 1.188l-1.538-.266-1.538.266s-1.056-1.188-1.716-1.188c-.616 0-2.022 0-1.711 1.538.306 1.583.966 3.166.966 3.166s-3.604 5.01-9.275-1.495c0 0-.616-.877-1.977-.177-.439.222-1.933.834-4.043 2.155-4.571 2.77-12.046 8.57-18.683 19.999-5.01 8.57-6.282 17.011-6.326 23.076v1.233c.044 2.86.31 5.142.527 6.548 1.011 6.11 4.22 22.42 18.067 41.23 2.198 3.033 15.126 19.951 25.714 19.951s23.155-16.43 25.713-19.95C85.255 79.846 88.42 63.54 89.431 57.43c.262-1.406.528-3.693.572-6.548V49.65c-.088-6.11-1.36-14.506-6.326-23.076"></path><path fill="#fff" d="M45.696 120c-11.63 0-25.315-18.421-26.836-20.522C9.106 86.23 2.944 72.154.545 57.657A49 49 0 0 1 0 50.905v-1.25c.04-5.835 1.206-14.688 6.522-23.777 6.574-11.323 14.05-17.392 19.16-20.487 1.788-1.117 3.175-1.756 3.84-2.066.129-.062.23-.106.302-.142 1.835-.949 3.165-.102 3.67.537 1.668 1.902 3.268 2.873 4.678 2.828.842-.03 1.503-.439 1.92-.785a20 20 0 0 1-.723-2.57c-.222-1.105.129-1.823.461-2.23C40.62 0 41.896 0 42.441 0c.812 0 1.61.55 2.195 1.086l1.06-.182 1.06.182C47.34.55 48.133 0 48.95 0c.532 0 1.782 0 2.571.935.337.4.696 1.109.505 2.222-.19.984-.51 1.946-.753 2.606.42.346 1.09.75 1.937.776h.098c1.379 0 2.957-.97 4.575-2.82.501-.651 1.8-1.489 3.68-.55l.28.134c.713.337 2.198 1.037 4.175 2.257 5.01 3.08 12.347 9.106 18.847 20.31 5.231 9.03 6.433 17.901 6.517 23.754v1.25c-.035 2.514-.253 4.987-.594 6.805C88.39 72.2 82.24 86.27 72.518 99.478c-.603.833-15.052 20.513-26.831 20.513zM8.667 40.296s-1.117 2.172-1.91 4.486c-.563 1.64-1.131 3.339-1.322 4.478-.013.084-1.325 8.57 5.564 25.55 8.122 20.013 25.382 39.657 34.843 39.657 4.367 0 11.128-4.872 18.084-13.03 6.987-8.193 13.384-18.784 17.122-28.338 4.344-11.11 5.307-21.574 4.96-23.866-.403-2.646-.842-3.67-1.444-5.09l-.173-.407c-.834-1.964-3.237-6.242-4.124-7.63-5.847-8.85-10.728-7.932-10.777-7.923l-.63.16-.5-.39c-1.078-.785-2.182-1.3-3.37-1.574-2.283-.505-4.74.027-6.726 1.463-1.91 1.383-3.178 3.436-3.524 5.675.483.962.527 2.177-.435 3.015l-.04.035c-.753.612-1.418.639-1.844.554a1.8 1.8 0 0 1-1.055-.643l-1.348-1.347c-1.968.42-3.059 3.12-3.068 3.152l-1.339 3.391-1.254-3.418c-.01-.026-1.033-2.7-3.006-3.121l-1.34 1.37a1.84 1.84 0 0 1-1.143.638c-.421.063-1.069.01-1.769-.598-.962-.843-.922-2.057-.439-3.02-.346-2.207-1.583-4.238-3.445-5.616-1.92-1.424-4.305-1.991-6.548-1.557-1.232.23-2.452.776-3.64 1.619l-.523.372-.62-.16s-4.944-.926-10.765 7.945c-.913 1.37-1.662 2.736-2.39 4.057zM73.84 92.739a111 111 0 0 1-5.409 7.545 70 70 0 0 0 1.858-2.434 114 114 0 0 0 3.547-5.107zM27.195 7.709s-.04.027-.062.04c-4.85 2.94-11.935 8.704-18.217 19.521-4.602 7.87-5.901 15.548-6.11 21.001.275-1.276.807-2.864 1.33-4.393a41 41 0 0 1 2.084-4.886l.075-.142c.754-1.374 1.534-2.793 2.505-4.256 2.873-4.376 5.981-7.244 9.235-8.525 1.725-.679 3.073-.732 3.84-.674q.576-.379 1.166-.683l-2.594.182c-.035-.275-.745-6.774 4.815-14.68A35 35 0 0 1 27.19 7.71zm42.783 17.668c.793 0 1.95.133 3.36.692 3.245 1.28 6.358 4.15 9.253 8.53.988 1.551 3.431 5.9 4.349 8.06l.173.403c.54 1.268 1.024 2.39 1.436 4.558-.32-5.418-1.707-12.826-6.065-20.35-6.122-10.55-12.968-16.262-17.702-19.214q.891 1.065 1.662 2.163c5.515 7.91 4.801 14.404 4.77 14.68l-2.762-.196c.085-4.429-2.287-8.915-4.291-11.904-2.177-3.263-4.38-5.484-4.403-5.506l-.705-.705.05-.093c-1.996 1.964-4.022 2.908-6.03 2.824-2.838-.124-4.465-2.314-4.531-2.407l-.47-.648.323-.731s.608-1.383.892-2.749c-.062 0-.129-.004-.187-.009-.195.116-.567.44-.82.723l-.51.572-2.061-.35-2.062.354-.51-.576c-.252-.284-.625-.607-.82-.723-.057 0-.124 0-.186.01.288 1.382.856 2.761.86 2.779l.297.714-.452.63c-.067.092-1.672 2.283-4.491 2.411-1.933.093-3.875-.785-5.8-2.602l-.575.576s-2.226 2.243-4.398 5.502c-2.927 4.362-4.385 8.344-4.34 11.837a11.2 11.2 0 0 1 2.93-.997c2.992-.586 6.176.164 8.72 2.052 2.465 1.831 4.097 4.531 4.54 7.48l.83-.852h.584c2.293 0 3.87 1.388 4.855 2.7 1.002-1.312 2.594-2.7 4.86-2.7h.571l.878.878c.439-3.001 2.115-5.746 4.65-7.581 2.625-1.902 5.893-2.602 8.965-1.924 1.397.324 2.678.887 3.92 1.711a7 7 0 0 1 .456-.018z"></path><path fill="#0A0909" d="M82.515 73.608C74.584 93.9 56.327 115.855 46.02 115.855S17.77 94.751 9.891 75.333c-6.02-14.834-6.034-23.994-5.648-26.304.204-1.206.749-2.877 1.379-4.699.842-2.447 2.008-4.7 2.008-4.7.75-1.365 1.538-2.815 2.505-4.265 6.548-9.98 12.263-8.53 12.263-8.53 1.36-.966 2.77-1.582 4.176-1.844 5.626-1.1 11.12 3.166 11.691 8.836 0 0-.79 1.055-.089 1.672.661.572.967.088.967.088l1.844-1.888c3.339 0 4.837 4.087 4.837 4.087s1.583-4.087 4.881-4.087l1.889 1.888s.261.483.966-.089c.7-.616-.088-1.67-.088-1.67.572-5.76 6.242-10.07 12.001-8.792 1.321.305 2.594.877 3.87 1.8 0 0 5.67-1.45 12.263 8.53.922 1.45 3.348 5.759 4.23 7.833.705 1.663 1.246 2.754 1.716 5.83.39 2.55-.563 13.128-5.037 24.575m-55.94-62.591a33.5 33.5 0 0 1 4.353-5.054l.217.35s-2.288 2.287-4.57 5.715c-2.333 3.47-4.66 8.086-4.572 12.706 0 0-.745-6.154 4.571-13.713M61.08 5.963c1.804 1.716 3.254 3.427 4.393 5.054C70.75 18.577 70 24.73 70 24.73c.088-4.616-2.2-9.23-4.527-12.706-2.288-3.428-4.57-5.715-4.57-5.715l.177-.35zm22.77 20.615C77.346 15.371 70.044 9.568 65.473 6.752c-2.288-1.405-3.91-2.11-4.35-2.332-1.404-.705-1.976.177-1.976.177-5.67 6.504-9.32 1.495-9.32 1.495s.7-1.583 1.011-3.166c.266-1.538-1.1-1.538-1.711-1.538-.66 0-1.716 1.188-1.716 1.188l-1.538-.266-1.539.266S43.28 1.388 42.62 1.388c-.617 0-2.022 0-1.712 1.538.306 1.583.967 3.166.967 3.166s-3.605 5.01-9.275-1.495c0 0-.616-.877-1.977-.177-.44.222-1.933.838-4.044 2.155-4.57 2.77-12.045 8.574-18.682 19.999-5.014 8.57-6.291 17.011-6.331 23.076v1.228c.044 2.86.306 5.143.528 6.548 1.01 6.11 4.216 22.42 18.066 41.231 2.199 3.033 15.127 19.951 25.714 19.951s23.156-16.43 25.714-19.95c13.845-18.816 17.01-35.122 18.022-41.232.261-1.405.527-3.693.572-6.548V49.65c-.089-6.11-1.361-14.506-6.327-23.08"></path><path fill="#3E93CD" d="M87.499 48.688H4.309s.43-1.685 1.313-4.398c.758-2.319 1.92-4.402 1.92-4.402H84.16s.794 1.374 1.676 3.312c1.4 3.08 1.663 5.488 1.663 5.488"></path><path fill="#fff" d="M84.151 39.888H7.665s2.47-5.143 5.83-8.508c5.427-5.427 8.943-4.287 8.943-4.287s3.108-2.873 7.523-1.889c7.945 1.778 8.348 8.876 8.348 8.876s-.855 1.241.098 1.853a.63.63 0 0 0 .785-.093c.9-.922 1.844-1.893 1.844-1.893 3.431.093 4.837 4.087 4.837 4.087s1.583-3.803 4.26-4.038l.617-.05 2.057 2.018s.39.302.798-.217c.643-.812-.089-1.672-.089-1.672s.013-5.936 6.703-8.445c5.205-1.951 9.164 1.458 9.164 1.458s2.895-1.033 7.515 2.94c4.26 3.662 7.258 9.85 7.258 9.85"></path><path fill="#FFE524" d="M46.024 115.855c9.416.049 23.537-16.444 32.031-32.604 9.603-18.864 10.095-32.142 9.448-34.567H4.309C2.904 55.932 8.14 75.39 17.246 89.808c8.588 13.389 19.37 25.697 28.773 26.047"></path><path fill="#0F0C0D" d="M46.064 115.864h-.04c-4.354-.16-9.297-2.9-14.697-8.136-2.359-2.287-4.81-5.058-7.284-8.246-2.253-2.9-4.54-6.154-6.797-9.67-2.186-3.453-4.225-7.319-6.06-11.49a101 101 0 0 1-4.35-11.763C5.72 62.835 4.895 59.231 4.46 56.141c-.439-3.104-.492-5.684-.146-7.457l83.202-.005c.324 1.215.36 5.174-.878 11.128-.691 3.33-1.684 6.84-2.948 10.432-1.503 4.27-3.396 8.65-5.617 13.017a111 111 0 0 1-7.266 11.917c-2.736 3.919-5.564 7.439-8.406 10.463-2.997 3.187-5.883 5.688-8.579 7.421-2.886 1.862-5.493 2.802-7.745 2.802zm-.04-.014h.04c2.252 0 4.854-.94 7.736-2.802 2.695-1.738 5.582-4.234 8.579-7.421 2.841-3.024 5.67-6.544 8.405-10.459a112 112 0 0 0 7.267-11.917c2.225-4.367 4.114-8.747 5.617-13.016 1.263-3.591 2.257-7.103 2.948-10.428 1.233-5.94 1.202-9.895.878-11.11H4.314c-.696 3.595.252 10.272 2.527 17.862a101 101 0 0 0 4.349 11.762c1.84 4.168 3.88 8.034 6.06 11.487 2.257 3.516 4.545 6.77 6.797 9.67 2.474 3.183 4.926 5.958 7.284 8.241 5.396 5.232 10.339 7.967 14.688 8.131z"></path><path fill="#E23C07" d="M40.952 114.591s-1.765-.505-5.733-3.462c-1.946-1.455-3.6-3.095-3.6-3.095V48.688h9.333zm9.514.178s1.764-.506 5.732-3.467c1.951-1.45 3.6-3.095 3.6-3.095V48.688h-9.332z"></path><path fill="#B03E24" d="M59.173 70.864c0 7.435-5.954 13.465-13.305 13.465-7.35 0-13.3-6.03-13.3-13.465s5.954-13.46 13.3-13.46 13.305 6.03 13.305 13.46"></path><path fill="#D69100" d="M48.533 82.604c1.263-.545 6.012-2.709 6.052-10.294.035-3.108-.754-7.715-3.65-9.661-1.963-.275-3.28.607-3.777 2.266.807.514 3.432 2.615 1.911 7.359.054.089.111.186.155.27 1.313 2.532 1.047 5.622-1.604 7.187a6 6 0 0 1-1.273.568c.43 1.121 1.22 1.853 2.186 2.3M35.76 78.272a12.6 12.6 0 0 0 5.09 4.097c-.497-.723-.94-1.574-1.09-2.332-1.074-1.18-2.377-2.04-4.004-1.765"></path><path fill="#D69100" d="M33.375 71.285a12.43 12.43 0 0 0 2.022 6.438c1.804-.417 3.484.412 4.703 1.76.661-.532 2.612-1.623 5.91.283 3.36-.935 4.11-4.158 2.67-6.938l-.08-.15c-1.295.394-7.67 2.03-15.225-1.393"></path><path fill="#D69100" d="M35.352 64.108a12.56 12.56 0 0 0-1.981 6.503c4.123 1.924 7.904 2.292 10.666 2.173a19 19 0 0 0 4.456-.723c.754-2.403.59-5.236-1.698-6.65-1.65.754-3.596 1.015-5.134-.08-2.314 1.104-4.61.811-6.224-1.113l-.09-.11z"></path><path fill="#D69100" d="M45.42 58.362a12.48 12.48 0 0 0-9.709 5.213q.082.109.195.249c1.49 1.773 3.419 1.88 5.462.962-.057-.816.107-3.48 4.053-6.424"></path><path fill="#D69100" d="M53.153 60.712a12.4 12.4 0 0 0-6.686-2.346c-1.924 1.313-4.367 3.525-4.491 6.034-.009.177 0 .315.009.4.07.052.15.11.217.15 1.343.798 2.98.554 4.336-.102.554-1.929 2.137-3.148 4.278-2.882l.164-.16c.612-.558 1.361-.97 2.168-1.094m-3.764 22.202a12.52 12.52 0 0 0 8.96-12.005c0-3.87-1.733-7.316-4.447-9.617-.926-.084-1.804.333-2.478.953.998.732 3.853 3.405 3.777 10.073-.04 7.067-4.016 9.687-5.847 10.587zm-3.507.501c.834 0 1.65-.08 2.434-.24-1.126-.509-2.044-1.365-2.505-2.562a4 4 0 0 1-.106-.319c-1.733-.98-3.782-1.552-5.298-.24.044.165.115.386.226.648.23.554.63 1.299 1.312 2.084a12.6 12.6 0 0 0 3.937.63"></path><path fill="#E23C07" d="M22.682 97.69s-3.068-4.184-5.436-7.882c-2.181-3.294-3.768-6.65-3.768-6.65V48.684h9.204zm46.2.134s3.108-4.296 5.436-8.011c2.181-3.299 3.768-6.65 3.768-6.65V48.687h-9.204z"></path><path fill="#fff" d="M14.382 41.204h1.392l-2.19 6.287h-1.268l-2.168-6.287h1.432l1.392 4.775zm4.194 3.911h1.645l-.811-2.474zm.089-3.915h1.516l2.274 6.291h-1.454l-.425-1.295h-2.368l-.434 1.295h-1.406L18.66 41.2zm5.519.004h1.34v5.157h3.21v1.13h-4.55zm11.111 1.113h-3.4v1.335h3.12v1.095h-3.12v1.614h3.555v1.13h-4.868v-6.287h4.713zm2.088-1.113h1.41l2.549 4.385v-4.385h1.25v6.287H41.25l-2.616-4.46v4.46h-1.25zm7.993.656q.777-.776 1.973-.775 1.602-.001 2.346 1.042.411.584.438 1.174H48.79q-.127-.45-.328-.682-.36-.407-1.064-.408c-.47 0-.856.19-1.13.576q-.413.579-.413 1.636t.439 1.587c.293.35.66.528 1.113.528s.811-.15 1.05-.452c.133-.164.244-.404.333-.732h1.334q-.171 1.029-.882 1.672-.709.643-1.817.642-1.37.001-2.155-.869-.785-.877-.785-2.398 0-1.65.891-2.54m7.967-.657H52.01v6.287h1.334zm3.911 3.911h1.644l-.811-2.474zm.088-3.915h1.52l2.27 6.291H59.68l-.426-1.295H56.89l-.435 1.295H55.05zm9.195.66q.777-.776 1.973-.775 1.602-.001 2.345 1.042.412.584.44 1.174H69.95q-.127-.45-.328-.682-.36-.407-1.064-.408c-.47 0-.856.19-1.13.576q-.413.579-.413 1.636t.439 1.587q.437.527 1.108.528c.448 0 .811-.15 1.055-.452.133-.164.244-.404.333-.732h1.334q-.171 1.029-.882 1.672c-.474.43-1.077.642-1.818.642q-1.37.001-2.154-.869-.785-.877-.785-2.398 0-1.65.891-2.54m7.941 4.353h-1.32v1.277h1.32zm2.191-5.001h4.58v1.104h-3.246v1.446h2.846v1.095h-2.846v2.633h-1.334zm6.57 5.001h-1.321v1.277h1.32z"></path></g><defs data-source="https://football-logos.cc"><clipPath id="a"><path fill="#fff" d="M0 0h91.391v120H0z"></path></clipPath></defs><!-- source: https://football-logos.cc --></svg>