<?xml version="1.0" encoding="UTF-8"?>
<svg width="auto" height="48px" viewBox="0 0 68 114" version="1.1" xmlns="http://www.w3.org/2000/svg" xmlns:xlink="http://www.w3.org/1999/xlink">
    <title>Artboard 1</title>
    <defs>
        <path d="M0,0 L68,0 L68,114 L0,114 L0,0 Z" id="path-1"></path>
        <polygon id="path-2" points="0 0 21.4712788 0 21.4712788 22.4287362 0 22.4287362"></polygon>
    </defs>
    <g id="Artboard-1" stroke="none" fill="none" xlink:href="#path-1" fill-rule="evenodd">
        <path d="M38.7808891,5.53313918 C34.8409029,1.9322963 33.9995032,6.1594986e-05 33.9995032,6.1594986e-05 C33.9995032,6.1594986e-05 33.1587245,1.9322963 29.2181174,5.53313918 C24.7912993,9.61688675 21.8696862,10.2759531 23.0650327,14.2278874 C24.0386967,17.5657197 26.0307338,17.8730787 27.4477627,17.696917 C29.2181174,17.5213713 29.7055704,16.2919354 28.8200826,14.5795948 C27.9786828,12.9984515 29.3069146,12.4711984 30.2364905,12.8229058 C32.1403514,13.6131694 31.3436607,18.8826205 31.3436607,23.4936211 L36.6118786,23.4936211 C36.6118786,18.8826205 35.814567,13.569437 37.7184279,12.8229058 C38.6480038,12.427466 39.9762355,12.9984515 39.1348358,14.5795948 C38.249348,16.2919354 38.736801,17.5213713 40.5077766,17.696917 C41.9241845,17.8287303 43.9162216,17.5657197 44.8905066,14.2278874 C46.0858531,10.2316047 43.1636191,9.57315431 38.736801,5.53313918 L38.7808891,5.53313918 Z" id="Fill-1" fill="#D50032"></path>
        <g id="Grupo" stroke-width="1" transform="translate(0, 23.7248)">
            <mask id="mask-3" fill="white">
                <use xlink:href="#path-2"></use>
            </mask>
            <g id="Clip-4"></g>
            <path d="M16.7786901,8.99117409 C15.7603171,8.99117409 14.786653,8.77127999 13.9452533,8.24464286 C13.1926508,7.80547061 12.4400482,7.10267182 12.2630748,6.00504917 L12.2630748,5.78577102 C12.2189867,5.08297223 12.5288454,4.42390588 13.1044746,3.98473363 C13.7241918,3.4580965 14.5208825,3.41436406 15.3175731,3.58990977 C16.1142638,3.80918792 16.8674873,4.24836017 17.5753808,4.68753242 C17.5753808,4.68753242 16.5576287,2.05249892 14.3879972,0.69124973 L14.255112,0.60378485 C13.7682799,0.34015831 13.3696241,0.1646126 12.9268802,0.07653177 C12.838704,0.07653177 12.7058188,0.07653177 12.6170216,0.03279933 C12.3071629,-0.01093311 12.0420134,-0.01093311 11.7315338,0.03279933 C9.47372612,0.1646126 7.65866238,2.00876648 7.65866238,4.29209261 C7.65866238,4.60006754 7.65866238,4.86307813 7.74745955,5.12670467 C7.74745955,5.30225038 7.83563575,5.47779609 7.88034481,5.65395775 C7.92443292,5.78577102 7.96852102,5.8732359 8.01323008,6.00504917 C8.36717683,6.79531284 8.98689411,7.49811163 9.73949666,7.93728388 L10.2710377,8.33272369 C11.4216751,9.1667198 10.6690726,9.1667198 9.73949666,9.21045224 C9.16386748,9.21045224 8.27837966,9.25480063 7.61457428,9.25480063 C7.30471564,9.25480063 6.994857,9.12298736 6.81788362,8.85936082 C6.41922782,8.2883753 5.75542243,7.89355144 5.00281989,7.89355144 C4.42719071,7.89355144 3.9403587,8.11282959 3.54170289,8.46453696 C2.92198561,8.94744165 2.5233298,9.69397288 2.08058589,10.1768776 C1.54966578,10.7478631 0.841151331,11.2307678 -0.00024838368,11.2307678 C0.841151331,11.2307678 1.54966578,11.7136725 2.08058589,12.284658 C2.56741791,12.7675627 2.92198561,13.5140939 3.54170289,13.9976145 C3.9403587,14.348706 4.42719071,14.5679841 5.00281989,14.5679841 C5.75542243,14.5679841 6.41922782,14.1731603 6.81788362,13.6021747 C6.994857,13.3385482 7.30471564,13.2067349 7.61457428,13.2067349 C8.23429156,13.2067349 9.16386748,13.2067349 9.73949666,13.2510833 C10.7137816,13.2948158 11.4216751,13.2948158 10.2710377,14.1288119 L9.73949666,14.5242517 C8.98689411,14.9634239 8.36717683,15.6662227 8.01323008,16.4564864 C7.96852102,16.5882997 7.92443292,16.6757645 7.88034481,16.8075778 C7.83563575,16.9837395 7.79154765,17.1592852 7.74745955,17.3348309 C7.70337144,17.5984574 7.65866238,17.9058164 7.65866238,18.168827 C7.65866238,20.4527691 9.47372612,22.296923 11.7315338,22.4287362 L12.6170216,22.4287362 C12.7058188,22.4287362 12.838704,22.4287362 12.9268802,22.3850038 C13.3696241,22.296923 13.7682799,22.1213772 14.255112,21.8577507 L14.3879972,21.7702858 C16.5576287,20.4527691 17.5753808,17.7740031 17.5753808,17.7740031 C16.8674873,18.2131754 16.1589729,18.6523476 15.3175731,18.8716258 C14.5208825,19.0915199 13.7682799,19.0034391 13.1044746,18.4768019 C12.5729335,18.0376297 12.2189867,17.3785633 12.2630748,16.6757645 L12.2630748,16.4564864 C12.4400482,15.4025962 13.1926508,14.6997974 13.9452533,14.2168927 C14.786653,13.733988 15.8050261,13.4703615 16.7786901,13.4703615 L21.4712788,13.4703615 L21.4712788,8.94744165 L16.7786901,8.94744165 L16.7786901,8.99117409 Z" id="Fill-3" fill="#D50032" mask="url(#mask-3)"></path>
        </g>
        <path d="M51.2214341,32.7159304 C52.2398071,32.7159304 53.2134712,32.4960363 54.0548709,31.9693992 C54.8074734,31.5302269 55.560076,30.8274281 55.7370493,29.7298055 L55.7370493,29.5105273 C55.7811375,28.8077285 55.4712788,28.1486622 54.8956496,27.70949 C54.2759324,27.1828528 53.4792417,27.1391204 52.682551,27.3146661 C51.8852394,27.5339442 51.1326369,27.9731165 50.4247434,28.4122887 C50.4247434,28.4122887 51.4424955,25.7772552 53.612127,24.4160061 L53.7450122,24.3285412 C54.2318442,24.0649146 54.6305001,23.8893689 55.073244,23.8012881 C55.1614202,23.8012881 55.2943054,23.8012881 55.3831026,23.7575557 C55.6929612,23.7138232 55.9581108,23.7138232 56.2685904,23.7575557 C58.5263981,23.8893689 60.3414618,25.7335228 60.3414618,28.0168489 C60.3414618,28.3248239 60.3414618,28.5878344 60.2526646,28.851461 C60.2526646,29.0270067 60.1638675,29.2025524 60.1197794,29.3787141 C60.0756913,29.5105273 60.0316032,29.5979922 59.9868941,29.7298055 C59.6329474,30.5200692 59.0132301,31.2228679 58.2606275,31.6620402 L57.7290865,32.05748 C56.5784491,32.8914761 57.3310516,32.8914761 58.2606275,32.9352086 C58.8362567,32.9352086 59.7211236,32.9795569 60.3855499,32.9795569 C60.6954086,32.9795569 61.0052672,32.8477437 61.1822406,32.5841171 C61.5808964,32.0131316 62.2447018,31.6183078 62.9973043,31.6183078 C63.5729335,31.6183078 64.0597655,31.8375859 64.4584213,32.1892933 C65.0781386,32.672198 65.4761734,33.4187292 65.9189173,33.9016339 C66.4504584,34.4726194 67.1589729,34.9555241 67.9997516,34.9555241 C67.1589729,34.9555241 66.4504584,35.4384288 65.9189173,36.0094143 C65.4320853,36.492319 65.0781386,37.2388502 64.4584213,37.7223709 C64.0597655,38.0734623 63.5729335,38.2927404 62.9973043,38.2927404 C62.2447018,38.2927404 61.5808964,37.8979166 61.1822406,37.3269311 C61.0052672,37.0633045 60.6954086,36.9314912 60.3855499,36.9314912 C59.7658326,36.9314912 58.8362567,36.9314912 58.2606275,36.9758396 C57.2863426,37.0195721 56.5784491,37.0195721 57.7290865,37.8535682 L58.2606275,38.249008 C59.0132301,38.6881802 59.6329474,39.390979 59.9868941,40.1812427 C60.0316032,40.313056 60.0756913,40.4005209 60.1197794,40.5323341 C60.1638675,40.7084958 60.2085765,40.8840415 60.2526646,41.0595872 C60.2967527,41.3232137 60.3414618,41.6305727 60.3414618,41.8935833 C60.3414618,44.1775254 58.5263981,46.0216793 56.2685904,46.1534925 L55.3831026,46.1534925 C55.2943054,46.1534925 55.1614202,46.1534925 55.073244,46.1097601 C54.6305001,46.0216793 54.2318442,45.8461336 53.7450122,45.582507 L53.612127,45.4950421 C51.4424955,44.1775254 50.4247434,41.4987595 50.4247434,41.4987595 C51.1326369,41.9379317 51.8411513,42.377104 52.682551,42.5963821 C53.4792417,42.8162762 54.2318442,42.7281954 54.8956496,42.2015582 C55.4271907,41.762386 55.7811375,41.1033196 55.7370493,40.4005209 L55.7370493,40.1812427 C55.560076,39.1273525 54.8074734,38.4245537 54.0548709,37.941649 C53.2134712,37.4587443 52.1950981,37.1951178 51.2214341,37.1951178 L46.5288454,37.1951178 L46.5288454,32.672198 L51.2214341,32.672198 L51.2214341,32.7159304 Z" id="Fill-5" fill="#D50032"></path>
        <path d="M34.0001242,114 L25.5004347,65.2999244 C28.6431092,64.5090447 30.9456259,61.7428139 31.0785112,58.4049816 L36.9217372,58.4049816 C37.0546225,61.7428139 39.4012273,64.4653123 42.5004347,65.2999244 L34.0001242,114 Z" id="Fill-7" fill="#D50032"></path>
        <path d="M33.6460533,61.5229198 C17.6644263,52.8281716 17.7973116,35.5698725 17.8413997,29.8612492 L17.8413997,29.114718 L50.2033093,29.114718 L50.2033093,29.8612492 C50.2033093,33.9893451 50.026336,40.1371407 47.7244402,46.2412038 C45.200862,52.9162524 40.7293348,58.0538902 34.3986558,61.5229198 L34.0447091,61.7428139 L33.6901414,61.5229198 L33.6460533,61.5229198 Z" id="Fill-9" fill="#FFFFFF"></path>
        <path d="M49.4059977,29.8613108 L18.5492932,29.8613108 C18.5052051,39.1270445 19.9657011,53.2674054 33.9552909,60.864531 C47.9448807,53.2674054 49.4500858,39.1270445 49.3619096,29.8613108 L49.4059977,29.8613108 Z" id="Fill-11" fill="#6CACE4"></path>
        <polygon id="Fill-13" fill="#C09A4E" points="33.4254265 17.3460104 34.5766848 17.3460104 34.3990905 18.0044608 34.9747197 17.8289151 34.9747197 18.9708861 34.3990905 18.7953404 34.5766848 19.6736849 33.4254265 19.6736849 33.6023998 18.7953404 33.0267706 18.9708861 33.0267706 17.8289151 33.6023998 18.0044608"></polygon>
        <path d="M39.7560434,23.6694748 C39.9330168,23.274035 40.1099901,22.8792112 40.1099901,22.0883315 C41.3053366,21.1225222 42.6782774,22.966676 42.8105417,24.2404603 C42.8993389,25.0744565 42.6782774,25.6017095 42.4125068,25.9090685 C42.4125068,25.8209877 42.3237097,25.7335228 42.2796216,25.645442 C41.7927896,24.7670975 40.7297074,23.9768338 39.7560434,23.6694748 L39.7560434,23.6694748 Z M38.604785,23.1428377 C37.5423238,22.5275038 36.170004,22.1764124 34.9746576,22.2201448 C34.9305695,21.517962 34.7976842,20.7714307 34.5766227,20.2004452 C38.4278117,18.4874887 39.4461848,21.2543354 38.604785,23.1865701 L38.604785,23.1428377 Z M41.6599043,28.5878344 C41.6599043,28.5878344 41.4382219,28.4560212 41.3941338,28.4122887 L41.3941338,28.236743 C44.3604559,27.1828528 44.7584907,20.2441777 40.065902,21.3418003 C39.6672462,19.4101815 37.8080944,18.0483164 34.0009935,19.7169246 L34.0009935,29.0707391 L34.6647989,29.0707391 C35.0634547,29.0707391 35.5943748,29.0707391 36.1259159,29.2025524 C36.2588012,29.2025524 36.4357746,29.2462848 36.5686598,29.2906332 C38.117953,29.5099114 39.4461848,29.9928161 40.3316726,30.5638016 L41.6599043,28.5878344 Z" id="Fill-15" fill="#C09A4E"></path>
        <path d="M40.0654674,23.581702 C40.0654674,23.274343 39.8444059,23.0550648 39.5339263,23.0550648 C39.2240676,23.0550648 39.0030062,23.3180754 39.0030062,23.581702 C39.0030062,23.8453285 39.2240676,24.1083391 39.5339263,24.1083391 C39.8444059,24.1083391 40.0654674,23.8453285 40.0654674,23.581702" id="Fill-17" fill="#FFFFFF"></path>
        <path d="M39.7995105,19.9367571 C39.7995105,19.6731305 39.5784491,19.4101199 39.2685904,19.4101199 C38.9581108,19.4101199 38.7370493,19.6293981 38.7370493,19.9367571 C38.7370493,20.2441161 38.9581108,20.4633942 39.2685904,20.4633942 C39.5784491,20.4633942 39.7995105,20.2441161 39.7995105,19.9367571" id="Fill-19" fill="#FFFFFF"></path>
        <path d="M38.7816342,19.2780603 C38.7816342,19.2780603 38.6046608,18.8826205 38.3829784,18.8826205 C38.1619169,18.8826205 37.9849436,19.0587821 37.9849436,19.2780603 C37.9849436,19.4979544 38.1619169,19.6735001 38.3829784,19.6735001 C38.6046608,19.6735001 38.7816342,19.4979544 38.7816342,19.2780603" id="Fill-21" fill="#FFFFFF"></path>
        <path d="M37.8521825,18.9709477 C37.8521825,18.9709477 37.6752091,18.5755079 37.4535267,18.5755079 C37.2324652,18.5755079 37.0554918,18.7516695 37.0554918,18.9709477 C37.0554918,19.1902258 37.2324652,19.3663875 37.4535267,19.3663875 C37.6752091,19.3663875 37.8521825,19.1902258 37.8521825,18.9709477" id="Fill-23" fill="#FFFFFF"></path>
        <path d="M36.8784564,18.9707629 C36.8784564,18.9707629 36.7455711,18.6634039 36.5685977,18.6634039 C36.3916244,18.6634039 36.2587391,18.7952172 36.2587391,18.9707629 C36.2587391,19.1463086 36.3916244,19.2781219 36.5685977,19.2781219 C36.7455711,19.2781219 36.8784564,19.1463086 36.8784564,18.9707629" id="Fill-25" fill="#FFFFFF"></path>
        <path d="M36.0808964,19.058659 C36.0808964,19.058659 35.9480111,18.7513 35.7710377,18.7513 C35.5940644,18.7513 35.4611791,18.8831132 35.4611791,19.058659 C35.4611791,19.2342047 35.5940644,19.3660179 35.7710377,19.3660179 C35.9480111,19.3660179 36.0808964,19.2342047 36.0808964,19.058659" id="Fill-27" fill="#FFFFFF"></path>
        <path d="M35.3287906,19.2343279 C35.3287906,19.2343279 35.2399934,19.0150497 35.1071082,19.0150497 C34.9748438,19.0150497 34.8860467,19.1025146 34.8860467,19.2343279 C34.8860467,19.3661411 34.9748438,19.4979544 35.1071082,19.4979544 C35.2399934,19.4979544 35.3287906,19.3661411 35.3287906,19.2343279" id="Fill-29" fill="#FFFFFF"></path>
        <path d="M34.7970632,19.4538524 C34.7970632,19.4538524 34.7082661,19.2783067 34.6200899,19.2783067 C34.4872046,19.2783067 34.3984074,19.3657716 34.3984074,19.4538524 C34.3984074,19.5856657 34.4872046,19.6737465 34.6200899,19.6737465 C34.7082661,19.6737465 34.7970632,19.5856657 34.7970632,19.4538524" id="Fill-31" fill="#FFFFFF"></path>
        <path d="M43.4300727,26.6996402 C43.4300727,26.3922812 43.1643022,26.173003 42.8544435,26.173003 C42.5445849,26.173003 42.3235234,26.4360136 42.3235234,26.6996402 C42.3235234,26.9632667 42.5445849,27.2706257 42.8544435,27.2706257 C43.1643022,27.2706257 43.4300727,27.0069991 43.4300727,26.6996402" id="Fill-33" fill="#FFFFFF"></path>
        <path d="M44.0061365,25.6458115 C44.0061365,25.3384526 43.740366,25.1185585 43.4752164,25.1185585 C43.2094459,25.1185585 42.9436753,25.3384526 42.9436753,25.6458115 C42.9436753,25.9531705 43.2094459,26.1724487 43.4752164,26.1724487 C43.740366,26.1724487 44.0061365,25.9531705 44.0061365,25.6458115" id="Fill-35" fill="#FFFFFF"></path>
        <path d="M44.2267633,24.4161292 C44.2267633,24.1525027 44.0057019,23.9332246 43.7399313,23.9332246 C43.4741608,23.9332246 43.2530993,24.1525027 43.2530993,24.4161292 C43.2530993,24.6797558 43.4741608,24.8990339 43.7399313,24.8990339 C44.0057019,24.8990339 44.2267633,24.6797558 44.2267633,24.4161292" id="Fill-37" fill="#FFFFFF"></path>
        <path d="M44.0063228,23.274343 C44.0063228,23.0107164 43.8293495,22.8351707 43.5635789,22.8351707 C43.2978084,22.8351707 43.120835,23.0544489 43.120835,23.274343 C43.120835,23.4936211 43.3425174,23.7135152 43.5635789,23.7135152 C43.7852614,23.7135152 44.0063228,23.4936211 44.0063228,23.274343" id="Fill-39" fill="#FFFFFF"></path>
        <path d="M43.5188699,22.3521429 C43.5188699,22.1328647 43.3418965,21.956703 43.120214,21.956703 C42.8991526,21.956703 42.7221792,22.1328647 42.7221792,22.3521429 C42.7221792,22.571421 42.8991526,22.7475827 43.120214,22.7475827 C43.3418965,22.7475827 43.5188699,22.571421 43.5188699,22.3521429" id="Fill-41" fill="#FFFFFF"></path>
        <path d="M42.8099828,21.6933845 C42.8099828,21.6933845 42.6330095,21.3422931 42.4560361,21.3422931 C42.2784418,21.3422931 42.1014684,21.5178388 42.1014684,21.6933845 C42.1014684,21.8689302 42.2784418,22.0444759 42.4560361,22.0444759 C42.6330095,22.0444759 42.8099828,21.8689302 42.8099828,21.6933845" id="Fill-43" fill="#FFFFFF"></path>
        <path d="M42.0134785,21.2982526 C42.0134785,21.2982526 41.8805932,20.9908937 41.7036198,20.9908937 C41.5266465,20.9908937 41.3937612,21.1227069 41.3937612,21.2982526 C41.3937612,21.4737984 41.5266465,21.6056116 41.7036198,21.6056116 C41.8805932,21.6056116 42.0134785,21.4737984 42.0134785,21.2982526" id="Fill-45" fill="#FFFFFF"></path>
        <path d="M41.2169741,21.166501 C41.2169741,21.166501 41.0840888,20.9028744 40.9512036,20.9028744 C40.8183183,20.9028744 40.686054,21.0346877 40.686054,21.166501 C40.686054,21.2983142 40.8183183,21.4301275 40.9512036,21.4301275 C41.0840888,21.4301275 41.2169741,21.2983142 41.2169741,21.166501" id="Fill-47" fill="#FFFFFF"></path>
        <path d="M40.4643095,20.9909553 C40.4643095,20.6835963 40.1985389,20.4643181 39.9333893,20.4643181 C39.6676188,20.4643181 39.4018483,20.6835963 39.4018483,20.9909553 C39.4018483,21.2983142 39.6229097,21.5182083 39.9333893,21.5182083 C40.243248,21.5182083 40.4643095,21.2983142 40.4643095,20.9909553" id="Fill-49" fill="#FFFFFF"></path>
        <path d="M40.7298937,22.3521429 C40.7298937,22.0010514 40.4641232,21.7374249 40.1101764,21.7374249 C39.7562297,21.7374249 39.4904591,22.0010514 39.4904591,22.3521429 C39.4904591,22.7032343 39.7562297,22.9668608 40.1101764,22.9668608 C40.4641232,22.9668608 40.7298937,22.7032343 40.7298937,22.3521429" id="Fill-51" fill="#FFFFFF"></path>
        <path d="M36.4354641,25.0309088 C36.7291778,25.0309088 36.9663842,24.795 36.9663842,24.5042717 C36.9663842,24.2129274 36.7291778,23.9770186 36.4354641,23.9770186 C36.1417504,23.9770186 35.904544,24.2129274 35.904544,24.5042717 C35.904544,24.795 36.1417504,25.0309088 36.4354641,25.0309088" id="Fill-53" fill="#FFFFFF"></path>
        <path d="M36.4354641,25.074826 C36.7533952,25.074826 37.0110933,24.8192068 37.0110933,24.5038405 C37.0110933,24.1884742 36.7533952,23.932855 36.4354641,23.932855 C36.117533,23.932855 35.8598349,24.1884742 35.8598349,24.5038405 C35.8598349,24.8192068 36.117533,25.074826 36.4354641,25.074826" id="Fill-55" fill="#FFFFFF"></path>
        <polygon id="Fill-57" fill="#FFFFFF" points="36.7631442 27.4448163 36.4681886 28.4574379 38.5099025 29.0425902 38.8048581 28.0299687"></polygon>
        <path d="M41.2613727,26.7874746 C41.5060306,26.7874746 41.7041166,26.5909866 41.7041166,26.3483024 C41.7041166,26.1056181 41.5060306,25.9091301 41.2613727,25.9091301 C41.0167148,25.9091301 40.8186288,26.1056181 40.8186288,26.3483024 C40.8186288,26.5909866 41.0167148,26.7874746 41.2613727,26.7874746" id="Fill-59" fill="#FFFFFF"></path>
        <polygon id="Fill-61" fill="#FFFFFF" points="41.3933265 28.9831511 41.3933265 29.1586968 41.2604412 29.1586968 41.172265 29.7734147 40.640724 30.0370413 40.7295211 30.1688545 40.5966359 30.2569354 39.9322095 28.9394186"></polygon>
        <path d="M39.046908,25.733646 C39.2915659,25.733646 39.4896519,25.537158 39.4896519,25.2944737 C39.4896519,25.0517895 39.2915659,24.8553015 39.046908,24.8553015 C38.8022501,24.8553015 38.6041641,25.0517895 38.6041641,25.2944737 C38.6041641,25.537158 38.8022501,25.733646 39.046908,25.733646" id="Fill-63" fill="#FFFFFF"></path>
        <path d="M39.3573876,25.2943506 L39.4014757,25.2943506 C39.4902729,25.2943506 39.5784491,25.2506181 39.6672462,25.2062697 C39.7113343,25.2062697 39.7560434,25.1625373 39.8001315,25.1188048 L39.8442196,25.0744565 L39.9330168,25.030724 L40.065902,25.030724 C40.1099901,25.030724 40.1099901,25.1188048 40.1099901,25.1625373 C40.1099901,25.2062697 40.065902,25.2506181 40.021193,25.2943506 L40.021193,25.338083 L40.021193,25.4261638 C40.021193,25.5142447 40.065902,25.645442 40.021193,25.7335228 C39.9771049,25.8209877 39.8883077,25.9090685 39.8001315,25.952801 C39.8001315,25.952801 39.7560434,25.952801 39.7113343,25.9971493 L39.7113343,26.0408818 L39.7113343,26.2164275 C39.7113343,26.2164275 39.6231581,26.2607759 39.5784491,26.2164275 C39.534361,26.1726951 39.4902729,26.2164275 39.4902729,26.1289626 L39.4902729,26.0408818 L39.4902729,25.952801 L39.4902729,25.7772552 C39.4461848,25.6897904 39.4014757,25.6017095 39.3573876,25.5142447 L39.3573876,25.4698963 L39.3573876,25.3824314 C39.3573876,25.3824314 39.3573876,25.338083 39.4014757,25.2943506 L39.3573876,25.2943506 Z" id="Fill-65" fill="#FFFFFF"></path>
        <path d="M38.7816342,25.0748876 L38.7816342,25.0311552 C38.7816342,24.9430743 38.6928371,24.8549935 38.6487489,24.7675286 L38.6487489,24.5919829 L38.6487489,24.5039021 L38.6487489,24.4164372 C38.6487489,24.4164372 38.6046608,24.3283564 38.5605727,24.3283564 L38.4276875,24.3283564 L38.4276875,24.5039021 L38.4276875,24.5482505 L38.3388903,24.5919829 C38.2507141,24.6357154 38.1619169,24.7237962 38.1178288,24.8112611 C38.0731198,24.8993419 38.1178288,25.0311552 38.1178288,25.1186201 L38.1178288,25.2067009 L38.1178288,25.2504333 C38.1178288,25.2947817 38.0290317,25.3385142 38.0290317,25.3822466 C38.0290317,25.3822466 38.0290317,25.4703274 38.0731198,25.5140599 C38.1178288,25.5577923 38.1619169,25.5140599 38.206005,25.5140599 C38.206005,25.5140599 38.2507141,25.5140599 38.2948022,25.4703274 L38.3388903,25.425979 C38.3388903,25.425979 38.4276875,25.3385142 38.4717756,25.3385142 C38.5605727,25.3385142 38.6487489,25.2947817 38.7375461,25.2504333 L38.7816342,25.2504333 L38.8257223,25.1629684 L38.8257223,25.0748876 L38.7816342,25.0748876 Z" id="Fill-67" fill="#FFFFFF"></path>
        <path d="M38.7370493,24.2404603 L38.8258465,24.1967279 C38.8699346,24.1967279 38.9140227,24.2841928 38.9587318,24.2841928 L39.0028199,24.2841928 L39.0909961,24.2841928 C39.1797933,24.2841928 39.3126785,24.2404603 39.4008547,24.2841928 C39.4896519,24.2841928 39.5784491,24.4160061 39.6225372,24.5040869 C39.6225372,24.5040869 39.6225372,24.5478193 39.6666253,24.5915518 L39.7107134,24.5915518 L39.8883077,24.5915518 C39.8883077,24.5915518 39.9323958,24.6796326 39.8883077,24.723365 C39.8883077,24.723365 39.8883077,24.8114459 39.7995105,24.8114459 C39.53374,24.8551783 39.4008547,25.1188048 39.1357052,24.9869916 C39.1357052,24.9869916 39.0028199,24.9432591 38.9587318,24.9432591 C38.6929612,24.8551783 38.7811375,24.5915518 38.6041641,24.3722736 L38.6041641,24.2404603 L38.7370493,24.2404603 Z" id="Fill-69" fill="#FFFFFF"></path>
        <path d="M34.0448333,24.767467 C34.2665157,25.2941042 34.6204624,25.6020791 35.0632063,25.6458115 C35.5059503,25.689544 35.9039851,25.4702658 36.2138437,24.9873611 L36.5237024,24.9873611 C36.6565876,25.5577307 37.0111553,25.9094381 37.4979874,25.996903 C37.9848194,26.0849838 38.4275633,25.996903 38.78151,25.5577307 L39.0472806,25.689544 C39.0472806,26.1724487 39.3130511,26.5678885 39.7117069,26.7877826 C40.1097418,27.0070607 40.5524857,26.9633283 40.9952296,26.6559693 L41.1722029,26.7434342 C41.1722029,27.1826064 41.2610001,27.5343138 41.5708588,27.7098595 C41.7478321,27.7973244 41.9248055,27.8416728 42.1464879,27.7973244 C42.2793732,27.7973244 42.3675494,27.6217787 42.4122585,27.4899654 L42.2346641,27.4899654 C42.2346641,27.4899654 42.1464879,27.4899654 42.1023998,27.5343138 L42.0136027,27.5343138 L41.9248055,27.5343138 L41.8366293,27.5343138 L41.8366293,27.446233 C41.8366293,27.4025005 41.9248055,27.3581522 41.9248055,27.3581522 L41.9248055,27.2706873 C41.9248055,27.1826064 41.9248055,27.0951416 41.9695146,27.0070607 C42.0136027,26.9189799 42.1023998,26.8752475 42.190576,26.8752475 L42.2793732,26.8752475 C42.2793732,26.831515 42.2793732,26.7877826 42.3675494,26.7434342 L42.4563466,26.7434342 C42.4563466,26.7434342 42.5451437,26.7877826 42.5451437,26.831515 L42.5451437,26.9189799 L42.5451437,27.0070607 L42.5451437,27.138874 L42.5451437,27.3581522 C42.5892318,27.3581522 42.677408,27.3144197 42.7221171,27.3144197 C42.677408,27.1826064 42.7221171,27.0507932 42.677408,26.8752475 L42.677408,26.7877826 L42.7662052,26.7877826 C42.7662052,26.7877826 42.8550024,26.8752475 42.8550024,26.9189799 L42.9431786,26.9189799 C43.0319757,26.9189799 43.120152,26.9189799 43.2089491,26.9633283 C43.2971253,27.0507932 43.4747197,27.2269548 43.5628959,27.3581522 L43.5628959,27.446233 C43.5628959,27.446233 43.5188078,27.5343138 43.4747197,27.5343138 L43.4300106,27.5343138 L43.2089491,27.5343138 L42.9878876,27.5343138 L42.9431786,27.5343138 C42.8102933,27.5780463 42.7221171,27.6655111 42.6333199,27.753592 C42.5892318,27.7973244 42.5451437,27.8416728 42.5004347,27.9291377 C42.4563466,28.0172185 42.4122585,28.0609509 42.3234613,28.1046834 C42.1464879,28.280845 41.5708588,28.4563907 41.2610001,28.280845 C40.9511415,28.1046834 40.8182562,27.6217787 40.8182562,27.3144197 C40.5524857,27.4899654 39.8886803,27.6655111 39.4459364,27.4025005 C39.0031925,27.1826064 38.7374219,26.6116209 38.6933338,26.2605295 C38.4716514,26.524156 37.807846,26.831515 37.2763049,26.6997018 C36.7453848,26.5678885 36.346729,25.996903 36.2138437,25.6458115 C36.0368704,25.9531705 35.4612412,26.3923428 34.9303211,26.3486103 C34.39878,26.3042619 33.8678599,25.689544 33.7790627,25.3384526 L33.9560361,24.8992803 L34.0448333,24.767467 Z" id="Fill-71" fill="#FFFFFF"></path>
        <path d="M25.6778427,25.6456268 C25.6778427,25.6456268 25.5890455,25.8211725 25.5449574,25.9092533 C25.2791869,25.5575459 25.0581254,25.0746412 25.1463016,24.2406451 C25.2350988,22.9668608 26.6515067,21.1227069 27.8468532,22.0885163 C27.8468532,22.87878 28.0244475,23.2742198 28.2014209,23.6696596 C27.1830478,23.9326702 26.1646747,24.7235498 25.6778427,25.6456268 L25.6778427,25.6456268 Z M33.4255506,20.200014 C33.2038682,20.7709996 33.0709829,21.5175308 33.0268948,22.2203296 C31.8315484,22.1765971 30.4592285,22.5276886 29.3967674,23.1424065 C28.5553676,21.2545202 29.5737407,18.443941 33.4255506,20.1562816 L33.4255506,20.200014 Z M27.6698798,30.5639864 C28.5112795,29.9930009 29.8395113,29.5538286 31.4328926,29.2902021 C31.6098659,29.2902021 31.7427512,29.2464696 31.8756365,29.2027372 C32.4071776,29.1146564 32.8940096,29.0709239 33.3367535,29.0709239 L34.0005589,29.0709239 L34.0005589,19.7171094 C30.193458,18.0485012 28.3343062,19.4097504 27.9356504,21.3419851 C23.2430617,20.200014 23.6858056,27.1824217 26.5633305,28.2363119 L26.5633305,28.4118576 C26.5633305,28.4118576 26.3863572,28.5436708 26.3416481,28.5880192 L27.6698798,30.5639864 Z" id="Fill-73" fill="#C09A4E"></path>
        <path d="M27.8908792,23.581702 C27.8908792,23.274343 28.1119407,23.0550648 28.4217993,23.0550648 C28.7322789,23.0550648 28.9533404,23.3180754 28.9533404,23.581702 C28.9533404,23.8453285 28.7322789,24.1083391 28.4217993,24.1083391 C28.1119407,24.1083391 27.8908792,23.8453285 27.8908792,23.581702" id="Fill-75" fill="#FFFFFF"></path>
        <path d="M28.2010483,19.9367571 C28.2010483,19.6731305 28.4227308,19.4101199 28.7319684,19.4101199 C29.042448,19.4101199 29.2635095,19.6293981 29.2635095,19.9367571 C29.2635095,20.2441161 29.042448,20.4633942 28.7319684,20.4633942 C28.4227308,20.4633942 28.2010483,20.2441161 28.2010483,19.9367571" id="Fill-77" fill="#FFFFFF"></path>
        <path d="M29.219173,19.2780603 C29.219173,19.2780603 29.3961464,18.8826205 29.6178288,18.8826205 C29.8388903,18.8826205 30.0158637,19.0587821 30.0158637,19.2780603 C30.0158637,19.4979544 29.8388903,19.6735001 29.6178288,19.6735001 C29.3961464,19.6735001 29.219173,19.4979544 29.219173,19.2780603" id="Fill-79" fill="#FFFFFF"></path>
        <path d="M30.148811,18.9709477 C30.148811,18.9709477 30.3257844,18.5755079 30.5474669,18.5755079 C30.7685283,18.5755079 30.9455017,18.7516695 30.9455017,18.9709477 C30.9455017,19.1902258 30.7685283,19.3663875 30.5474669,19.3663875 C30.3257844,19.3663875 30.148811,19.1902258 30.148811,18.9709477" id="Fill-81" fill="#FFFFFF"></path>
        <path d="M31.1225372,18.9707629 C31.1225372,18.9707629 31.2554224,18.6634039 31.4323958,18.6634039 C31.6093692,18.6634039 31.7422544,18.7952172 31.7422544,18.9707629 C31.7422544,19.1463086 31.6093692,19.2781219 31.4323958,19.2781219 C31.2554224,19.2781219 31.1225372,19.1463086 31.1225372,18.9707629" id="Fill-83" fill="#FFFFFF"></path>
        <path d="M31.9200972,19.058659 C31.9200972,19.058659 32.0529824,18.7513 32.2299558,18.7513 C32.4069292,18.7513 32.5398144,18.8831132 32.5398144,19.058659 C32.5398144,19.2342047 32.4069292,19.3660179 32.2299558,19.3660179 C32.0529824,19.3660179 31.9200972,19.2342047 31.9200972,19.058659" id="Fill-85" fill="#FFFFFF"></path>
        <path d="M32.6725134,19.2343279 C32.6725134,19.2343279 32.7613106,19.0150497 32.8941959,19.0150497 C33.0264602,19.0150497 33.1152573,19.1025146 33.1152573,19.2343279 C33.1152573,19.3661411 33.0264602,19.4979544 32.8941959,19.4979544 C32.7613106,19.4979544 32.6725134,19.3661411 32.6725134,19.2343279" id="Fill-87" fill="#FFFFFF"></path>
        <path d="M33.2031231,19.4538524 C33.2031231,19.4538524 33.2919202,19.2783067 33.3800964,19.2783067 C33.5129817,19.2783067 33.6017789,19.3657716 33.6017789,19.4538524 C33.6017789,19.5856657 33.5129817,19.6737465 33.3800964,19.6737465 C33.2919202,19.6737465 33.2031231,19.5856657 33.2031231,19.4538524" id="Fill-89" fill="#FFFFFF"></path>
        <path d="M33.6907002,19.717171 C33.6907002,19.717171 33.8235855,19.409812 34.0005589,19.409812 C34.1775322,19.409812 34.3104175,19.5416252 34.3104175,19.717171 C34.3104175,19.8927167 34.1775322,20.0245299 34.0005589,20.0245299 C33.8235855,20.0245299 33.6907002,19.8927167 33.6907002,19.717171" id="Fill-91" fill="#FFFFFF"></path>
        <path d="M33.6019652,20.5518446 C33.6019652,20.5518446 33.7789385,20.2007532 33.9559119,20.2007532 C34.1335062,20.2007532 34.3545677,20.3762989 34.3545677,20.5518446 C34.3545677,20.7273903 34.1775943,20.902936 33.9559119,20.902936 C33.7348504,20.902936 33.6019652,20.7273903 33.6019652,20.5518446" id="Fill-93" fill="#FFFFFF"></path>
        <path d="M33.5134785,21.5616328 C33.5134785,21.2980063 33.7345399,21.1224606 33.9562224,21.1224606 C34.1772839,21.1224606 34.3989663,21.3423547 34.3989663,21.5616328 C34.3989663,21.780911 34.1772839,22.0008051 33.9562224,22.0008051 C33.7345399,22.0008051 33.5134785,21.8252593 33.5134785,21.5616328" id="Fill-95" fill="#FFFFFF"></path>
        <path d="M24.5262118,26.6996402 C24.5262118,26.3922812 24.7919823,26.173003 25.101841,26.173003 C25.4116996,26.173003 25.6327611,26.4360136 25.6327611,26.6996402 C25.6327611,26.9632667 25.4116996,27.2706257 25.101841,27.2706257 C24.7919823,27.2706257 24.5262118,27.0069991 24.5262118,26.6996402" id="Fill-97" fill="#FFFFFF"></path>
        <path d="M23.9512036,25.6458115 C23.9512036,25.3384526 24.2169741,25.1185585 24.4821237,25.1185585 C24.7478942,25.1185585 25.0136648,25.3384526 25.0136648,25.6458115 C25.0136648,25.9531705 24.7478942,26.1724487 24.4821237,26.1724487 C24.2169741,26.1724487 23.9512036,25.9531705 23.9512036,25.6458115" id="Fill-99" fill="#FFFFFF"></path>
        <path d="M23.7739818,24.4161292 C23.7739818,24.1525027 23.9950433,23.9332246 24.2608138,23.9332246 C24.5265844,23.9332246 24.7476458,24.1525027 24.7476458,24.4161292 C24.7476458,24.6797558 24.5265844,24.8990339 24.2608138,24.8990339 C23.9950433,24.8990339 23.7739818,24.6797558 23.7739818,24.4161292" id="Fill-101" fill="#FFFFFF"></path>
        <path d="M23.995478,23.274343 C23.995478,23.0107164 24.1724513,22.8351707 24.4382219,22.8351707 C24.7039924,22.8351707 24.8809658,23.0544489 24.8809658,23.274343 C24.8809658,23.4936211 24.6592833,23.7135152 24.4382219,23.7135152 C24.2165394,23.7135152 23.995478,23.4936211 23.995478,23.274343" id="Fill-103" fill="#FFFFFF"></path>
        <path d="M24.4819374,22.3521429 C24.4819374,22.1328647 24.6589108,21.956703 24.8805932,21.956703 C25.1016547,21.956703 25.278628,22.1328647 25.278628,22.3521429 C25.278628,22.571421 25.1016547,22.7475827 24.8805932,22.7475827 C24.6589108,22.7475827 24.4819374,22.571421 24.4819374,22.3521429" id="Fill-105" fill="#FFFFFF"></path>
        <path d="M25.1910107,21.6933845 C25.1910107,21.6933845 25.3679841,21.3422931 25.5449574,21.3422931 C25.7219308,21.3422931 25.8995251,21.5178388 25.8995251,21.6933845 C25.8995251,21.8689302 25.7219308,22.0444759 25.5449574,22.0444759 C25.3679841,22.0444759 25.1910107,21.8689302 25.1910107,21.6933845" id="Fill-107" fill="#FFFFFF"></path>
        <path d="M25.9875151,21.2982526 C25.9875151,21.2982526 26.1204003,20.9908937 26.2973737,20.9908937 C26.4743471,20.9908937 26.6072323,21.1227069 26.6072323,21.2982526 C26.6072323,21.4737984 26.4743471,21.6056116 26.2973737,21.6056116 C26.1204003,21.6056116 25.9875151,21.4737984 25.9875151,21.2982526" id="Fill-109" fill="#FFFFFF"></path>
        <path d="M26.7841436,21.166501 C26.7841436,21.166501 26.9170289,20.9028744 27.0499142,20.9028744 C27.1827994,20.9028744 27.3156847,21.0346877 27.3156847,21.166501 C27.3156847,21.2983142 27.1827994,21.4301275 27.0499142,21.4301275 C26.9170289,21.4301275 26.7841436,21.2983142 26.7841436,21.166501" id="Fill-111" fill="#FFFFFF"></path>
        <path d="M27.4932169,20.9909553 C27.4932169,20.6835963 27.7589875,20.4643181 28.024137,20.4643181 C28.2899076,20.4643181 28.5556781,20.6835963 28.5556781,20.9909553 C28.5556781,21.2983142 28.3346166,21.5182083 28.024137,21.5182083 C27.7142784,21.5182083 27.4932169,21.2983142 27.4932169,20.9909553" id="Fill-113" fill="#FFFFFF"></path>
        <path d="M27.2715966,22.3521429 C27.2715966,22.0010514 27.5373671,21.7374249 27.8913139,21.7374249 C28.2452606,21.7374249 28.5110312,22.0010514 28.5110312,22.3521429 C28.5110312,22.7032343 28.2452606,22.9668608 27.8913139,22.9668608 C27.5373671,22.9668608 27.2715966,22.7032343 27.2715966,22.3521429" id="Fill-115" fill="#FFFFFF"></path>
        <path d="M31.5208204,25.0309088 C31.8145341,25.0309088 32.0523615,24.795 32.0523615,24.5042717 C32.0523615,24.2129274 31.8145341,23.9770186 31.5208204,23.9770186 C31.2271067,23.9770186 30.9899003,24.2129274 30.9899003,24.5042717 C30.9899003,24.795 31.2271067,25.0309088 31.5208204,25.0309088" id="Fill-117" fill="#FFFFFF"></path>
        <path d="M31.521876,25.074826 C31.8398071,25.074826 32.0975052,24.8192068 32.0975052,24.5038405 C32.0975052,24.1884742 31.8398071,23.932855 31.521876,23.932855 C31.2039449,23.932855 30.9462468,24.1884742 30.9462468,24.5038405 C30.9462468,24.8192068 31.2039449,25.074826 31.521876,25.074826" id="Fill-119" fill="#FFFFFF"></path>
        <path d="M34.0003105,23.3182602 C34.2940242,23.3182602 34.5312306,23.0823514 34.5312306,22.7916231 C34.5312306,22.5002788 34.2940242,22.26437 34.0003105,22.26437 C33.7065968,22.26437 33.4687694,22.5002788 33.4687694,22.7916231 C33.4687694,23.0823514 33.7065968,23.3182602 34.0003105,23.3182602" id="Fill-121" fill="#FFFFFF"></path>
        <polygon id="Fill-123" fill="#FFFFFF" points="31.2293421 27.47315 29.1876283 28.0583024 29.4825839 29.0709239 31.5242978 28.4857716"></polygon>
        <path d="M26.740366,26.7874746 C26.9850239,26.7874746 27.1831099,26.5909866 27.1831099,26.3483024 C27.1831099,26.1056181 26.9850239,25.9091301 26.740366,25.9091301 C26.4957081,25.9091301 26.2976221,26.1056181 26.2976221,26.3483024 C26.2976221,26.5909866 26.4957081,26.7874746 26.740366,26.7874746" id="Fill-125" fill="#FFFFFF"></path>
        <polygon id="Fill-127" fill="#FFFFFF" points="26.5625233 28.9831511 26.5625233 29.1586968 26.7394967 29.1586968 26.7842057 29.7734147 27.3151258 30.0370413 27.2710377 30.1688545 27.403923 30.2569354 28.0236403 28.9394186"></polygon>
        <polygon id="Fill-129" fill="#FFFFFF" points="34.000621 26.8312686 32.7164773 27.6215323 34.000621 28.3680635 35.2400555 27.6215323"></polygon>
        <path d="M34.0003105,24.9430128 C34.2940242,24.9430128 34.5312306,24.707104 34.5312306,24.4163756 C34.5312306,24.1250313 34.2940242,23.8891225 34.0003105,23.8891225 C33.7065968,23.8891225 33.4687694,24.1250313 33.4687694,24.4163756 C33.4687694,24.707104 33.7065968,24.9430128 34.0003105,24.9430128" id="Fill-131" fill="#FFFFFF"></path>
        <path d="M33.6020893,24.3282948 L33.5580012,24.2845624 C33.4692041,24.1964815 33.3804069,24.1527491 33.2922307,24.0646683 C33.2922307,24.0646683 33.2034335,23.932855 33.1593454,23.8453901 C33.1593454,23.8453901 33.1593454,23.8016577 33.1152573,23.7573093 C33.1152573,23.7573093 33.1152573,23.7135768 33.0705483,23.6698444 C33.0705483,23.6698444 32.9823721,23.625496 32.8935749,23.6698444 C32.8053987,23.7135768 32.8053987,23.7135768 32.7606896,23.7573093 L32.7606896,23.9772034 L32.7606896,24.0646683 C32.7606896,24.0646683 32.7606896,24.1084007 32.7166015,24.1527491 C32.6284253,24.240214 32.5396282,24.3720272 32.5396282,24.5038405 C32.5396282,24.6356538 32.5837163,24.767467 32.7166015,24.8555479 C32.7166015,24.8555479 32.7606896,24.8992803 32.7606896,24.9430128 L32.7606896,25.0310936 C32.7606896,25.1185585 32.7166015,25.1629069 32.7606896,25.2503717 C32.7606896,25.2941042 32.8494868,25.3384526 32.8935749,25.3384526 L33.0705483,25.3384526 C33.0705483,25.3384526 33.0705483,25.2941042 33.1152573,25.2503717 C33.1593454,25.2066393 33.1152573,25.2066393 33.1593454,25.1629069 C33.1593454,25.1185585 33.2481426,25.0310936 33.2922307,24.9867452 C33.3804069,24.8992803 33.4692041,24.8555479 33.5580012,24.767467 L33.6020893,24.7237346 L33.6020893,24.6356538 L33.6020893,24.5475729 L33.6020893,24.3282948 Z" id="Fill-133" fill="#FFFFFF"></path>
        <path d="M34.3542572,24.3282948 L34.3983453,24.2845624 C34.4871425,24.1964815 34.5753187,24.1527491 34.6641159,24.0646683 C34.6641159,24.0646683 34.752913,23.932855 34.7970011,23.8453901 C34.7970011,23.8453901 34.7970011,23.8016577 34.8410892,23.7573093 C34.8410892,23.7573093 34.8410892,23.7135768 34.8851773,23.6698444 C34.8851773,23.6698444 34.9739745,23.625496 35.0627717,23.6698444 C35.1509479,23.7135768 35.1509479,23.7135768 35.1956569,23.7573093 L35.1956569,23.9772034 L35.1956569,24.0646683 C35.1956569,24.0646683 35.1956569,24.1084007 35.239745,24.1527491 C35.3279212,24.240214 35.4167184,24.3720272 35.4167184,24.5038405 C35.4167184,24.6356538 35.3726303,24.767467 35.239745,24.8555479 C35.239745,24.8555479 35.1956569,24.8992803 35.1956569,24.9430128 L35.1956569,25.0310936 C35.1956569,25.1185585 35.239745,25.1629069 35.1956569,25.2503717 C35.1956569,25.2941042 35.1068598,25.3384526 35.0627717,25.3384526 L34.8851773,25.3384526 C34.8851773,25.3384526 34.8851773,25.2941042 34.8410892,25.2503717 C34.7970011,25.2066393 34.8410892,25.2066393 34.7970011,25.1629069 C34.7970011,25.1185585 34.708204,25.0310936 34.6641159,24.9867452 C34.5753187,24.8992803 34.4871425,24.8555479 34.3983453,24.767467 L34.3542572,24.7237346 L34.3542572,24.6356538 L34.3542572,24.5475729 L34.3542572,24.3282948 Z" id="Fill-135" fill="#FFFFFF"></path>
        <path d="M34.7968769,23.4060947 C34.7968769,23.4060947 34.7527888,23.3180138 34.7080798,23.3180138 C34.6199036,23.3180138 34.5751945,23.3180138 34.4870183,23.3623622 L34.3982211,23.3623622 C34.3982211,23.3623622 34.354133,23.3623622 34.3100449,23.3180138 C34.2212478,23.230549 34.0883625,23.1424681 33.9554772,23.1424681 C33.822592,23.1424681 33.6903276,23.230549 33.6015305,23.3180138 C33.6015305,23.3180138 33.5574424,23.3623622 33.5127333,23.3623622 L33.4245571,23.3623622 C33.3357599,23.3623622 33.2916718,23.2742814 33.2028747,23.3180138 C33.1587866,23.3180138 33.1146985,23.3623622 33.1146985,23.4060947 L33.1146985,23.5379079 C33.4245571,23.7134536 33.4245571,24.0645451 33.7785039,24.0645451 L33.9554772,24.0645451 C34.3100449,24.0645451 34.354133,23.7571861 34.6199036,23.5379079 C34.6639917,23.5379079 34.6639917,23.4498271 34.6199036,23.4060947 L34.7968769,23.4060947 Z" id="Fill-137" fill="#FFFFFF"></path>
        <path d="M28.9528436,25.733646 C29.1975016,25.733646 29.3955875,25.537158 29.3955875,25.2944737 C29.3955875,25.0517895 29.1975016,24.8553015 28.9528436,24.8553015 C28.7081857,24.8553015 28.5100997,25.0517895 28.5100997,25.2944737 C28.5100997,25.537158 28.7081857,25.733646 28.9528436,25.733646" id="Fill-139" fill="#FFFFFF"></path>
        <path d="M28.5992074,25.2943506 L28.5551193,25.2943506 C28.4663221,25.2943506 28.3775249,25.2506181 28.2893487,25.2062697 C28.2452606,25.2062697 28.2005516,25.1625373 28.1564635,25.1188048 L28.1123754,25.0744565 L28.0235782,25.030724 L27.8906929,25.030724 C27.8466048,25.030724 27.8466048,25.1188048 27.8466048,25.1625373 C27.8466048,25.2062697 27.8906929,25.2506181 27.935402,25.2943506 L27.935402,25.338083 L27.935402,25.4261638 C27.935402,25.5142447 27.8906929,25.645442 27.935402,25.7335228 C27.9794901,25.8209877 28.0682872,25.9090685 28.1564635,25.952801 C28.1564635,25.952801 28.2005516,25.952801 28.2452606,25.9971493 L28.2452606,26.0408818 L28.2452606,26.2164275 C28.2452606,26.2164275 28.3334368,26.2607759 28.3775249,26.2164275 C28.422234,26.1726951 28.4663221,26.2164275 28.4663221,26.1289626 L28.4663221,26.0408818 L28.4663221,25.952801 L28.4663221,25.7772552 C28.5104102,25.6897904 28.5551193,25.6017095 28.5992074,25.5142447 L28.5992074,25.4698963 L28.5992074,25.3824314 C28.5992074,25.3824314 28.5992074,25.338083 28.5551193,25.2943506 L28.5992074,25.2943506 Z" id="Fill-141" fill="#FFFFFF"></path>
        <path d="M29.1748986,25.0748876 L29.1748986,25.0311552 C29.1748986,24.9430743 29.2636958,24.8549935 29.3077839,24.7675286 L29.3077839,24.5919829 L29.3077839,24.5039021 L29.3077839,24.4164372 C29.3077839,24.4164372 29.351872,24.3283564 29.3965811,24.3283564 L29.5288454,24.3283564 L29.5288454,24.5039021 L29.5288454,24.5482505 L29.6176425,24.5919829 C29.7064397,24.6357154 29.7946159,24.7237962 29.839325,24.8112611 C29.8834131,24.8993419 29.839325,25.0311552 29.839325,25.1186201 L29.839325,25.2067009 L29.839325,25.2504333 C29.839325,25.2947817 29.9275012,25.3385142 29.9275012,25.3822466 C29.9275012,25.3822466 29.9275012,25.4703274 29.8834131,25.5140599 C29.839325,25.5577923 29.7946159,25.5140599 29.7505278,25.5140599 C29.7505278,25.5140599 29.7064397,25.5140599 29.6617306,25.4703274 L29.6176425,25.425979 C29.6176425,25.425979 29.5288454,25.3385142 29.4847573,25.3385142 C29.3965811,25.3385142 29.3077839,25.2947817 29.2189867,25.2504333 L29.1748986,25.2504333 L29.1308105,25.1629684 L29.1308105,25.0748876 L29.1748986,25.0748876 Z" id="Fill-143" fill="#FFFFFF"></path>
        <path d="M29.26382,24.2404603 L29.1750228,24.1967279 C29.1309347,24.1967279 29.0868466,24.2841928 29.0427585,24.2841928 L28.9980495,24.2841928 L28.9098733,24.2841928 C28.8210761,24.2841928 28.6881908,24.2404603 28.6000146,24.2841928 C28.5112174,24.2841928 28.4224203,24.4160061 28.3783322,24.5040869 C28.3783322,24.5040869 28.3783322,24.5478193 28.3342441,24.5915518 L28.290156,24.5915518 L28.1125616,24.5915518 C28.1125616,24.5915518 28.0684735,24.6796326 28.1125616,24.723365 C28.1125616,24.723365 28.1125616,24.8114459 28.2013588,24.8114459 C28.4671293,24.8551783 28.6000146,25.1188048 28.8651642,24.9869916 C28.8651642,24.9869916 28.9980495,24.9432591 29.0427585,24.9432591 C29.3079081,24.8551783 29.2197319,24.5915518 29.3967053,24.3722736 L29.3967053,24.2404603 L29.26382,24.2404603 Z" id="Fill-145" fill="#FFFFFF"></path>
        <path d="M33.9559119,24.767467 C33.7348504,25.2941042 33.3802827,25.6020791 32.9375388,25.6458115 C32.4947949,25.689544 32.0967601,25.4702658 31.7869014,24.9873611 L31.4770428,24.9873611 C31.3441575,25.5577307 30.9895898,25.9094381 30.5027578,25.996903 C30.0159258,26.1287162 29.5731819,25.996903 29.2192351,25.5577307 L28.9534646,25.689544 C28.9534646,26.1724487 28.687694,26.5678885 28.2890382,26.7877826 C27.8910034,27.0070607 27.4482595,26.9633283 27.0055156,26.6559693 L26.8285422,26.7434342 C26.8285422,27.1826064 26.739745,27.5343138 26.4298864,27.7098595 C26.252913,27.7973244 26.0759397,27.8416728 25.8542572,27.7973244 C25.721372,27.7973244 25.6331957,27.6217787 25.5884867,27.4899654 L25.766081,27.4899654 C25.766081,27.4899654 25.8542572,27.4899654 25.8983453,27.5343138 L25.9871425,27.5343138 L26.0759397,27.5343138 L26.1641159,27.5343138 L26.1641159,27.446233 C26.1641159,27.4025005 26.0759397,27.3581522 26.0759397,27.3581522 L26.0759397,27.2706873 C26.0759397,27.1826064 26.0759397,27.0951416 26.0312306,27.0070607 C25.9871425,26.9189799 25.8983453,26.8752475 25.8101691,26.8752475 L25.721372,26.8752475 C25.721372,26.831515 25.721372,26.7877826 25.6331957,26.7434342 L25.5443986,26.7434342 C25.5443986,26.7434342 25.4562224,26.7877826 25.4562224,26.831515 L25.4562224,26.9189799 L25.4562224,27.0070607 L25.4562224,27.138874 L25.4562224,27.3581522 C25.4115133,27.3581522 25.3233371,27.3144197 25.278628,27.3144197 C25.3233371,27.1826064 25.278628,27.0507932 25.3233371,26.8752475 L25.3233371,26.7877826 L25.2345399,26.7877826 C25.2345399,26.7877826 25.1457428,26.8752475 25.1457428,26.9189799 L25.0575666,26.9189799 C24.9687694,26.9189799 24.8805932,26.9189799 24.791796,26.9633283 C24.7036198,27.0507932 24.5260255,27.2269548 24.4378493,27.3581522 L24.4378493,27.446233 C24.4378493,27.446233 24.4819374,27.5343138 24.5260255,27.5343138 L24.5707346,27.5343138 L24.791796,27.5343138 L25.0134785,27.5343138 L25.0575666,27.5343138 C25.1904518,27.5780463 25.278628,27.6655111 25.3674252,27.753592 C25.4115133,27.7973244 25.4562224,27.8416728 25.5003105,27.9291377 C25.5443986,28.0172185 25.5884867,28.0609509 25.6772839,28.1046834 C25.8542572,28.280845 26.4298864,28.4563907 26.739745,28.280845 C27.0496037,28.1046834 27.182489,27.6217787 27.182489,27.3144197 C27.4482595,27.4899654 28.1120649,27.6655111 28.5548088,27.4025005 C28.9975527,27.1826064 29.2633232,26.6116209 29.3074113,26.2605295 C29.5290938,26.524156 30.1928991,26.831515 30.7244402,26.6997018 C31.2553603,26.5678885 31.6540161,25.996903 31.7869014,25.6458115 C31.9638748,25.9531705 32.539504,26.3923428 33.0704241,26.3486103 C33.6019652,26.3042619 34.1328853,25.689544 34.2216824,25.3384526 L34.0447091,24.8992803 L33.9559119,24.767467 Z" id="Fill-147" fill="#FFFFFF"></path>
        <path d="M46.2185521,33.0232278 L21.8254118,33.0232278 C22.0464733,39.0835585 23.3306169,46.1971634 28.0232056,51.9495191 C29.6172079,53.8817538 31.5651569,55.6821753 34.044026,57.2195861 C34.6196552,56.8678788 35.2393725,56.4287065 35.7702926,56.0338826 C35.1505753,55.5947104 34.6196552,55.243003 34.1328232,54.8481792 C31.8750155,53.2233034 30.0152427,51.3348012 28.5100376,49.0952075 C26.0311685,45.3631673 24.5700515,40.7078182 24.0832195,35.0872758 L46.2185521,35.0872758 C46.2626402,34.384477 46.3073492,33.7260266 46.3514373,33.0669602 L46.2185521,33.0232278 Z" id="Fill-149" fill="#FFFFFF"></path>
        <path d="M45.8206414,37.5465788 L26.7838952,37.5465788 C27.2713482,40.5327037 28.0239508,43.1233888 29.1745882,45.4073309 L29.1745882,45.4510633 C30.7685904,48.6570823 33.2033714,51.3795807 36.2578697,53.3118154 C36.390755,53.3992803 37.7189867,54.3219732 37.8077839,54.2776248 C38.2946159,53.7947201 38.7814479,53.3118154 39.2241918,52.8289107 C37.0992695,51.511394 35.0631442,50.062064 33.3803448,48.1735617 C31.7869635,46.3294078 30.6357052,44.1335466 29.8831026,41.8939529 C29.6173321,41.1474217 29.3962706,40.357158 29.2192972,39.5662784 L45.4666947,39.5662784 C45.5995799,38.907828 45.6877561,38.2050292 45.7765533,37.5465788 L45.8206414,37.5465788 Z" id="Fill-151" fill="#FFFFFF"></path>
    </g>
</svg>